<svg width="51" height="50" viewBox="0 0 51 50" fill="none" xmlns="http://www.w3.org/2000/svg">
<path d="M25.8581 6.81818C20.9203 6.81818 20.3007 6.83977 18.3613 6.92803C16.4258 7.01666 15.1046 7.3231 13.9486 7.77272C12.7528 8.23712 11.7384 8.85833 10.7279 9.86931C9.71652 10.8799 9.09533 11.8943 8.62943 13.0898C8.17869 14.2462 7.87188 15.5678 7.78476 17.5026C7.69802 19.442 7.67529 20.0621 7.67529 25C7.67529 29.9379 7.69726 30.5557 7.78514 32.4951C7.87415 34.4307 8.18058 35.7519 8.62981 36.9079C9.09457 38.1038 9.71576 39.1182 10.7267 40.1288C11.7369 41.1401 12.7513 41.7629 13.9463 42.2273C15.1031 42.6769 16.4246 42.9833 18.3598 43.072C20.2992 43.1602 20.9185 43.1818 25.8558 43.1818C30.7939 43.1818 31.4117 43.1602 33.351 43.072C35.2866 42.9833 36.6093 42.6769 37.766 42.2273C38.9615 41.7629 39.9743 41.1401 40.9845 40.1288C41.9958 39.1182 42.617 38.1038 43.0829 36.9083C43.5299 35.7519 43.8367 34.4303 43.9276 32.4954C44.0147 30.5561 44.0374 29.9379 44.0374 25C44.0374 20.0621 44.0147 19.4424 43.9276 17.503C43.8367 15.5674 43.5299 14.2462 43.0829 13.0901C42.617 11.8943 41.9958 10.8799 40.9845 9.86931C39.9732 8.85795 38.9618 8.23674 37.7649 7.77272C36.6059 7.3231 35.2839 7.01666 33.3484 6.92803C31.409 6.83977 30.7916 6.81818 25.8524 6.81818H25.8581ZM24.2271 10.0947C24.7111 10.0939 25.2513 10.0947 25.8581 10.0947C30.7125 10.0947 31.2878 10.1121 33.2048 10.1992C34.9775 10.2803 35.9396 10.5765 36.5805 10.8254C37.4289 11.1549 38.0338 11.5489 38.6698 12.1852C39.3062 12.8216 39.7001 13.4276 40.0304 14.2761C40.2792 14.9163 40.5758 15.8784 40.6565 17.6511C40.7436 19.5678 40.7625 20.1436 40.7625 24.9958C40.7625 29.8481 40.7436 30.4239 40.6565 32.3405C40.5754 34.1132 40.2792 35.0754 40.0304 35.7155C39.7008 36.564 39.3062 37.1682 38.6698 37.8042C38.0335 38.4405 37.4293 38.8345 36.5805 39.164C35.9403 39.414 34.9775 39.7095 33.2048 39.7905C31.2882 39.8776 30.7125 39.8966 25.8581 39.8966C21.0033 39.8966 20.4279 39.8776 18.5113 39.7905C16.7387 39.7087 15.7766 39.4125 15.1353 39.1636C14.2868 38.8341 13.6808 38.4401 13.0444 37.8038C12.4081 37.1674 12.0142 36.5629 11.6839 35.714C11.435 35.0739 11.1384 34.1117 11.0578 32.339C10.9706 30.4223 10.9532 29.8466 10.9532 24.9913C10.9532 20.136 10.9706 19.5633 11.0578 17.6466C11.1388 15.8739 11.435 14.9117 11.6839 14.2708C12.0134 13.4223 12.4081 12.8163 13.0444 12.1799C13.6808 11.5436 14.2868 11.1496 15.1353 10.8193C15.7762 10.5693 16.7387 10.2739 18.5113 10.1924C20.1886 10.1167 20.8385 10.0939 24.2271 10.0901V10.0947ZM35.5631 13.1136C34.3586 13.1136 33.3813 14.0898 33.3813 15.2947C33.3813 16.4992 34.3586 17.4765 35.5631 17.4765C36.7676 17.4765 37.7448 16.4992 37.7448 15.2947C37.7448 14.0901 36.7676 13.1129 35.5631 13.1129V13.1136ZM25.8581 15.6629C20.7018 15.6629 16.5212 19.8436 16.5212 25C16.5212 30.1564 20.7018 34.3352 25.8581 34.3352C31.0144 34.3352 35.1934 30.1564 35.1934 25C35.1934 19.8436 31.014 15.6629 25.8577 15.6629H25.8581ZM25.8581 18.9394C29.2049 18.9394 31.9185 21.6526 31.9185 25C31.9185 28.347 29.2049 31.0606 25.8581 31.0606C22.5108 31.0606 19.7977 28.347 19.7977 25C19.7977 21.6526 22.5108 18.9394 25.8581 18.9394V18.9394Z" fill="#0F1C24"/>
</svg>
