<svg width="51" height="50" viewBox="0 0 51 50" fill="none" xmlns="http://www.w3.org/2000/svg">
<path fill-rule="evenodd" clip-rule="evenodd" d="M39.5931 18.9086C39.6052 19.2208 39.6092 19.533 39.6092 19.8453C39.6092 29.3135 32.9488 40.244 20.7692 40.244C17.0278 40.244 13.5489 39.0516 10.6177 37.0217C11.1358 37.0785 11.662 37.1211 12.1963 37.1211C15.2984 37.1211 18.1556 35.9711 20.4219 34.0405C17.5244 33.998 15.0777 31.9113 14.2339 29.0722C14.639 29.1574 15.0562 29.2001 15.4828 29.2001C16.0844 29.2001 16.6684 29.115 17.2283 28.9447C14.1962 28.2917 11.9124 25.3959 11.9124 21.9181C11.9124 21.8755 11.9124 21.8612 11.9124 21.8329C12.806 22.3581 13.8288 22.6844 14.9149 22.727C13.1357 21.4352 11.9662 19.235 11.9662 16.7508C11.9662 15.4449 12.2918 14.2098 12.8652 13.1452C16.1301 17.4889 21.0114 20.3422 26.5145 20.6403C26.4014 20.1151 26.3435 19.5616 26.3435 19.008C26.3435 15.0475 29.3083 11.8394 32.9663 11.8394C34.8706 11.8394 36.5905 12.7054 37.7977 14.0965C39.3091 13.7842 40.7249 13.1881 42.0061 12.3647C41.5095 14.0398 40.4611 15.4448 39.091 16.3249C40.4315 16.1546 41.71 15.7716 42.8957 15.2038C42.0061 16.6375 40.8864 17.9007 39.5931 18.9086Z" fill="#0F1C24"/>
</svg>
