<svg width="51" height="50" viewBox="0 0 51 50" fill="none" xmlns="http://www.w3.org/2000/svg">
<path fill-rule="evenodd" clip-rule="evenodd" d="M40.2447 12.2614C41.8509 12.6939 43.1174 13.9604 43.5499 15.5666C44.353 18.5011 44.3221 24.6172 44.3221 24.6172C44.3221 24.6172 44.3221 30.7025 43.5499 33.637C43.1174 35.2432 41.8509 36.5097 40.2447 36.9421C37.3102 37.7144 25.5722 37.7144 25.5722 37.7144C25.5722 37.7144 13.8651 37.7144 10.8997 36.9113C9.29342 36.4788 8.02696 35.2123 7.5945 33.6061C6.82227 30.7025 6.82227 24.5863 6.82227 24.5863C6.82227 24.5863 6.82227 18.5011 7.5945 15.5666C8.02696 13.9604 9.32431 12.663 10.8997 12.2306C13.8342 11.4583 25.5722 11.4583 25.5722 11.4583C25.5722 11.4583 37.3102 11.4583 40.2447 12.2614ZM31.5956 24.3719L21.8345 29.9938V18.75L31.5956 24.3719Z" fill="#0F1C24"/>
</svg>
