<svg width="417" height="400" viewBox="0 0 417 400" fill="none" xmlns="http://www.w3.org/2000/svg">
<path fill-rule="evenodd" clip-rule="evenodd" d="M194.807 1.4766C240.613 -2.51502 288.213 0.458614 327.379 24.5619C368.363 49.7842 402.409 89.1998 413.484 136.054C424.172 181.27 401.418 225.523 385.17 269.049C369.694 310.507 358.725 357.72 321.702 381.928C285.254 405.761 237.527 401.939 194.807 393.523C157.915 386.255 130.842 359.227 99.671 338.186C67.0343 316.156 24.5217 303.711 8.46654 267.741C-8.13303 230.552 2.90145 187.583 15.1043 148.726C27.4127 109.533 46.2483 72.3196 78.0124 46.2919C111.082 19.1948 152.227 5.1871 194.807 1.4766Z" fill="#C9DDE8"/>
</svg>
