<svg width="572" height="598" viewBox="0 0 572 598" fill="none" xmlns="http://www.w3.org/2000/svg">
<path fill-rule="evenodd" clip-rule="evenodd" d="M230.552 -16.3973C160.25 -16.6549 82.7521 -29.323 26.9956 13.6295C-28.387 56.2939 -40.7213 133.265 -53.1902 202.185C-64.2048 263.067 -59.4599 324.126 -39.7889 382.772C-20.2973 440.883 7.10562 498.914 57.8189 533.14C107.621 566.752 171.103 556.898 230.552 565.225C302.582 575.314 376.346 617.761 442.29 586.993C511.148 554.866 569.542 482.07 571.957 405.933C574.327 331.182 478.91 292.324 453.868 221.879C430.092 154.994 481.518 66.8543 433.03 15.1174C385.074 -36.051 300.565 -16.1407 230.552 -16.3973Z" fill="#B7D1E1"/>
</svg>
