<svg width="32" height="32" viewBox="0 0 32 32" fill="none" xmlns="http://www.w3.org/2000/svg">
<path d="M0 15.7472C0 14.1824 0.286277 12.6537 0.85883 11.1611C1.45524 9.64445 2.31407 8.27222 3.43532 7.04444C4.55657 5.81667 5.91639 4.84167 7.51476 4.11945C9.137 3.37315 10.962 3 12.9898 3C15.4232 3 17.5464 3.51759 19.3595 4.55278C21.1726 5.56389 22.5204 6.91204 23.4031 8.59722L18.0712 12.425C17.7611 11.5824 17.3078 10.9324 16.7114 10.475C16.1389 10.0176 15.5067 9.70463 14.8148 9.53611C14.1468 9.34352 13.4908 9.24722 12.8467 9.24722C11.5107 9.24722 10.4133 9.58426 9.55449 10.2583C8.71951 10.9324 8.09925 11.787 7.69369 12.8222C7.28813 13.8333 7.08535 14.8806 7.08535 15.9639C7.08535 17.1435 7.31199 18.2509 7.76526 19.2861C8.24238 20.3213 8.91036 21.1639 9.76919 21.8139C10.6519 22.4398 11.7016 22.7528 12.9182 22.7528C13.5624 22.7528 14.2184 22.6565 14.8864 22.4639C15.5544 22.2472 16.1627 21.9102 16.7114 21.4528C17.2601 20.9954 17.6776 20.3815 17.9639 19.6111L23.6536 23.0417C23.1526 24.2935 22.3177 25.3648 21.1487 26.2556C19.9797 27.1463 18.6557 27.8324 17.1766 28.3139C15.6975 28.7713 14.2303 29 12.7751 29C10.8904 29 9.16086 28.6269 7.58633 27.8806C6.03567 27.1102 4.68778 26.0991 3.54268 24.8472C2.42142 23.5713 1.55067 22.1509 0.930399 20.5861C0.310133 18.9972 0 17.3843 0 15.7472Z" fill="black"/>
<path d="M26.4892 28.7833V22.1389H32V28.7833H26.4892Z" fill="black"/>
</svg>
