<svg width="50" height="51" viewBox="0 0 50 51" fill="none" xmlns="http://www.w3.org/2000/svg">
<path fill-rule="evenodd" clip-rule="evenodd" d="M43.2804 42.9079C42.5894 42.0449 40.7875 42.3211 39.0791 43.4839L37.1679 41.1392C38.7949 39.759 40.2163 38.0798 41.3409 36.1206C43.0531 33.1376 43.863 29.8804 43.8661 26.6615L45.6938 26.6588C45.9696 28.4159 46.8022 29.6959 47.7892 29.703C49.0052 29.712 49.995 27.7864 50 25.402C50.0049 23.0178 49.0232 21.0778 47.8073 21.0688C46.7065 21.0608 45.7937 22.6399 45.6265 24.7079L43.7687 24.7105C43.3993 21.061 41.9897 17.5476 39.6654 14.6342L40.868 13.4675C41.8586 14.2272 42.8985 14.4727 43.3993 13.9953C44.0163 13.4071 43.5816 11.9447 42.4285 10.7289C41.2754 9.51315 39.8405 9.0044 39.2235 9.59252C38.6649 10.125 38.9704 11.3736 39.8885 12.5074L38.7745 13.5884C37.5021 12.21 36.0057 10.9961 34.3004 10.0058C32.6052 9.02135 30.823 8.328 29.0113 7.90806L29.509 5.03182C31.2808 5.08027 32.6804 4.49214 32.8575 3.51925C33.0757 2.32077 31.3566 0.99255 29.0174 0.552455C26.6785 0.112389 24.6054 0.727164 24.3872 1.92564C24.1897 3.01064 25.5822 4.19961 27.5828 4.74206L27.0941 7.56604C23.3615 7.09803 19.5901 7.75817 16.2664 9.41163L13.8568 6.17373C15.1305 4.94451 15.6925 3.53088 15.1265 2.71691C14.4293 1.71417 12.285 2.00124 10.3369 3.35807C8.38897 4.71489 7.37497 6.62767 8.07201 7.63037C8.70314 8.53813 10.5203 8.38566 12.3042 7.34247L14.5618 10.3744C12.0524 11.9662 9.87971 14.1706 8.29562 16.9303C6.82772 19.4877 6.01958 22.2469 5.81669 25.0105L3.16402 24.7368C3.13102 23.4896 2.66705 22.5235 1.98016 22.4286C1.13405 22.3117 0.270372 23.5608 0.0510366 25.2188C-0.168316 26.8766 0.339677 28.3153 1.18579 28.4323C1.9517 28.5381 2.73044 27.5229 3.03413 26.0998L5.77025 26.3118C5.74583 31.1841 7.58121 35.9715 10.9881 39.5928L9.46819 41.1876C8.01622 40.1609 6.52253 39.8691 5.83609 40.5768C4.99041 41.4486 5.68988 43.5067 7.39842 45.1739C9.10682 46.8409 11.1774 47.4857 12.023 46.6138C12.7886 45.8246 12.2847 44.0637 10.9153 42.5002L12.3982 40.9444C13.2951 41.7208 14.2732 42.4279 15.336 43.0451C18.4539 44.8557 21.8657 45.6844 25.2154 45.6286L25.3136 47.4155C24.0956 47.6627 23.2321 48.2868 23.2642 48.9811C23.3036 49.8362 24.6871 50.4738 26.3542 50.4051C28.0212 50.3364 29.3406 49.5873 29.3011 48.7322C29.2653 47.9579 28.1271 47.3641 26.675 47.3092L26.5785 45.553C29.8059 45.2666 32.9296 44.1632 35.6237 42.3198L37.6097 44.7563C36.4228 46.0699 35.9583 47.5192 36.578 48.2929C37.3413 49.2462 39.4604 48.8135 41.3113 47.3264C43.1621 45.8393 44.0437 43.8611 43.2804 42.9079ZM31.7671 32.5558C32.3765 31.5995 32.7097 30.5003 32.7665 29.258H28.5129C28.4804 30.2714 28.2041 31.0111 27.6841 31.4769C27.1641 31.9428 26.4124 32.1757 25.4293 32.1757C24.2673 32.1757 23.4467 31.7671 22.9673 30.9498C22.496 30.1325 22.2604 28.7717 22.2604 26.8674V25.6047C22.2847 23.8475 22.5447 22.5684 23.0404 21.7675C23.536 20.9665 24.3161 20.566 25.3805 20.566C26.4287 20.566 27.2087 20.8031 27.7206 21.2771C28.2325 21.7511 28.5047 22.5316 28.5373 23.6186H32.8031C32.6243 21.6163 31.8809 20.0471 30.5727 18.911C29.2645 17.7668 27.5338 17.1947 25.3805 17.1947C23.8854 17.1947 22.5691 17.5543 21.4316 18.2735C20.294 18.9846 19.4205 19.998 18.8111 21.3139C18.2098 22.6215 17.9092 24.1499 17.9092 25.8989V26.7816C17.9092 29.5686 18.5795 31.7262 19.9202 33.2546C21.2609 34.7829 23.0973 35.5471 25.4293 35.5471C26.8431 35.5471 28.0985 35.2855 29.1954 34.7625C30.3005 34.2394 31.1577 33.5038 31.7671 32.5558Z" fill="#0F1C24"/>
</svg>
