<svg width="378" height="250" viewBox="0 0 378 250" fill="none" xmlns="http://www.w3.org/2000/svg">
<path d="M251.359 184.221C248.833 181.075 242.25 182.078 236.011 186.313L229.025 177.765C234.966 172.738 240.156 166.621 244.261 159.484C250.511 148.616 253.465 136.748 253.47 125.018L260.147 125.011C261.158 131.415 264.202 136.081 267.808 136.108C272.25 136.143 275.863 129.128 275.877 120.439C275.891 111.75 272.301 104.679 267.859 104.644C263.838 104.613 260.506 110.366 259.898 117.902L253.111 117.908C251.755 104.608 246.599 91.8022 238.103 81.1815L242.494 76.9317C246.115 79.7019 249.914 80.5984 251.743 78.8594C253.996 76.7171 252.406 71.387 248.191 66.9547C243.976 62.5222 238.733 60.6658 236.48 62.8079C234.44 64.7474 235.559 69.2978 238.915 73.4314L234.847 77.3687C230.196 72.3434 224.727 67.9173 218.495 64.3053C212.301 60.715 205.788 58.1852 199.169 56.6518L200.982 46.1712C207.455 46.3509 212.568 44.21 213.213 40.665C214.008 36.298 207.725 31.4547 199.179 29.8469C190.633 28.2392 183.061 30.4759 182.266 34.8429C181.546 38.7965 186.635 43.1317 193.945 45.112L192.164 55.4021C178.527 53.6901 164.75 56.0892 152.611 62.1089L143.802 50.3053C148.453 45.8281 150.504 40.6776 148.435 37.7104C145.886 34.055 138.053 35.0974 130.938 40.0385C123.824 44.9796 120.123 51.9483 122.671 55.6035C124.978 58.9126 131.617 58.3601 138.132 54.5617L146.385 65.6145C137.22 71.4106 129.287 79.44 123.504 89.4943C118.146 98.8111 115.198 108.865 114.462 118.935L104.77 117.933C104.648 113.388 102.951 109.867 100.441 109.52C97.35 109.092 94.1969 113.643 93.3985 119.684C92.6 125.725 94.4583 130.969 97.5496 131.397C100.348 131.784 103.191 128.086 104.298 122.9L114.294 123.677C114.213 141.433 120.927 158.882 133.379 172.084L127.83 177.893C122.523 174.149 117.066 173.083 114.559 175.661C111.471 178.837 114.03 186.338 120.275 192.416C126.519 198.494 134.085 200.847 137.172 197.672C139.968 194.797 138.124 188.379 133.119 182.679L138.533 177.012C141.811 179.843 145.386 182.421 149.27 184.672C160.663 191.276 173.129 194.302 185.366 194.104L185.728 200.616C181.279 201.515 178.125 203.788 178.244 206.318C178.389 209.434 183.445 211.76 189.535 211.513C195.625 211.265 200.444 208.538 200.298 205.421C200.166 202.6 196.006 200.434 190.702 200.231L190.346 193.831C202.136 192.793 213.546 188.778 223.385 182.065L230.645 190.947C226.311 195.732 224.617 201.013 226.882 203.833C229.672 207.308 237.413 205.735 244.172 200.319C250.931 194.903 254.148 187.696 251.359 184.221ZM235.316 98.0354C239.437 100.424 240.862 105.69 238.5 109.797C236.138 113.905 230.882 115.299 226.761 112.91C222.64 110.522 221.215 105.256 223.577 101.148C225.939 97.0407 231.195 95.6469 235.316 98.0354ZM141.029 111.009C136.309 108.273 134.677 102.242 137.382 97.5376C140.088 92.8331 146.107 91.2371 150.827 93.9726C155.546 96.7081 157.179 102.739 154.474 107.444C151.768 112.148 145.749 113.744 141.029 111.009ZM164.834 69.6171C168.296 63.5975 175.998 61.5551 182.037 65.0553C188.077 68.5556 190.166 76.273 186.704 82.2927C183.242 88.3123 175.54 90.3547 169.5 86.8544C163.461 83.3542 161.372 75.6367 164.834 69.6171ZM143.14 164.136C137.101 160.636 135.012 152.918 138.474 146.899C141.936 140.879 149.638 138.837 155.677 142.337C161.716 145.837 163.806 153.555 160.344 159.574C156.881 165.594 149.179 167.636 143.14 164.136ZM189.193 120.983C184.473 118.248 182.841 112.216 185.546 107.512C188.252 102.808 194.271 101.211 198.991 103.947C203.711 106.682 205.343 112.714 202.638 117.418C199.932 122.123 193.913 123.719 189.193 120.983ZM182.21 180.723C178.089 178.335 176.663 173.069 179.026 168.961C181.388 164.854 186.644 163.46 190.765 165.848C194.886 168.237 196.311 173.503 193.949 177.611C191.587 181.718 186.331 183.112 182.21 180.723ZM212.796 161.536C205.296 157.19 202.702 147.606 207.001 140.131C211.3 132.655 220.865 130.119 228.365 134.466C235.864 138.813 238.458 148.396 234.159 155.871C229.86 163.347 220.295 165.883 212.796 161.536Z" fill="#0F1C24"/>
<path d="M308.926 175.085C308.456 174.903 307.806 175.424 307.394 176.274L306.104 175.787C306.435 174.87 306.616 173.883 306.616 172.853C306.616 171.286 306.197 169.816 305.466 168.547L306.189 168.128C306.698 168.757 307.318 169.071 307.71 168.848C308.194 168.573 308.148 167.587 307.608 166.646C307.068 165.706 306.239 165.166 305.756 165.44C305.318 165.689 305.316 166.521 305.719 167.374L304.985 167.8C304.009 166.446 302.653 165.384 301.071 164.768L301.282 164.033C301.847 164.105 302.314 163.964 302.404 163.661C302.515 163.288 302.01 162.811 301.278 162.596C300.545 162.381 299.862 162.509 299.751 162.882C299.651 163.219 300.055 163.642 300.676 163.878L300.481 164.559C299.664 164.307 298.796 164.171 297.896 164.171C297.002 164.171 296.139 164.306 295.326 164.555L294.87 163.308C295.582 162.921 296.002 162.369 295.852 161.945C295.666 161.423 294.683 161.293 293.658 161.655C292.632 162.017 291.951 162.733 292.137 163.256C292.305 163.729 293.127 163.879 294.042 163.634L294.49 164.859C292.906 165.529 291.563 166.653 290.623 168.065L288.934 167.341C289.159 166.565 289.06 165.879 288.651 165.687C288.147 165.452 287.364 166.056 286.901 167.036C286.438 168.017 286.472 169.003 286.975 169.239C287.431 169.452 288.116 168.976 288.585 168.157L290.167 168.835C289.536 170.037 289.177 171.403 289.177 172.853C289.177 174.198 289.484 175.47 290.031 176.606L288.919 177.105C288.623 176.621 288.22 176.347 287.926 176.466C287.565 176.614 287.507 177.304 287.796 178.008C288.086 178.711 288.614 179.162 288.976 179.015C289.303 178.881 289.38 178.303 289.177 177.672L290.309 177.129C291.406 179.056 293.22 180.522 295.391 181.17L295.152 182.146C294.344 182.074 293.686 182.301 293.575 182.737C293.439 183.274 294.183 183.925 295.238 184.192C296.293 184.458 297.259 184.238 297.396 183.701C297.519 183.214 296.92 182.635 296.023 182.333L296.256 181.38C296.788 181.481 297.335 181.535 297.896 181.535C299.542 181.535 301.08 181.081 302.394 180.292L302.838 180.974C302.412 181.351 302.212 181.794 302.383 182.06C302.593 182.389 303.285 182.323 303.929 181.914C304.574 181.506 304.926 180.909 304.716 180.58C304.526 180.284 303.94 180.31 303.353 180.621L302.916 179.951C304.128 179.099 305.114 177.949 305.761 176.606L307.101 177.111C306.93 177.901 307.075 178.579 307.496 178.742C308.015 178.943 308.755 178.287 309.15 177.277C309.545 176.267 309.444 175.286 308.926 175.085ZM301.819 166.766C302.414 166.766 302.897 167.246 302.897 167.839C302.897 168.432 302.414 168.912 301.819 168.912C301.224 168.912 300.742 168.432 300.742 167.839C300.742 167.246 301.224 166.766 301.819 166.766ZM292.415 174.082C291.733 174.082 291.181 173.532 291.181 172.853C291.181 172.175 291.733 171.625 292.415 171.625C293.097 171.625 293.649 172.175 293.649 172.853C293.649 173.532 293.097 174.082 292.415 174.082ZM292.415 168.111C292.415 167.243 293.122 166.539 293.994 166.539C294.866 166.539 295.573 167.243 295.573 168.111C295.573 168.98 294.866 169.684 293.994 169.684C293.122 169.684 292.415 168.98 292.415 168.111ZM295.953 179.698C295.081 179.698 294.374 178.994 294.374 178.126C294.374 177.257 295.081 176.553 295.953 176.553C296.825 176.553 297.532 177.257 297.532 178.126C297.532 178.994 296.825 179.698 295.953 179.698ZM298.253 172.141C297.572 172.141 297.019 171.591 297.019 170.912C297.019 170.234 297.572 169.684 298.253 169.684C298.935 169.684 299.487 170.234 299.487 170.912C299.487 171.591 298.935 172.141 298.253 172.141ZM301.218 179.043C300.623 179.043 300.141 178.562 300.141 177.97C300.141 177.377 300.623 176.897 301.218 176.897C301.813 176.897 302.296 177.377 302.296 177.97C302.296 178.562 301.813 179.043 301.218 179.043ZM303.336 175.049C302.253 175.049 301.375 174.174 301.375 173.096C301.375 172.018 302.253 171.144 303.336 171.144C304.419 171.144 305.297 172.018 305.297 173.096C305.297 174.174 304.419 175.049 303.336 175.049Z" fill="#0F1C24"/>
<path d="M90.6141 60.7793C89.9567 60.5245 89.0461 61.2543 88.4692 62.4435L86.6644 61.7621C87.127 60.4791 87.3805 59.0969 87.3805 57.6554C87.3805 55.4606 86.7933 53.4036 85.7712 51.6263L86.7831 51.0391C87.4948 51.9204 88.3633 52.3599 88.9125 52.0475C89.5892 51.6628 89.5252 50.283 88.7696 48.9656C88.014 47.6483 86.853 46.8923 86.1763 47.2771C85.5638 47.6254 85.5603 48.7893 86.1253 49.9841L85.0967 50.5809C83.7312 48.6854 81.8326 47.1983 79.6181 46.3354L79.9133 45.3062C80.7039 45.408 81.3582 45.2102 81.4838 44.7862C81.6387 44.2639 80.9327 43.5962 79.907 43.2948C78.8814 42.9935 77.9244 43.1726 77.7696 43.6949C77.6294 44.1677 78.1958 44.7588 79.0652 45.0903L78.7917 46.0438C77.6482 45.6909 76.433 45.5006 75.173 45.5006C73.9205 45.5006 72.7124 45.6891 71.575 46.038L70.9359 44.2913C71.9331 43.7502 72.5216 42.9771 72.3103 42.3835C72.05 41.6522 70.675 41.4702 69.2388 41.9769C67.8028 42.4836 66.8495 43.4872 67.1098 44.2185C67.3455 44.8806 68.4953 45.0904 69.7764 44.7486L70.4038 46.4636C68.1866 47.4015 66.3068 48.9744 64.9909 50.952L62.6258 49.9374C62.9407 48.8509 62.8024 47.8907 62.2299 47.6229C61.5246 47.293 60.4277 48.1386 59.7798 49.5116C59.1319 50.8846 59.1784 52.2651 59.8836 52.595C60.5221 52.8937 61.4805 52.2272 62.1372 51.0799L64.3525 52.0296C63.4683 53.7121 62.9655 55.6248 62.9655 57.6554C62.9655 59.537 63.3953 61.3187 64.1619 62.9087L62.6049 63.6078C62.1899 62.9301 61.6256 62.5457 61.2148 62.7134C60.7087 62.92 60.6274 63.8861 61.0332 64.8713C61.439 65.8565 62.1781 66.4876 62.6841 66.281C63.1422 66.094 63.2508 65.2842 62.9665 64.4016L64.5501 63.6417C66.0862 66.3382 68.626 68.3919 71.6656 69.2985L71.3307 70.6656C70.1995 70.5643 69.279 70.882 69.1237 71.4925C68.9324 72.2446 69.9746 73.1562 71.4516 73.5287C72.9285 73.9011 74.2809 73.5934 74.4722 72.8413C74.6454 72.1604 73.8062 71.3501 72.55 70.9262L72.8769 69.5924C73.6209 69.7335 74.3877 69.8102 75.173 69.8102C77.4766 69.8102 79.6307 69.1741 81.4691 68.0699L82.0919 69.0245C81.4956 69.5512 81.2156 70.1724 81.4542 70.5452C81.7481 71.0044 82.7175 70.9129 83.6194 70.3408C84.5213 69.7686 85.0141 68.9324 84.7203 68.4732C84.4542 68.0574 83.6346 68.0945 82.8125 68.5295L82.2004 67.5913C83.8977 66.399 85.2777 64.7891 86.1843 62.9085L88.0597 63.6166C87.8198 64.7218 88.0234 65.6704 88.6129 65.8988C89.3391 66.1803 90.3757 65.2624 90.9283 63.8486C91.4809 62.4349 91.3402 61.0607 90.6141 60.7793ZM80.6652 49.133C81.4984 49.133 82.1738 49.8055 82.1738 50.6351C82.1738 51.4647 81.4984 52.1372 80.6652 52.1372C79.832 52.1372 79.1566 51.4647 79.1566 50.6351C79.1566 49.8055 79.832 49.133 80.6652 49.133ZM67.4992 59.3757C66.545 59.3757 65.7714 58.6055 65.7714 57.6554C65.7714 56.7052 66.545 55.935 67.4992 55.935C68.4534 55.935 69.227 56.7053 69.227 57.6554C69.227 58.6055 68.4534 59.3757 67.4992 59.3757ZM67.4992 51.0162C67.4992 49.8004 68.489 48.8149 69.71 48.8149C70.9311 48.8149 71.9209 49.8004 71.9209 51.0162C71.9209 52.2319 70.9311 53.2175 69.71 53.2175C68.489 53.2175 67.4992 52.2319 67.4992 51.0162ZM72.4526 67.2376C71.2315 67.2376 70.2417 66.2521 70.2417 65.0364C70.2417 63.8206 71.2315 62.8351 72.4526 62.8351C73.6735 62.8351 74.6634 63.8206 74.6634 65.0364C74.6634 66.2521 73.6735 67.2376 72.4526 67.2376ZM75.6725 56.6581C74.7183 56.6581 73.9447 55.8879 73.9447 54.9378C73.9447 53.9877 74.7183 53.2175 75.6725 53.2175C76.6268 53.2175 77.4003 53.9877 77.4003 54.9378C77.4003 55.8879 76.6268 56.6581 75.6725 56.6581ZM79.8235 66.3202C78.9904 66.3202 78.315 65.6477 78.315 64.8181C78.315 63.9885 78.9904 63.316 79.8235 63.316C80.6568 63.316 81.3322 63.9885 81.3322 64.8181C81.3322 65.6476 80.6568 66.3202 79.8235 66.3202ZM82.7882 60.7287C81.2719 60.7287 80.0428 59.5048 80.0428 57.9951C80.0428 56.4853 81.2719 55.2615 82.7882 55.2615C84.3045 55.2615 85.5337 56.4853 85.5337 57.9951C85.5337 59.5048 84.3045 60.7287 82.7882 60.7287Z" fill="#0F1C24"/>
<path d="M156.698 218.997C156.416 218.888 156.026 219.201 155.779 219.711L155.005 219.419C155.203 218.869 155.312 218.276 155.312 217.659C155.312 216.718 155.06 215.836 154.622 215.075L155.056 214.823C155.361 215.201 155.733 215.389 155.969 215.255C156.259 215.09 156.231 214.499 155.907 213.934C155.584 213.37 155.086 213.046 154.796 213.211C154.534 213.36 154.532 213.859 154.774 214.371L154.333 214.627C153.748 213.814 152.934 213.177 151.985 212.807L152.112 212.366C152.451 212.41 152.731 212.325 152.785 212.143C152.851 211.919 152.549 211.633 152.109 211.504C151.67 211.375 151.259 211.452 151.193 211.676C151.133 211.878 151.376 212.132 151.748 212.274L151.631 212.682C151.141 212.531 150.62 212.449 150.08 212.449C149.544 212.449 149.026 212.53 148.538 212.68L148.264 211.931C148.692 211.699 148.944 211.368 148.853 211.114C148.742 210.8 148.153 210.722 147.537 210.939C146.922 211.156 146.513 211.587 146.625 211.9C146.726 212.184 147.218 212.274 147.767 212.127L148.036 212.862C147.086 213.264 146.28 213.938 145.717 214.786L144.703 214.351C144.838 213.885 144.779 213.474 144.533 213.359C144.231 213.218 143.761 213.58 143.483 214.168C143.206 214.757 143.226 215.348 143.528 215.49C143.801 215.618 144.212 215.332 144.494 214.841L145.443 215.248C145.064 215.969 144.849 216.788 144.849 217.659C144.849 218.465 145.033 219.229 145.361 219.91L144.694 220.21C144.516 219.919 144.274 219.754 144.098 219.826C143.881 219.915 143.847 220.329 144.02 220.751C144.194 221.173 144.511 221.444 144.728 221.355C144.924 221.275 144.971 220.928 144.849 220.55L145.528 220.224C146.186 221.38 147.274 222.26 148.577 222.649L148.434 223.234C147.949 223.191 147.554 223.327 147.488 223.589C147.406 223.911 147.852 224.302 148.485 224.461C149.118 224.621 149.698 224.489 149.78 224.167C149.854 223.875 149.495 223.528 148.956 223.346L149.096 222.775C149.415 222.835 149.744 222.868 150.08 222.868C151.068 222.868 151.991 222.595 152.779 222.122L153.046 222.531C152.79 222.757 152.67 223.023 152.772 223.183C152.898 223.38 153.314 223.34 153.7 223.095C154.087 222.85 154.298 222.492 154.172 222.295C154.058 222.117 153.707 222.133 153.354 222.319L153.092 221.917C153.819 221.406 154.411 220.716 154.799 219.91L155.603 220.213C155.5 220.687 155.588 221.094 155.84 221.192C156.151 221.312 156.596 220.919 156.833 220.313C157.069 219.707 157.009 219.118 156.698 218.997ZM152.434 214.006C152.791 214.006 153.081 214.294 153.081 214.65C153.081 215.005 152.791 215.294 152.434 215.294C152.077 215.294 151.788 215.005 151.788 214.65C151.788 214.294 152.077 214.006 152.434 214.006ZM146.792 218.396C146.383 218.396 146.051 218.066 146.051 217.659C146.051 217.251 146.383 216.921 146.792 216.921C147.201 216.921 147.532 217.251 147.532 217.659C147.532 218.066 147.201 218.396 146.792 218.396ZM146.792 214.813C146.792 214.292 147.216 213.87 147.739 213.87C148.262 213.87 148.687 214.292 148.687 214.813C148.687 215.334 148.262 215.757 147.739 215.757C147.216 215.757 146.792 215.334 146.792 214.813ZM148.914 221.765C148.391 221.765 147.967 221.343 147.967 220.822C147.967 220.301 148.391 219.878 148.914 219.878C149.438 219.878 149.862 220.301 149.862 220.822C149.862 221.343 149.438 221.765 148.914 221.765ZM150.294 217.231C149.885 217.231 149.554 216.901 149.554 216.494C149.554 216.087 149.885 215.757 150.294 215.757C150.703 215.757 151.035 216.087 151.035 216.494C151.035 216.901 150.703 217.231 150.294 217.231ZM152.073 221.372C151.716 221.372 151.427 221.084 151.427 220.728C151.427 220.373 151.716 220.085 152.073 220.085C152.43 220.085 152.72 220.373 152.72 220.728C152.72 221.084 152.43 221.372 152.073 221.372ZM153.344 218.976C152.694 218.976 152.167 218.451 152.167 217.804C152.167 217.157 152.694 216.633 153.344 216.633C153.994 216.633 154.521 217.157 154.521 217.804C154.521 218.451 153.994 218.976 153.344 218.976Z" fill="#0F1C24"/>
<path d="M249.789 32.5011C249.507 32.3919 249.117 32.7047 248.87 33.2143L248.096 32.9223C248.295 32.3724 248.403 31.7801 248.403 31.1623C248.403 30.2217 248.152 29.3401 247.713 28.5784L248.147 28.3267C248.452 28.7044 248.824 28.8928 249.06 28.7589C249.35 28.594 249.322 28.0027 248.998 27.4381C248.675 26.8735 248.177 26.5495 247.887 26.7144C247.625 26.8637 247.623 27.3625 247.865 27.8746L247.424 28.1304C246.839 27.318 246.026 26.6807 245.076 26.3109L245.203 25.8698C245.542 25.9134 245.822 25.8286 245.876 25.6469C245.942 25.4231 245.64 25.1369 245.2 25.0078C244.761 24.8786 244.351 24.9554 244.284 25.1792C244.224 25.3818 244.467 25.6352 244.839 25.7772L244.722 26.1859C244.232 26.0347 243.711 25.9531 243.171 25.9531C242.635 25.9531 242.117 26.0339 241.629 26.1834L241.355 25.4348C241.783 25.2029 242.035 24.8716 241.945 24.6172C241.833 24.3038 241.244 24.2258 240.628 24.4429C240.013 24.6601 239.604 25.0902 239.716 25.4036C239.817 25.6874 240.309 25.7773 240.859 25.6308L241.127 26.3658C240.177 26.7678 239.372 27.4419 238.808 28.2894L237.794 27.8546C237.929 27.3889 237.87 26.9774 237.624 26.8627C237.322 26.7212 236.852 27.0836 236.574 27.6721C236.297 28.2605 236.317 28.8522 236.619 28.9936C236.892 29.1216 237.303 28.8359 237.585 28.3442L238.534 28.7512C238.155 29.4723 237.94 30.292 237.94 31.1623C237.94 31.9687 238.124 32.7323 238.452 33.4137L237.785 33.7133C237.607 33.4229 237.365 33.2581 237.189 33.33C236.972 33.4186 236.938 33.8326 237.111 34.2548C237.285 34.677 237.602 34.9475 237.819 34.859C238.015 34.7788 238.062 34.4318 237.94 34.0535L238.619 33.7279C239.277 34.8835 240.366 35.7637 241.668 36.1522L241.525 36.7381C241.04 36.6947 240.645 36.8308 240.579 37.0925C240.497 37.4148 240.944 37.8055 241.577 37.9651C242.209 38.1247 242.789 37.9928 242.871 37.6705C242.945 37.3787 242.586 37.0315 242.047 36.8498L242.187 36.2782C242.506 36.3386 242.835 36.3715 243.171 36.3715C244.159 36.3715 245.082 36.0989 245.87 35.6256L246.137 36.0348C245.881 36.2605 245.761 36.5267 245.863 36.6865C245.989 36.8833 246.405 36.8441 246.791 36.5989C247.178 36.3537 247.389 35.9953 247.263 35.7985C247.149 35.6203 246.798 35.6362 246.445 35.8226L246.183 35.4205C246.911 34.9096 247.502 34.2196 247.891 33.4136L248.694 33.7171C248.591 34.1908 248.679 34.5973 248.931 34.6952C249.243 34.8158 249.687 34.4224 249.924 33.8165C250.16 33.2106 250.1 32.6217 249.789 32.5011ZM245.525 27.5098C245.882 27.5098 246.172 27.798 246.172 28.1536C246.172 28.5091 245.882 28.7973 245.525 28.7973C245.168 28.7973 244.879 28.5091 244.879 28.1536C244.879 27.7981 245.168 27.5098 245.525 27.5098ZM239.883 31.8996C239.474 31.8996 239.142 31.5695 239.142 31.1623C239.142 30.7551 239.474 30.425 239.883 30.425C240.292 30.425 240.623 30.7551 240.623 31.1623C240.623 31.5695 240.292 31.8996 239.883 31.8996ZM239.883 28.3169C239.883 27.7959 240.307 27.3735 240.83 27.3735C241.353 27.3735 241.778 27.7959 241.778 28.3169C241.778 28.8379 241.353 29.2603 240.83 29.2603C240.307 29.2603 239.883 28.8379 239.883 28.3169ZM242.005 35.269C241.482 35.269 241.058 34.8466 241.058 34.3256C241.058 33.8045 241.482 33.3821 242.005 33.3821C242.529 33.3821 242.953 33.8045 242.953 34.3256C242.953 34.8466 242.529 35.269 242.005 35.269ZM243.385 30.7349C242.977 30.7349 242.645 30.4048 242.645 29.9976C242.645 29.5904 242.977 29.2603 243.385 29.2603C243.794 29.2603 244.126 29.5904 244.126 29.9976C244.126 30.4048 243.794 30.7349 243.385 30.7349ZM245.164 34.8758C244.807 34.8758 244.518 34.5875 244.518 34.232C244.518 33.8765 244.807 33.5883 245.164 33.5883C245.522 33.5883 245.811 33.8765 245.811 34.232C245.811 34.5875 245.522 34.8758 245.164 34.8758ZM246.435 32.4794C245.785 32.4794 245.258 31.9549 245.258 31.3079C245.258 30.6608 245.785 30.1363 246.435 30.1363C247.085 30.1363 247.612 30.6608 247.612 31.3079C247.612 31.9549 247.085 32.4794 246.435 32.4794Z" fill="#0F1C24"/>
<path d="M376.91 51.5904C375.971 51.2265 374.67 52.2691 373.846 53.9679L371.267 52.9945C371.928 51.1616 372.29 49.187 372.29 47.1277C372.29 43.9923 371.451 41.0537 369.991 38.5147L371.437 37.6759C372.454 38.9348 373.694 39.5627 374.479 39.1165C375.446 38.5668 375.354 36.5957 374.275 34.7137C373.195 32.8319 371.537 31.7519 370.57 32.3015C369.695 32.7992 369.69 34.4619 370.497 36.1687L369.028 37.0213C367.077 34.3134 364.365 32.189 361.201 30.9563L361.623 29.486C362.752 29.6314 363.687 29.3489 363.866 28.7432C364.088 27.9971 363.079 27.0432 361.614 26.6127C360.149 26.1822 358.782 26.438 358.56 27.1841C358.36 27.8596 359.169 28.704 360.411 29.1776L360.021 30.5398C358.387 30.0356 356.651 29.7637 354.851 29.7637C353.062 29.7637 351.336 30.033 349.711 30.5314L348.798 28.0361C350.223 27.2632 351.063 26.1588 350.761 25.3107C350.39 24.266 348.425 24.006 346.374 24.7299C344.322 25.4538 342.96 26.8875 343.332 27.9322C343.669 28.878 345.311 29.1778 347.142 28.6895L348.038 31.1395C344.87 32.4794 342.185 34.7263 340.305 37.5514L336.926 36.102C337.376 34.5498 337.179 33.1782 336.361 32.7956C335.353 32.3243 333.786 33.5323 332.861 35.4938C331.935 37.4552 332.002 39.4273 333.009 39.8986C333.921 40.3253 335.29 39.3732 336.228 37.7342L339.393 39.0908C338.13 41.4945 337.412 44.2269 337.412 47.1277C337.412 49.8158 338.026 52.361 339.121 54.6325L336.897 55.6311C336.304 54.663 335.498 54.1139 334.911 54.3535C334.188 54.6487 334.072 56.0288 334.651 57.4362C335.231 58.8436 336.287 59.7452 337.01 59.45C337.664 59.1828 337.819 58.026 337.413 56.7651L339.675 55.6796C341.87 59.5318 345.498 62.4656 349.84 63.7607L349.362 65.7138C347.746 65.5691 346.431 66.0229 346.209 66.895C345.936 67.9695 347.425 69.2717 349.535 69.8038C351.645 70.3359 353.577 69.8963 353.85 68.8218C354.097 67.8491 352.898 66.6917 351.104 66.086L351.571 64.1807C352.634 64.3822 353.729 64.4917 354.851 64.4917C358.142 64.4917 361.219 63.5831 363.845 62.0056L364.735 63.3693C363.883 64.1218 363.483 65.0091 363.824 65.5417C364.244 66.1978 365.629 66.0671 366.917 65.2497C368.206 64.4323 368.91 63.2378 368.49 62.5817C368.11 61.9878 366.939 62.0407 365.764 62.6622L364.89 61.3219C367.315 59.6187 369.286 57.3187 370.581 54.6322L373.261 55.6437C372.918 57.2227 373.209 58.5778 374.051 58.9041C375.088 59.3061 376.569 57.9948 377.359 55.9752C378.148 53.9555 377.947 51.9925 376.91 51.5904ZM362.697 34.9529C363.887 34.9529 364.852 35.9136 364.852 37.0988C364.852 38.2839 363.887 39.2446 362.697 39.2446C361.507 39.2446 360.542 38.2838 360.542 37.0988C360.542 35.9137 361.507 34.9529 362.697 34.9529ZM343.888 49.5853C342.525 49.5853 341.42 48.485 341.42 47.1277C341.42 45.7704 342.525 44.6701 343.888 44.6701C345.252 44.6701 346.357 45.7704 346.357 47.1277C346.357 48.485 345.252 49.5853 343.888 49.5853ZM343.888 37.6431C343.888 35.9063 345.302 34.4984 347.047 34.4984C348.791 34.4984 350.205 35.9063 350.205 37.6431C350.205 39.3799 348.791 40.7878 347.047 40.7878C345.302 40.7878 343.888 39.3799 343.888 37.6431ZM350.965 60.8167C349.22 60.8167 347.806 59.4087 347.806 57.672C347.806 55.9352 349.22 54.5272 350.965 54.5272C352.709 54.5272 354.123 55.9352 354.123 57.672C354.123 59.4088 352.709 60.8167 350.965 60.8167ZM355.565 45.7031C354.201 45.7031 353.096 44.6028 353.096 43.2455C353.096 41.8882 354.201 40.7878 355.565 40.7878C356.928 40.7878 358.033 41.8881 358.033 43.2455C358.033 44.6028 356.928 45.7031 355.565 45.7031ZM361.495 59.506C360.304 59.506 359.34 58.5453 359.34 57.3601C359.34 56.175 360.304 55.2143 361.495 55.2143C362.685 55.2143 363.65 56.175 363.65 57.3601C363.65 58.5452 362.685 59.506 361.495 59.506ZM365.73 51.5181C363.564 51.5181 361.808 49.7697 361.808 47.613C361.808 45.4562 363.564 43.7079 365.73 43.7079C367.896 43.7079 369.652 45.4562 369.652 47.613C369.652 49.7697 367.896 51.5181 365.73 51.5181Z" fill="#0F1C24"/>
<path d="M35.7615 186.923C35.0103 186.632 33.9695 187.466 33.3103 188.825L31.2476 188.046C31.7763 186.58 32.066 185 32.066 183.353C32.066 180.844 31.3949 178.493 30.2268 176.462L31.3833 175.791C32.1966 176.798 33.1892 177.301 33.8168 176.944C34.5902 176.504 34.5171 174.927 33.6535 173.421C32.79 171.916 31.4631 171.052 30.6898 171.492C29.9897 171.89 29.9857 173.22 30.6315 174.585L29.4559 175.267C27.8954 173.101 25.7256 171.402 23.1947 170.415L23.5321 169.239C24.4356 169.356 25.1834 169.129 25.327 168.645C25.5039 168.048 24.697 167.285 23.5249 166.94C22.3527 166.596 21.259 166.801 21.0821 167.398C20.9219 167.938 21.5692 168.614 22.5628 168.992L22.2502 170.082C20.9434 169.679 19.5545 169.461 18.1145 169.461C16.6832 169.461 15.3025 169.677 14.0025 170.076L13.2722 168.079C14.4119 167.461 15.0844 166.577 14.8429 165.899C14.5455 165.063 12.9739 164.855 11.3326 165.434C9.69143 166.013 8.60205 167.16 8.89954 167.996C9.16884 168.753 10.4829 168.993 11.947 168.602L12.6641 170.562C10.1301 171.634 7.98171 173.431 6.47786 175.692L3.77496 174.532C4.13474 173.29 3.97675 172.193 3.32242 171.887C2.51644 171.51 1.26283 172.476 0.522328 174.045C-0.218078 175.614 -0.164924 177.192 0.640988 177.569C1.37064 177.911 2.46599 177.149 3.21652 175.838L5.74834 176.923C4.73776 178.846 4.16316 181.032 4.16316 183.353C4.16316 185.503 4.65436 187.539 5.53045 189.356L3.75105 190.155C3.27678 189.381 2.6318 188.941 2.1623 189.133C1.58396 189.369 1.49107 190.473 1.95483 191.599C2.41855 192.725 3.26322 193.447 3.84157 193.21C4.36509 192.997 4.48922 192.071 4.16426 191.062L5.97407 190.194C7.7297 193.276 10.6323 195.623 14.1061 196.659L13.7233 198.221C12.4306 198.106 11.3786 198.469 11.2011 199.166C10.9825 200.026 12.1736 201.068 13.8616 201.493C15.5495 201.919 17.0951 201.567 17.3137 200.708C17.5116 199.93 16.5525 199.004 15.1169 198.519L15.4904 196.995C16.3407 197.156 17.2171 197.244 18.1145 197.244C20.7472 197.244 23.2091 196.517 25.3101 195.255L26.0219 196.346C25.3404 196.948 25.0204 197.658 25.2931 198.084C25.6289 198.609 26.7368 198.504 27.7676 197.85C28.7983 197.196 29.3616 196.241 29.0257 195.716C28.7216 195.241 27.7849 195.283 26.8454 195.78L26.1459 194.708C28.0856 193.345 29.6628 191.505 30.6989 189.356L32.8422 190.165C32.5681 191.429 32.8007 192.513 33.4744 192.774C34.3043 193.095 35.4891 192.046 36.1206 190.431C36.7521 188.815 36.5914 187.244 35.7615 186.923ZM24.3914 173.613C25.3436 173.613 26.1155 174.381 26.1155 175.329C26.1155 176.277 25.3436 177.046 24.3914 177.046C23.4391 177.046 22.6673 176.277 22.6673 175.329C22.6673 174.381 23.4391 173.613 24.3914 173.613ZM9.34449 185.319C8.25395 185.319 7.36988 184.438 7.36988 183.353C7.36988 182.267 8.25395 181.386 9.34449 181.386C10.4351 181.386 11.3192 182.267 11.3192 183.353C11.3192 184.438 10.4351 185.319 9.34449 185.319ZM9.34449 175.765C9.34449 174.375 10.4757 173.249 11.8712 173.249C13.2666 173.249 14.3979 174.375 14.3979 175.765C14.3979 177.154 13.2666 178.281 11.8712 178.281C10.4757 178.281 9.34449 177.154 9.34449 175.765ZM15.0055 194.304C13.61 194.304 12.4788 193.177 12.4788 191.788C12.4788 190.399 13.61 189.272 15.0055 189.272C16.4009 189.272 17.5322 190.399 17.5322 191.788C17.5322 193.177 16.4009 194.304 15.0055 194.304ZM18.6855 182.213C17.5949 182.213 16.7108 181.333 16.7108 180.247C16.7108 179.161 17.5949 178.281 18.6855 178.281C19.776 178.281 20.6601 179.161 20.6601 180.247C20.6601 181.333 19.776 182.213 18.6855 182.213ZM23.4295 193.255C22.4773 193.255 21.7054 192.487 21.7054 191.538C21.7054 190.59 22.4773 189.822 23.4295 189.822C24.3817 189.822 25.1536 190.59 25.1536 191.538C25.1536 192.487 24.3817 193.255 23.4295 193.255ZM26.8177 186.865C25.0848 186.865 23.68 185.466 23.68 183.741C23.68 182.015 25.0848 180.617 26.8177 180.617C28.5506 180.617 29.9553 182.015 29.9553 183.741C29.9553 185.466 28.5505 186.865 26.8177 186.865Z" fill="#0F1C24"/>
</svg>
