<svg width="200" height="201" viewBox="0 0 200 201" fill="none" xmlns="http://www.w3.org/2000/svg">
<path d="M195.92 119.922C191.804 118.33 186.102 122.892 182.49 130.325L171.19 126.066C174.086 118.046 175.674 109.407 175.674 100.396C175.674 86.6774 171.997 73.8198 165.598 62.7107L171.933 59.0407C176.389 64.5489 181.827 67.2959 185.266 65.3436C189.503 62.9387 189.102 54.3141 184.371 46.0798C179.64 37.846 172.371 33.1207 168.134 35.5254C164.299 37.7027 164.277 44.9779 167.815 52.4458L161.374 56.1765C152.825 44.3281 140.938 35.0329 127.072 29.6396L128.92 23.2063C133.87 23.8425 137.967 22.6063 138.754 19.9563C139.723 16.6916 135.303 12.518 128.881 10.6342C122.459 8.75052 116.468 9.86997 115.498 13.1345C114.621 16.09 118.167 19.7847 123.61 21.8567L121.898 27.8169C114.738 25.6111 107.129 24.4214 99.2406 24.4214C91.3988 24.4214 83.8348 25.5998 76.7128 27.7803L72.7117 16.8623C78.9555 13.4803 82.6401 8.64815 81.3171 4.93761C79.6874 0.366702 71.0777 -0.771116 62.0858 2.39634C53.0945 5.56361 47.1264 11.8367 48.7561 16.4076C50.2315 20.5458 57.4305 21.8576 65.4519 19.7212L69.3801 30.4409C55.4978 36.3034 43.7278 46.1349 35.489 58.4959L20.6811 52.1539C22.6522 45.3627 21.7867 39.361 18.2019 37.6872C13.7863 35.6249 6.91844 40.9103 2.86158 49.4927C-1.19474 58.0747 -0.903538 66.7036 3.51165 68.7659C7.50907 70.6328 13.5099 66.467 17.6217 59.2954L31.4923 65.2314C25.9558 75.7483 22.8079 87.7039 22.8079 100.396C22.8079 112.158 25.4989 123.294 30.2986 133.233L20.5501 137.602C17.9518 133.366 14.4183 130.964 11.8462 132.012C8.67771 133.304 8.16884 139.342 10.7095 145.5C13.25 151.658 17.8776 155.603 21.046 154.312C23.9141 153.142 24.5942 148.081 22.8139 142.564L32.729 137.814C42.3472 154.669 58.2489 167.506 77.2806 173.173L75.1833 181.718C68.101 181.085 62.3375 183.07 61.3653 186.887C60.1674 191.588 66.6929 197.286 75.9407 199.614C85.1878 201.942 93.6554 200.018 94.8532 195.317C95.9375 191.061 90.6827 185.997 82.8179 183.347L84.8644 175.01C89.5225 175.892 94.324 176.371 99.2404 176.371C113.664 176.371 127.151 172.395 138.662 165.493L142.561 171.46C138.827 174.752 137.074 178.635 138.568 180.965C140.408 183.836 146.478 183.264 152.125 179.688C157.772 176.111 160.858 170.885 159.018 168.014C157.351 165.415 152.22 165.647 147.073 168.366L143.24 162.502C153.867 155.049 162.508 144.986 168.184 133.231L179.926 137.657C178.424 144.566 179.699 150.495 183.39 151.923C187.936 153.682 194.427 147.944 197.887 139.108C201.347 130.271 200.466 121.682 195.92 119.922ZM133.628 47.1263C138.845 47.1263 143.074 51.3298 143.074 56.5152C143.074 61.7007 138.845 65.9041 133.628 65.9041C128.411 65.9041 124.183 61.7005 124.183 56.5152C124.183 51.3299 128.411 47.1263 133.628 47.1263ZM51.1938 111.149C45.2193 111.149 40.3759 106.335 40.3759 100.396C40.3759 94.4572 45.2193 89.643 51.1938 89.643C57.1686 89.643 62.0121 94.4574 62.0121 100.396C62.0121 106.335 57.1686 111.149 51.1938 111.149ZM51.1938 58.897C51.1938 51.2979 57.3913 45.1376 65.0363 45.1376C72.6814 45.1376 78.8789 51.2979 78.8789 58.897C78.8789 66.4961 72.6814 72.6565 65.0363 72.6565C57.3913 72.6565 51.1938 66.4961 51.1938 58.897ZM82.2076 160.291C74.5626 160.291 68.3651 154.131 68.3651 146.532C68.3651 138.933 74.5625 132.772 82.2076 132.772C89.8523 132.772 96.05 138.932 96.05 146.532C96.05 154.131 89.8523 160.291 82.2076 160.291ZM102.368 94.1628C96.3937 94.1628 91.5503 89.3485 91.5503 83.4098C91.5503 77.471 96.3937 72.6565 102.368 72.6565C108.343 72.6565 113.186 77.4708 113.186 83.4098C113.186 89.3487 108.343 94.1628 102.368 94.1628ZM128.358 154.556C123.142 154.556 118.913 150.353 118.913 145.167C118.913 139.982 123.142 135.778 128.358 135.778C133.575 135.778 137.804 139.982 137.804 145.167C137.804 150.353 133.575 154.556 128.358 154.556ZM146.921 119.606C137.427 119.606 129.731 111.956 129.731 102.519C129.731 93.0827 137.427 85.4328 146.921 85.4328C156.414 85.4328 164.11 93.0827 164.11 102.519C164.11 111.956 156.414 119.606 146.921 119.606Z" fill="#0F1C24"/>
</svg>
