<svg width="201" height="200" viewBox="0 0 201 200" fill="none" xmlns="http://www.w3.org/2000/svg">
<path d="M174.011 169.294C171.243 165.857 164.024 166.957 157.18 171.588L149.523 162.249C156.042 156.752 161.736 150.064 166.241 142.261C173.101 130.38 176.345 117.407 176.358 104.586L183.68 104.576C184.785 111.574 188.12 116.672 192.074 116.7C196.946 116.736 200.911 109.067 200.931 99.5699C200.951 90.0737 197.018 82.3468 192.147 82.3111C187.737 82.2791 184.08 88.5686 183.41 96.805L175.967 96.8157C174.487 82.2799 168.84 68.2863 159.529 56.6828L164.347 52.0357C168.315 55.0616 172.481 56.0394 174.487 54.1378C176.959 51.7951 175.218 45.9704 170.599 41.1282C165.979 36.286 160.23 34.2597 157.758 36.6021C155.521 38.7229 156.745 43.6958 160.423 48.2119L155.96 52.5173C150.862 47.0272 144.867 42.1925 138.035 38.248C131.244 34.3272 124.104 31.5656 116.846 29.8931L118.84 18.4373C125.939 18.6303 131.546 16.2878 132.255 12.4128C133.129 7.63944 126.242 2.34925 116.871 0.596397C107.501 -1.15634 99.1955 1.29225 98.3215 6.06565C97.5301 10.3871 103.109 15.1227 111.124 17.2832L109.166 28.5308C94.2121 26.6668 79.1032 29.296 65.7876 35.8816L56.1347 22.9854C61.2373 18.0895 63.4885 12.4592 61.221 9.21723C58.4282 5.22339 49.8377 6.36678 42.0331 11.7709C34.2293 17.175 30.167 24.7934 32.9595 28.7871C35.4879 32.4026 42.7677 31.7953 49.9144 27.6404L58.9587 39.7164C48.9055 46.0561 40.2015 54.836 33.8553 65.8279C27.9746 76.0136 24.737 87.0033 23.9242 98.0105L13.2971 96.9203C13.1649 91.9527 11.3061 88.1051 8.5543 87.7271C5.16462 87.2613 1.70457 92.2365 0.825863 98.8399C-0.0529098 105.443 1.98221 111.173 5.3719 111.639C8.44029 112.06 11.5601 108.017 12.7767 102.349L23.7382 103.193C23.6403 122.599 30.9932 141.667 44.6419 156.09L38.5529 162.442C32.736 158.353 26.7519 157.191 24.0019 160.009C20.6139 163.482 23.4162 171.679 30.2609 178.319C37.1051 184.959 45.4001 187.527 48.7879 184.054C51.855 180.911 49.8364 173.897 44.3503 167.67L50.291 161.474C53.8842 164.566 57.8027 167.382 62.0604 169.84C74.5514 177.052 88.2196 180.352 101.639 180.13L102.033 187.247C97.1532 188.232 93.6937 190.718 93.8223 193.483C93.9804 196.889 99.5227 199.428 106.201 199.155C112.88 198.881 118.166 195.897 118.008 192.491C117.864 189.408 113.304 187.043 107.487 186.824L107.1 179.829C120.03 178.688 132.544 174.294 143.337 166.952L151.293 176.656C146.538 181.888 144.677 187.66 147.16 190.742C150.218 194.539 158.708 192.815 166.123 186.892C173.537 180.969 177.069 173.09 174.011 169.294Z" fill="#0F1C24"/>
</svg>
