<svg width="293" height="250" viewBox="0 0 293 250" fill="none" xmlns="http://www.w3.org/2000/svg">
<path d="M291.17 212.213C289.867 212.718 288.061 211.273 286.917 208.919L283.339 210.268C284.256 212.807 284.758 215.543 284.758 218.397C284.758 222.741 283.594 226.813 281.567 230.331L283.574 231.494C284.985 229.749 286.707 228.879 287.796 229.498C289.138 230.259 289.011 232.99 287.513 235.598C286.014 238.206 283.712 239.702 282.371 238.941C281.156 238.251 281.149 235.947 282.27 233.582L280.23 232.401C277.523 236.153 273.758 239.096 269.367 240.804L269.952 242.842C271.52 242.64 272.817 243.032 273.066 243.871C273.373 244.905 271.974 246.227 269.94 246.823C267.906 247.42 266.009 247.065 265.702 246.031C265.424 245.095 266.547 243.925 268.271 243.269L267.728 241.382C265.461 242.08 263.052 242.457 260.553 242.457C258.07 242.457 255.674 242.084 253.419 241.393L252.152 244.851C254.129 245.922 255.296 247.452 254.877 248.627C254.361 250.075 251.634 250.435 248.787 249.432C245.939 248.429 244.049 246.442 244.566 244.995C245.033 243.684 247.313 243.269 249.853 243.945L251.097 240.551C246.701 238.694 242.973 235.581 240.364 231.666L235.675 233.675C236.299 235.825 236.025 237.726 234.89 238.256C233.491 238.909 231.316 237.235 230.031 234.517C228.747 231.8 228.839 229.067 230.237 228.414C231.503 227.823 233.404 229.142 234.706 231.413L239.098 229.533C237.345 226.203 236.348 222.416 236.348 218.397C236.348 214.672 237.2 211.146 238.72 207.998L235.633 206.614C234.81 207.956 233.691 208.717 232.877 208.385C231.873 207.976 231.712 206.063 232.517 204.113C233.321 202.163 234.787 200.914 235.79 201.323C236.698 201.693 236.914 203.296 236.35 205.043L239.49 206.547C242.536 201.209 247.572 197.144 253.599 195.35L252.935 192.644C250.692 192.844 248.867 192.215 248.559 191.007C248.179 189.518 250.246 187.713 253.175 186.976C256.103 186.239 258.784 186.848 259.164 188.337C259.507 189.685 257.843 191.289 255.352 192.128L256.001 194.768C257.476 194.489 258.996 194.337 260.553 194.337C265.121 194.337 269.392 195.596 273.037 197.782L274.272 195.892C273.09 194.849 272.535 193.62 273.008 192.882C273.59 191.973 275.512 192.154 277.301 193.287C279.089 194.419 280.066 196.074 279.484 196.983C278.956 197.806 277.331 197.733 275.701 196.872L274.487 198.729C277.853 201.089 280.589 204.276 282.386 207.999L286.105 206.597C285.63 204.409 286.033 202.531 287.202 202.079C288.642 201.522 290.697 203.339 291.793 206.138C292.889 208.936 292.61 211.656 291.17 212.213ZM271.443 235.267C273.095 235.267 274.434 233.936 274.434 232.293C274.434 230.651 273.095 229.32 271.443 229.32C269.791 229.32 268.452 230.651 268.452 232.293C268.452 233.935 269.791 235.267 271.443 235.267ZM245.338 214.992C243.446 214.992 241.912 216.516 241.912 218.397C241.912 220.278 243.446 221.802 245.338 221.802C247.23 221.802 248.764 220.278 248.764 218.397C248.764 216.516 247.23 214.992 245.338 214.992ZM245.338 231.539C245.338 233.946 247.3 235.896 249.721 235.896C252.142 235.896 254.105 233.946 254.105 231.539C254.105 229.133 252.142 227.182 249.721 227.182C247.3 227.182 245.338 229.133 245.338 231.539ZM255.159 199.429C252.738 199.429 250.775 201.38 250.775 203.786C250.775 206.193 252.738 208.144 255.159 208.144C257.58 208.144 259.543 206.193 259.543 203.786C259.543 201.38 257.58 199.429 255.159 199.429ZM261.544 220.371C259.652 220.371 258.118 221.896 258.118 223.776C258.118 225.657 259.652 227.182 261.544 227.182C263.436 227.182 264.97 225.657 264.97 223.776C264.97 221.896 263.436 220.371 261.544 220.371ZM269.774 201.245C268.122 201.245 266.783 202.576 266.783 204.219C266.783 205.861 268.122 207.192 269.774 207.192C271.426 207.192 272.766 205.861 272.766 204.219C272.766 202.576 271.426 201.245 269.774 201.245ZM275.653 212.313C272.646 212.313 270.209 214.736 270.209 217.725C270.209 220.713 272.646 223.136 275.653 223.136C278.659 223.136 281.096 220.713 281.096 217.725C281.096 214.736 278.659 212.313 275.653 212.313Z" fill="#0F1C24"/>
<path d="M222.017 51.1003C219.41 52.1088 215.799 49.2195 213.511 44.5116L206.354 47.2093C208.189 52.2887 209.194 57.7607 209.194 63.4677C209.194 72.1567 206.865 80.3003 202.812 87.3365L206.825 89.6609C209.647 86.1722 213.091 84.4323 215.269 85.6689C217.953 87.1921 217.699 92.6546 214.702 97.87C211.706 103.085 207.102 106.078 204.418 104.555C201.989 103.176 201.975 98.5679 204.216 93.838L200.137 91.475C194.722 98.9794 187.193 104.867 178.411 108.283L179.582 112.357C182.717 111.954 185.312 112.737 185.81 114.416C186.424 116.484 183.624 119.127 179.557 120.32C175.489 121.513 171.695 120.804 171.081 118.737C170.525 116.865 172.771 114.524 176.219 113.212L175.134 109.437C170.599 110.834 165.78 111.588 160.783 111.588C155.817 111.588 151.026 110.841 146.515 109.46L143.981 116.375C147.936 118.517 150.269 121.578 149.431 123.928C148.399 126.823 142.946 127.544 137.251 125.538C131.556 123.532 127.776 119.559 128.808 116.663C129.743 114.042 134.302 113.212 139.383 114.565L141.871 107.775C133.078 104.062 125.623 97.8351 120.405 90.006L111.026 94.0228C112.275 98.3242 111.726 102.125 109.456 103.186C106.659 104.492 102.309 101.144 99.7399 95.7084C97.1708 90.2728 97.3552 84.8075 100.152 83.5013C102.684 82.3188 106.484 84.9573 109.089 89.4996L117.874 85.7399C114.367 79.0788 112.373 71.5065 112.373 63.4676C112.373 56.0182 114.078 48.9649 117.118 42.6699L110.943 39.9024C109.298 42.5854 107.06 44.1072 105.43 43.4431C103.424 42.6251 103.101 38.8004 104.711 34.9001C106.32 30.9999 109.251 28.5013 111.257 29.3193C113.074 30.0598 113.505 33.2656 112.377 36.7599L118.657 39.7681C124.749 29.0927 134.821 20.9623 146.875 17.3733L145.546 11.9608C141.061 12.3618 137.41 11.1043 136.794 8.68724C136.036 5.70972 140.169 2.10079 146.026 0.626189C151.883 -0.84829 157.246 0.37007 158.005 3.34759C158.691 6.04321 155.363 9.25083 150.382 10.9293L151.678 16.2095C154.628 15.6511 157.669 15.3474 160.783 15.3474C169.919 15.3474 178.461 17.8656 185.751 22.2372L188.221 18.458C185.857 16.3727 184.746 13.9136 185.692 12.4376C186.858 10.6195 190.702 10.9818 194.279 13.2469C197.855 15.5121 199.81 18.8224 198.644 20.6405C197.589 22.2865 194.339 22.1398 191.079 20.4175L188.652 24.1318C195.382 28.852 200.855 35.2256 204.45 42.6708L211.887 39.8677C210.936 35.4919 211.743 31.7365 214.081 30.8322C216.961 29.7181 221.072 33.352 223.263 38.9489C225.454 44.546 224.896 49.9861 222.017 51.1003ZM182.564 97.2071C185.868 97.2071 188.546 94.5448 188.546 91.2605C188.546 87.9762 185.868 85.3139 182.564 85.3139C179.259 85.3139 176.581 87.9763 176.581 91.2605C176.581 94.5447 179.259 97.2071 182.564 97.2071ZM130.352 56.6569C126.568 56.6569 123.5 59.7062 123.5 63.4677C123.5 67.2292 126.568 70.2784 130.352 70.2784C134.136 70.2784 137.204 67.2291 137.204 63.4677C137.204 59.7063 134.136 56.6569 130.352 56.6569ZM130.352 89.7519C130.352 94.565 134.277 98.4667 139.119 98.4667C143.962 98.4667 147.887 94.565 147.887 89.7519C147.887 84.9389 143.962 81.0371 139.119 81.0371C134.277 81.0371 130.352 84.9389 130.352 89.7519ZM149.995 25.532C145.153 25.532 141.228 29.4338 141.228 34.2468C141.228 39.0598 145.153 42.9616 149.995 42.9616C154.837 42.9616 158.763 39.0599 158.763 34.2468C158.763 29.4336 154.837 25.532 149.995 25.532ZM162.765 67.4156C158.98 67.4156 155.913 70.4649 155.913 74.2263C155.913 77.9877 158.98 81.0371 162.765 81.0371C166.549 81.0371 169.616 77.9878 169.616 74.2263C169.616 70.4648 166.549 67.4156 162.765 67.4156ZM179.226 29.1643C175.922 29.1643 173.243 31.8266 173.243 35.1109C173.243 38.3952 175.922 41.0576 179.226 41.0576C182.53 41.0576 185.208 38.3951 185.208 35.1109C185.208 31.8268 182.53 29.1643 179.226 29.1643ZM190.983 51.3007C184.969 51.3007 180.095 56.1459 180.095 62.1229C180.095 68.0998 184.969 72.945 190.983 72.945C196.996 72.945 201.87 68.0998 201.87 62.1229C201.87 56.1459 196.995 51.3007 190.983 51.3007Z" fill="#0F1C24"/>
<path d="M38.0677 161.729C37.2856 162.032 36.2022 161.165 35.516 159.753L33.3688 160.562C33.9191 162.086 34.2207 163.727 34.2207 165.439C34.2207 168.046 33.5222 170.489 32.3062 172.6L33.51 173.297C34.3567 172.251 35.3899 171.729 36.0433 172.1C36.8484 172.557 36.7722 174.195 35.8733 175.76C34.9744 177.325 33.5931 178.222 32.7881 177.765C32.0594 177.352 32.0552 175.969 32.7275 174.55L31.5037 173.842C29.8792 176.093 27.6205 177.859 24.9859 178.884L25.3371 180.106C26.2776 179.985 27.0561 180.22 27.2055 180.724C27.3897 181.344 26.5498 182.137 25.3296 182.495C24.1094 182.853 22.9709 182.64 22.7867 182.02C22.62 181.458 23.2938 180.756 24.3281 180.363L24.0028 179.23C22.6424 179.649 21.1966 179.875 19.6976 179.875C18.2076 179.875 16.7703 179.651 15.4171 179.237L14.6568 181.312C15.8432 181.954 16.5433 182.872 16.292 183.577C15.9823 184.446 14.3464 184.662 12.6378 184.06C10.9294 183.459 9.79534 182.267 10.105 181.398C10.3854 180.612 11.7532 180.362 13.2774 180.768L14.0238 178.732C11.386 177.618 9.14958 175.75 7.58411 173.401L4.77046 174.606C5.14498 175.896 4.98052 177.037 4.29938 177.355C3.46037 177.747 2.1554 176.742 1.38455 175.112C0.613807 173.481 0.669138 171.841 1.50807 171.449C2.26763 171.095 3.40786 171.886 4.18913 173.249L6.8247 172.121C5.77271 170.123 5.17456 167.851 5.17456 165.439C5.17456 163.204 5.68589 161.088 6.59788 159.2L4.74557 158.37C4.25187 159.175 3.58045 159.631 3.09172 159.432C2.48968 159.187 2.39299 158.039 2.87575 156.869C3.35847 155.699 4.23776 154.949 4.83979 155.195C5.38476 155.417 5.51399 156.379 5.17571 157.427L7.05968 158.329C8.88724 155.127 11.9087 152.688 15.525 151.611L15.1265 149.987C13.7807 150.108 12.6856 149.73 12.5009 149.005C12.2733 148.112 13.5132 147.029 15.2704 146.587C17.0274 146.145 18.6364 146.51 18.8639 147.403C19.07 148.212 18.0715 149.174 16.5771 149.678L16.966 151.262C17.8511 151.094 18.7634 151.003 19.6976 151.003C22.4382 151.003 25.0009 151.759 27.188 153.07L27.9289 151.936C27.2195 151.311 26.8864 150.573 27.1703 150.13C27.5199 149.585 28.6732 149.694 29.7462 150.373C30.8192 151.053 31.4055 152.046 31.0559 152.591C30.7393 153.085 29.7642 153.041 28.7862 152.524L28.0581 153.639C30.0773 155.055 31.719 156.967 32.7976 159.2L35.0288 158.359C34.7434 157.047 34.9855 155.92 35.6869 155.649C36.5508 155.314 37.784 156.405 38.4415 158.084C39.0989 159.763 38.9315 161.395 38.0677 161.729ZM26.2317 175.561C27.2229 175.561 28.0264 174.762 28.0264 173.777C28.0264 172.792 27.2229 171.993 26.2317 171.993C25.2404 171.993 24.4369 172.792 24.4369 173.777C24.4369 174.762 25.2404 175.561 26.2317 175.561ZM10.5682 163.396C9.43298 163.396 8.51268 164.311 8.51268 165.439C8.51268 166.568 9.43298 167.483 10.5682 167.483C11.7035 167.483 12.6238 166.568 12.6238 165.439C12.6238 164.311 11.7035 163.396 10.5682 163.396ZM10.5682 173.325C10.5682 174.768 11.7458 175.939 13.1984 175.939C14.6511 175.939 15.8287 174.768 15.8287 173.325C15.8287 171.881 14.6511 170.71 13.1984 170.71C11.7458 170.71 10.5682 171.881 10.5682 173.325ZM16.4611 154.059C15.0085 154.059 13.8309 155.229 13.8309 156.673C13.8309 158.117 15.0085 159.287 16.4611 159.287C17.9137 159.287 19.0914 158.117 19.0914 156.673C19.0914 155.229 17.9137 154.059 16.4611 154.059ZM20.2919 166.624C19.1567 166.624 18.2364 167.538 18.2364 168.667C18.2364 169.795 19.1567 170.71 20.2919 170.71C21.4272 170.71 22.3475 169.795 22.3475 168.667C22.3475 167.538 21.4272 166.624 20.2919 166.624ZM25.2303 155.148C24.2391 155.148 23.4356 155.947 23.4356 156.932C23.4356 157.918 24.2391 158.716 25.2303 158.716C26.2216 158.716 27.0251 157.918 27.0251 156.932C27.0251 155.947 26.2216 155.148 25.2303 155.148ZM28.7574 161.789C26.9534 161.789 25.4911 163.243 25.4911 165.036C25.4911 166.829 26.9534 168.283 28.7574 168.283C30.5612 168.283 32.0236 166.829 32.0236 165.036C32.0236 163.243 30.5612 161.789 28.7574 161.789Z" fill="#0F1C24"/>
</svg>
