<svg width="50" height="50" viewBox="0 0 50 50" fill="none" xmlns="http://www.w3.org/2000/svg">
<path fill-rule="evenodd" clip-rule="evenodd" d="M39.0791 43.0737C40.7875 41.9109 42.5894 41.6348 43.2804 42.4977C44.0437 43.4509 43.1621 45.4291 41.3113 46.9162C39.4604 48.4033 37.3413 48.836 36.578 47.8828C35.9583 47.109 36.4228 45.6598 37.6097 44.3461L35.6237 41.9097C32.9296 43.7531 29.8059 44.8564 26.5785 45.1428L26.675 46.899C28.1271 46.9539 29.2653 47.5478 29.3011 48.322C29.3406 49.1771 28.0212 49.9262 26.3542 49.9949C24.6871 50.0636 23.3036 49.4261 23.2642 48.5709C23.2321 47.8767 24.0956 47.2526 25.3136 47.0054L25.2154 45.2184C21.8657 45.2742 18.4539 44.4456 15.336 42.6349C14.2732 42.0177 13.2951 41.3107 12.3982 40.5342L10.9153 42.09C12.2847 43.6536 12.7886 45.4144 12.023 46.2037C11.1774 47.0755 9.10682 46.4308 7.39842 44.7637C5.68988 43.0966 4.99041 41.0384 5.83609 40.1666C6.52253 39.4589 8.01622 39.7507 9.46819 40.7775L10.9881 39.1827C7.58121 35.5614 5.74583 30.774 5.77025 25.9017L3.03413 25.6897C2.73044 27.1127 1.9517 28.1279 1.18579 28.0221C0.339677 27.9051 -0.168316 26.4665 0.0510366 24.8086C0.270372 23.1507 1.13405 21.9015 1.98016 22.0185C2.66705 22.1134 3.13102 23.0794 3.16402 24.3267L5.81669 24.6004C6.01958 21.8368 6.82772 19.0775 8.29562 16.5202C9.87971 13.7604 12.0524 11.556 14.5618 9.96428L12.3042 6.93231C10.5203 7.97551 8.70314 8.12797 8.07201 7.22022C7.37497 6.21752 8.38897 4.30473 10.3369 2.94791C12.285 1.59109 14.4293 1.30401 15.1265 2.30676C15.6925 3.12072 15.1305 4.53435 13.8568 5.76357L16.2664 9.00148C19.5901 7.34801 23.3615 6.68787 27.0941 7.15588L27.5828 4.33191C25.5822 3.78946 24.1897 2.60049 24.3872 1.51548C24.6054 0.317007 26.6785 -0.297767 29.0174 0.142298C31.3566 0.582393 33.0757 1.91062 32.8575 3.10909C32.6804 4.08198 31.2808 4.67012 29.509 4.62166L29.0113 7.4979C30.823 7.91784 32.6052 8.61119 34.3004 9.59562C36.0057 10.586 37.5021 11.7998 38.7745 13.1782L39.8885 12.0973C38.9704 10.9634 38.6649 9.71484 39.2235 9.18237C39.8405 8.59424 41.2754 9.10299 42.4285 10.3187C43.5816 11.5345 44.0163 12.9969 43.3993 13.5851C42.8985 14.0625 41.8586 13.817 40.868 13.0573L39.6654 14.2241C41.9897 17.1374 43.3993 20.6508 43.7687 24.3004L45.6265 24.2977C45.7937 22.2298 46.7065 20.6506 47.8073 20.6587C49.0232 20.6676 50.0049 22.6077 50 24.9919C49.995 27.3763 49.0052 29.3018 47.7892 29.2929C46.8022 29.2857 45.9696 28.0058 45.6938 26.2487L43.8661 26.2513C43.863 29.4702 43.0531 32.7275 41.3409 35.7104C40.2163 37.6696 38.7949 39.3489 37.1679 40.729L39.0791 43.0737ZM18.4089 17.042V34.8917H24.247C25.7827 34.8836 27.1722 34.5158 28.4154 33.7884C29.6667 33.0528 30.6336 32.0394 31.3161 30.748C32.0068 29.4485 32.3521 27.9815 32.3521 26.3469V25.5255C32.344 23.9073 31.9865 22.4484 31.2796 21.1489C30.5808 19.8412 29.6057 18.8319 28.3544 18.1208C27.1031 17.4016 25.6933 17.042 24.1251 17.042H18.4089ZM22.6869 20.3643V31.5817H24.1739C25.4008 31.5817 26.3434 31.1444 27.0015 30.2699C27.6597 29.3872 27.9888 28.0796 27.9888 26.3469V25.5746C27.9888 23.8501 27.6597 22.5506 27.0015 21.6761C26.3434 20.8016 25.3846 20.3643 24.1251 20.3643H22.6869Z" fill="#0F1C24"/>
</svg>
