<svg width="50" height="50" viewBox="0 0 50 50" fill="none" xmlns="http://www.w3.org/2000/svg">
<path fill-rule="evenodd" clip-rule="evenodd" d="M43.2804 42.4977C42.5894 41.6348 40.7875 41.9109 39.0791 43.0737L37.1679 40.729C38.7949 39.3489 40.2163 37.6696 41.3409 35.7104C43.0531 32.7275 43.863 29.4702 43.8661 26.2513L45.6938 26.2487C45.9696 28.0058 46.8022 29.2857 47.7892 29.2929C49.0052 29.3018 49.995 27.3763 50 24.9919C50.0049 22.6077 49.0232 20.6676 47.8073 20.6587C46.7065 20.6506 45.7937 22.2298 45.6265 24.2977L43.7687 24.3004C43.3993 20.6508 41.9897 17.1374 39.6654 14.2241L40.868 13.0573C41.8586 13.817 42.8985 14.0625 43.3993 13.5851C44.0163 12.9969 43.5816 11.5345 42.4285 10.3187C41.2754 9.10299 39.8405 8.59424 39.2235 9.18237C38.6649 9.71484 38.9704 10.9634 39.8885 12.0973L38.7745 13.1782C37.5021 11.7998 36.0057 10.586 34.3004 9.59562C32.6052 8.61119 30.823 7.91784 29.0113 7.4979L29.509 4.62166C31.2808 4.67012 32.6804 4.08198 32.8575 3.10909C33.0757 1.91062 31.3566 0.582393 29.0174 0.142298C26.6785 -0.297767 24.6054 0.317007 24.3872 1.51548C24.1897 2.60049 25.5822 3.78946 27.5828 4.33191L27.0941 7.15588C23.3615 6.68787 19.5901 7.34801 16.2664 9.00148L13.8568 5.76357C15.1305 4.53435 15.6925 3.12072 15.1265 2.30676C14.4293 1.30401 12.285 1.59109 10.3369 2.94791C8.38897 4.30473 7.37497 6.21752 8.07201 7.22022C8.70314 8.12797 10.5203 7.97551 12.3042 6.93231L14.5618 9.96428C12.0524 11.556 9.87971 13.7604 8.29562 16.5202C6.82772 19.0775 6.01958 21.8368 5.81669 24.6004L3.16402 24.3267C3.13102 23.0794 2.66705 22.1134 1.98016 22.0185C1.13405 21.9015 0.270372 23.1507 0.0510366 24.8086C-0.168316 26.4665 0.339677 27.9051 1.18579 28.0221C1.9517 28.1279 2.73044 27.1127 3.03413 25.6897L5.77025 25.9017C5.74583 30.774 7.58121 35.5614 10.9881 39.1827L9.46819 40.7775C8.01622 39.7507 6.52253 39.4589 5.83609 40.1666C4.99041 41.0384 5.68988 43.0966 7.39842 44.7637C9.10682 46.4308 11.1774 47.0755 12.023 46.2037C12.7886 45.4144 12.2847 43.6536 10.9153 42.09L12.3982 40.5342C13.2951 41.3107 14.2732 42.0177 15.336 42.6349C18.4539 44.4456 21.8657 45.2742 25.2154 45.2184L25.3136 47.0054C24.0956 47.2526 23.2321 47.8767 23.2642 48.5709C23.3036 49.4261 24.6871 50.0636 26.3542 49.9949C28.0212 49.9262 29.3406 49.1771 29.3011 48.322C29.2653 47.5478 28.1271 46.9539 26.675 46.899L26.5785 45.1428C29.8059 44.8564 32.9296 43.7531 35.6237 41.9097L37.6097 44.3461C36.4228 45.6598 35.9583 47.109 36.578 47.8828C37.3413 48.836 39.4604 48.4033 41.3113 46.9162C43.1621 45.4291 44.0437 43.4509 43.2804 42.4977ZM27.0137 20.3643H32.34V17.042H17.507V20.3643H22.7357V34.8917H27.0137V20.3643Z" fill="#0F1C24"/>
</svg>
