<svg xmlns="http://www.w3.org/2000/svg" width="314" height="80" fill="none">
  <path d="M9.2 80H314l-.3-.8-.2-.5-.4-.2-.4-.4-.2-.1-.6-.4-1.5-1h-.3l-.2-.2-.2-.5-.1-.3-1-.3-.2-.4h-.3l-.4-.7h-.4l-.5-.2-.3-.5-.2-.2v-.7l-.2-.2h-.2l-.5.3-.4-.6-1.5-.3-.3-.4-.1-.3v-.3h.5v-.2l.1-.4V70l.2-.5-.3-.5-.2-.1-.2.4-.2.1-.2-.3V69l-.1-.3v-.5l-.1-.6-.2-.2h-.2l-.2-.3-.4-.7-1-1.6-.1-.2-.7.2-.6.5-.1.4h-.2l-.3-.3h-1.2V65l1-.6 1.1-.8V63l-.6-1-.1-.3v-.3l-.2-.2-.2-.4-.4-.7-.2-.3h-.1l-.6-1.3-.4-.3V57.6l.2-.2v-1.7l-.4-.3V55h.2l.2-.1.1-.2v-.3l-.2-.2v-1.1H295v-.4l.2-.3 1.2-1 .2-.3.2-.2v-.4l-.2-.2h-.2l-.2-.2v-.3l.3-.3V49h-.2V48.7h.2l.3-.7v-.6l-.1-.5.3-.7.3-.3.3.2.2.2h.1l.1-.2v-.3l-.1-.2-.3-1V44l.2-.1.2.7.6 1 .2-.3.6-.4.3-.2.4-.4.3-.1 1.3-.2.1.3.3.3h.4v-.8h-.2l-.3-.1-.2-.2-.5-.6-.1-.7v-.4h-.1l-.2.3-.2.4-.3.4-.3-.3-.3-.1.1-.3.3-.5V41H299.9v-.4l-.3-.3-.1-.5V39l-.2-.5-.1-.6-.2-.3h-.2l-.2-.1-.2-.2v-.4l.2-.1.1-.4v-2h-.2v-.2l.1-.4.1-.3V32.9l-.1-.1-.2-.3-.1-.2v-.6l-.3-.2h-.8l-.1-.3.7-.4.2.1h.4l.1-.2v-1.2l.2-.3.2-.3.2-.2v-.5l.2-.2.1.1.2.5h.2l.2-.1h.2l.2.1H300.7l.3.1v-.5l-.3-.6-.2-.7.1-.1v-.6l-.1-.8v-.5l.2-.1h.1l.1.6v.7l.1.3.2-.1h.2l.1-.1.2-.3-.1-.3-.1-.1.2-.2h.8l.2-.3h.2l.2-.1v-.2l-.4-.2-.4-.2-.3-.7v-.2l.4.3.2.4H303.5l.2-.3.3.1.3.4.4-.5.2-.5.1-.3v-.2l-.5-.3-.4-.2-.2-.2-.2-.3H304l.3.3h.3l.3.1.3.2h.1v-.6h-.2V21l.2-.5h.2l.2.1.2-.3V20l-.2-.4-.2-.6-.1.1v.4l-.1.1-.2-.1-.3-.2-.7-.7-.4-.2h-.2l-.2-.3V18l-.1-.2-.2-.2v-.1l-.3-.1-.6-.3-.4-.1h-.2l-.6-.2h-.4l-.3-.1-.4.3H299.2l-.2-.3-.4-.6-.4.1-.1.3v.5l.2 1v.1l-.3-.4h-.3l-.2-.2-.3-1.3-.2-.4-.2-.3-.3-.2-.1-.4v-.2l-.2-.3-.1-.3-.4-.1-.6-.4h-.2l-.3-.3H294.3l-.3.3-.3-.4h-.5l-.5-.2-.4-.1-.3-.4h-.2v-.2l-.3-.4-.4-.5-.1-.2h-.2v.7l-.1.2-.2.1-.1.2h-.3l-.2-.2h-.5l-.6-.1-.1.1-.2.2V12l-.1-.3v-.6h-.4l-.3.1h-1.3l-.4.1-.7-.2h-.5l-.2-.3v-.7l-.5-.5-.3-.3h-.7l-.2.2-.5.2-.1.3-.2-.1v-.2l.1-.3.1-.4.2-.5.1-.3V8H282v-.3l-.1-.1h-.3l-.2.2h-.3l-.2.1-.3-.1-.1-.2-.2-.2h-1l-.8-.2-.3-.1-.3-.2h-1l-.2-.2-.1-.2h-.4l-.4-.1-.1.1-.2.1-.3-.3h-.2l-.4-.3h-.2l-.3.4h-.2l-.3.3h-.1v-.3l-.1-.1-.2-.2-.1-.1-.4-.2h-.2l-.3.2h-.5l-.4.2h-.5l-.3-.1h-.3l-.3.1h-.1l-.1.2-.2.3-.3.6-.2.7h-.4l-.1.1h-.2l-.4-.2H267.3l-.4-.6-.2-.6h-.2l-.3-.2H265.6l-.1.3-.2.3h-.2l-.2.1-.2-.1-.2-.1h-.2l-.2.1-.4.2-.6.1-.4.2-.5.4-.5.2-.5.2-1.2.3-.1-.1.3-.3.6-.3.3-.2h-.5l-.4.2-.3.2H259.3l-.1-.1h-.9l-.2-.1h-.2l-.2.1-.2.1-.3.1-.5.1-.2.2h-.2l-.2.2h-.6v-.4l.2-.1.3-.2.6-.2.2-.1.1-.4-.2-.5-.2-.2h-.5l-.2-.3-.3-.6-.3-.3-.1-.1h-.2l-.2-.2-.5.1-.4.1-.6.2-.4.2-.3.5V7l-.2.2-.5.5-.3.2-.5-.1-.5-.3-.2-.2H250l-.1-.2h-.1l-.4-.2-.7-.2-1.2-.5h-.3l-.3-.3h-.5l-.5-.2-.4-.1-.3.1h-.8l-.1.2V6l-.4.5-.3.2h-.3l-.4.3-.4.2h-.4L242 7h-.2v-.2h-.3l-.4.3h-.3l-.3-.3-.3.2h-.3l-.4.1h-.4L239 7h-.2l-.2-.2-.2.1-.3.3h-.5l-.3-.2h-.3l-.3.1h-.2l-.1-.1-.2-.1h-.3l-.2.1h-.5l-.4.4h-.2l-.5.2H233.4l-.3-.1h-.7l-.8.3V8l-.3.2h-.5l-.4.2h-.5l-.3-.1h-.3l-.3.3-.2.1-.3.4-.2.4h-.6l-.3.2h-.3l-.7.3-.7.3-1 .4-.2.1-.3.2-.1.3v.6l-.3.3-.2.3-.2.5-.2.2-.3.1-.4.4-.4.3h-.2l-.2.2v.4l-.2.3-.2.2-.2-.1h-.6l-.3-.2-.2-.1-.2.2h-.4l-.2.5-.2.2v.8l-.2.2-.2.3-.1.2-.3.1-.1.3-.2.4-.1.5v.4l-.1.6v.3l-.2.2v.1l-.4.3-.1.3-.2.3-.3.3-.2.3-.2.4h-.2l-.2.1-.6.3-.3.4-.1.3v1l-.2.3-.4.4-.3-.2-.2-.1h-.1l-.1-.3.2-.4.1-.1.2-1 .1-.5v-.5l.2-.8.2-.8.2-.4.2-.5.2-.3.1-.1.2-.2.1-.3V18l.4-1V16.2h-.2l-.2.1-.2.1h-.5l-.3-.2-.3-.2.1-.2.1-.2.3-.4.1-.1.2-.2.2.2h.4l.2-.1V14h-.1l-.1-.2v-.3h.4l.2-.2v-1.3l.2-.4.1-.1v-.7l-.2-.2V10l-.1-.3h-.1l-.2.2h-.3l-.5.1h-.2l-.5-.2H213.4l-.7-.2-1-.2-.6-.2h-.8l-.3.3-.4-.2-.8-.1h-.3l-.4-.4h-.6l-.2.2h-.3l-.5-.5-.4-.2-.2-.1-.2-.1-.2-.1H205l-.1.1-.2.1-.2.2-.2.2-.3-.2.5-.5.1-.3v-.1l-.2-.2v-.2h.2l.3.2h.2l.1-.2-.1-.3-.2-.1-.4-.1-.3-.4-.3-.3-.2-.2h-.1l-.3-.1-1.2-.2-.6.2h-.5l-.5.2-.1.1-.7.5-.3.1-.2.2-.1.4v.3l.2.2v.2l.1.5v.1h-.5l-.5-.4-.2-.2h-.4l-.3.3.1.3H198.1l-.2.4-.3.4V9.8l-.1.3-.2.2v-.5l-.1-.2-.2-.1-.3.1h-.2l-.1-.1-.2-.2.1-.3.2-.1v-.1h-.3l-.2-.2h-.3l-.2.3V9h.1v.3h-.5l-.3.3h-.5l-.2.4h-.3l-.2.1-.5.2h-.4l-.2.1h-.1l-.4.6-.5.2-.4.2-.2.2-.3.3h-.3l-.2.2-.2.2-.1.2-.1.5v.7l-.3.4-.2.5-.2.3-.1.3v.4l-.3-.3-.3-.6-.4-.3H187.6l-.3.2-.2-.2-.1-.2h-1l-.2.1h-.1l-.1-.5-.4-.8V13h-.8v-.2l.2-.3.2-.2V12h-.3l-.4-.1h-.3l-.3.3-.1.2v.9l.2.4V15l-.2.2-.2.1-.2.2-.7.3h-.5l-.8.2-.4.3-.5.5-.5.2-.6.3h-.2l-.2.4h-.3l-.1.1-.3.1-.4.1-.3-.1h-.4l-.4-.3-.2-.2-.1-.3v-.5l-.2-.2h-.2l-.2-.1v.4l-.3.4-.2.2h-.2l-.5-.1-.1-.1v-.2l.1-.2v-.2l-.2-.2-.2-.3h-.2l-.3.5-.2.5v.5l-1 .2h-.6l-.2-.3V16l-.1-.2h-.1l-.2.1-.2.1v.3l-.2.3-1-.2-.3-.1-.2-.5-.1-.2-.4.1-.1.4H166.7l-.3-.1-.2-.2-.2-.4h-.4v.1l.1.1h.1l.1.2-.2.2-.2.2-.1.2-.3.5-.2.3h-.5l-.2-.1-.7-.5-.3-.3-.2-.4-.5-.2-.2.6-.3.2h-.2l-.6-.3-.2.3-.4.1-.4.2-.8.1h-.4l-1.4.6-.8.1-.7.3-.3.2-.6.4-.3.2-.3.3-.3.4-.1.3-.2.2-.2-.3-.1-.2v-.5l-.2-.3h-.1l-.2.4h-.5l-.3-.1-.3-.1h-.5l-.4.1h-.5l-.2-.1H149v-.5l.2-.3.2-.2v-.6h-.5l-.3.2H147.6l-.1.2V17.9l.2.3v1.2l-.3.3h-.6l-.3-.8-.2-.5-.2-.2h-.2l-.2-.2-.2-.3h-.2V18h.2v.3l-.1.1-.2.2v.1l-.2.4-.2.3-.2-.2h-.2l-.3-.4-.2-.1h-.2v.1l-.2.2v.3l.2.3.4.3.3.2h.1l.2-.1v.4l-.1.4-.2.7-.1.4h-.3l-.3.2-.6.4-.4.5h-.6l-.3-.2v.4l.2.4-.1.4h-.1l-.7-.2-.5.1-.2.2-.3.6v.1l-.2.2v.4l-.1.2.1.2h.3l.1.2v.2h-.2V26.5h.8l.6-.2v.4l-.4.6-.2.4-.2.3-.1.1-.7-.3h-.8l-.1.2-.4 1-.2.6-.1.4-.3.3v.2l-.2.4.1.4.1.1h.1l.1.2-.2.1h-.3l-.5.3-1-.2-.2.4-.2.1-.4.2h-.4l-.5-.1-.6.2-1 .2-1.6.7-.4.3-.5.4-.5.3h-.3l-.8.5-.9.9-.2.2-.3.4-1 1-.4.6-.3-.1h-.2l-.6.6h-.2l-.5.5-.2.4-.2.9-.2.4h-.3l-.3 1-.6 1.8-.1.6v.8l.3.3.4.4.4.2.7.6 1.1.6h.4l1-.4.4-.1h.3l.3.2v1.5l.2.5h.1l4.2.9h.8l.2.2.6.2-.2.6-.3.2-.2.3-4.6.6h-.1l-.3.2-.5.3-.5.2-.3.7h-.8l-.4.4h-.4l-.2.1-.9.3-.9.3-.1.5-.3.4-.1.4-.3.2-.2.2-.3.1-.3.5-.7-.6-.7-.4-.9.8-.6.8h-.4l-.2.3-.3.5-.2.6-.3 1.2-.5 1-.5 1.6-.5 1.6-.3.4h-.2l-.2.2-.5.5-.6.4-.4.1-.3-.4v-.7l.3-.5.1-.7v-.8l-.2-.6-.2.2-.4.2h-.3l-.5-.5-.4-.2-1.5.4-.6.1-.4.3-.5.2-.6.5-.4.1h-.4l-.2.1-.2.1-.2.1-.6.8-.6 1-.4.1-.3.6-.2.5-.9 1.4-.2.4-.2.5-.4 1.1-1.1 2.6-.3-.1h-.5l-.5-.1-.4-.3-.1-.4v-.8l.2-.4.1-.6V69l-.1-.4-.4.5-.1-.2-.2-1.1-.3-.7-.2-.7v-.7l.1-.1.4-.3 1.1-1.3.3-.5H100.5l-1 .5H99l-.7.2h-.3l-.5.5h-.5l-.2-.4-.2-.2H96.2l-.2-.7.1-.9v-.3l-.1-.1-.2-.1.1-.3h.1l1-.2h.6V61h-1l-.2-.2-.1-.2.5-.2.3-.3.2.1H99l.3-.2-.1-.4-.2-.1h-.8l-1.2-.2-.7-.4-2.1-1.8-.2-.1v-.3l-.1-.4-.3-.2-.5.2-.4-.3h-.1l-.2-.2-.2-.4-.2-.6-.1-.5-.1-.1h-.5l-.1.3-.7.4-.4.5-.4.4-.3-.2-.5-.4-.5.1-.3.3-.2-.1-.1-.4-.1-.4-.2-.6v-.5l-.2-.7v-.3l-.2-.2-.3-.7v-.4l-.4.2-.4.1-.9.1-.6-.4-.7-.5h.9l.9.1h.4l.3-.3.3-.2.2-.4.2-1v-.8l-.1-.4-.3-.3H84l-.6-.3-.2.2-.1.1v.9h-.4l-.2-.5v-.5l-.3-.7-.1-.2-.9-.9-.3-.5-.3-.2-.3-.7V44l-.1-.4v-.2l.2-.2.2.2V43l-.2-.5-.1-.4v-.4l-.1-.3.3.5.3.6.4.7.6.7 1 .9.5.3h.4l1-.4h.7l.3-.4V44l.1-.6-.2-.1-.2-.2-1.4-.9-1.7-1.2-.2-.1h.5l.1-.2.3-.2.4.2.4.2 1.7.4 1.2.4 1 .5.4.1.7-.3.5-.6.2-.3.3-.9v-.4l-.5-.2-1-.2h-.7l-.3-.4-.2-.2-.2-.3-.6-1-.3-.7V36l.9-.2h.2l.1.1h.5l1.3.3h1l.8.3h.8l.3-.2.3-.1.1-.1.2-.5.5-.7 1.6-.9 1-.3.4-.2.5-.5.3-.1.2-.2.7-.6.6-.4v-.4H97.7l-.2-.2.3-.3.3-.1h.3v-.2l-.1-.3h-.2l-.3-.1.1-.2.2-.1.2-.1h.1V29H98.7l.2.2v.5l.3.2h.2l.2-.3v-.5l-.2-.5-.1-.2v-.2h.1l.1.1.3.1H100.4l.1-.4.1-.2v-.3l-.3.3h-.2l-.5-.1.1-.2.2-.1h.3l.1-.2v-.3h-.7l.1-.1v-.3H100l.2.1h.1l.2-.3v-.8l-.2-.2-.3-.2h-.2v-.3l-.1-.4-.1-.1-.1-.2h.2l.3.1.2.2.1.2h.2l.2-.1v-.2h.2l.3.2v-.3l.1-.5v-.2h-.2v.2h-.2l-.1-.6v-.4l-.2-.1-.2.1-.3-.3v-.3h.2l.3-.2v-1H100.2l-.2.1-.2-.1h-.3l-.3-.2.2-.3.3-.1.5-.1.1-.2v-.3l-.1-.2h-.1l-.3.3h-.4v-.2h.2l.2-.4h.1l.2-.2v-.2h.2v-.5l-.2-.4-.1-.4H99.8l-.3.1v-.4l.2-.1.1-.2.1-.2v-.2h-.4l-.2-.2-.1-.1V16l.1-.2.2.2v-.5l-.2-.2-.2-.5v-.6l-.1-.3-.3-.3-.2-.3-.2-.2-.1-.3v-.2l.1-.4-.4-.2V11.7l.4-.2H98.6v-.2h-.2l-.5.1h-.1l-.2.3v.4h-.3l-.4-.2-.2-.1v-.4l.1-.1v-.1h-.3V11l.4-.3v-.2l-.3.1H96.3v-.2h.1V10l-.1-.1v-.2l.2-.3v-.1l-.1-.2v-.4l.1-.1h.5v-.1l-.2-.1v-.1h.2v-.7l.1-.2.1.1h.2l.3.2h.2V7.5l-.2-.3V7l.1-.2.1-.3h.1V6.3h.4v.2l.2.2.3.5v.1h.1v-.8h-.2v-.2h.2l.3-.1.3.2v.2h.1V6.4h.2l.1-.2h.1l.1.1v.2h.2v-.5H100.7V5.5H100.4v.1h-.2l-.1.2h-.2l-.3.1h-.1l-.2-.2v-.7l.2-.2h.2v-.2h-.1l-.2-.1V4h.4v-.5h.5l.2-.2.2-.4.2-.2v-.1h.2l.2-.3h.1l.1.3h.1v-.4h.2l.2.1h.1l.2.2v-.5h-.1v-.2h.1l.1-.2.2-.3.2-.3.4-.2V.8l.2-.2H103.7V.4h.1V.9h.2l.1-.1-.1-.1V.3l-.1-.2h-.1l-.2-.1-.4.2-.4.2-.4.2h-.1l-.2.3h-.1l-.3.3-.4.2h-.3l-.5.3v.1l-.2.4-.3.2V2.7h-.2l-.2.1-.2.2h-.2V3H99v.4H99l-.4.2v.4l-.1-.1h-.2l-.3-.1h-.1l-.1.3v.5h.1l.1.1v.1h-.2l-.1.1V5h-.3V5.3h-.2v.2l.1.1V5.8H97l-.3-.2-.2.1V6H96.3l-.1.3v.8h-.5l-.2.2v1.3-.2h-.2v.2H95V7.8h-.2l-.1.2h-.1v.1l-.1.4v.6l.4-.1H95.3v.2l-.2.3v.3l-.1.2v.5l.2.3-.2.5v.7h-.2v.3l.1.2.1.2v.5l-.2.2v.2l-.7-.1h-.3l-.1.1h-.2l.1.3.2.3v1l.3.6.2.4.1.7.1.5.1.5V19.3l.3.6v.2l.2.3.1.5-.2 1-.2.6-.3.6-.3.3-.8.6-.4.1-.6.2-.3.2h-.6l-.4.2h-.5l-.3.3h-.5l-1 .8h-.5l-.2-.1h-.4l-.3.1-.2.1-.4.2h-.5l-.1.2-.1-.1v-.3l.3-.5V25l-.3.2h-.7l-.2.1h-.3l-.3-.1-.1-.6-.5-.7-.3-.2h-.3l-.3-.2-.1.4.1.4.1.3v.3l-.6-.5h-.1v1.2l-.1.3-.3.2-.5.2-.6-.4H80.4l-.2-.3-.4-.2h-.3l-.4-.2-.2-.3-.3-.5-.2-.2h-.2l-.5.5h-.4l-.3-.5h-.2l-.3.2-.2-.1H76L76 24l.2-.6V23l-.2-.3H75.4v.4l-.1.2h-.5l-.2.2h-.2v.5l-.1.4-.4.2h-.3l-1-.4H71.5l-.3.3H71l-.3-.1h-.4l-.2-.1h-.2l-.3.2h-.8l-.2-.2-.5-.3H67.7l-.1-.3h-2.3l-.2-.1h-.5l-.3.1H64l-.3-.1-.1-.1.1-.1v-.5h-.1l-.3-.1H63v.2h-.2v.5l.3.7.1.3.2.1h1.4l.6.1.4.2.4.3.3.2.3.1-.3.1H66.2v.2H66l-.8.2h-.4l-.2-.2-.2-.1h-.2l-.2-.1h-.7v.8l.3.1.3.1.4.2.1.3.2.8v.5h.3l.1.1.3-.1h.4v.5l-.1.6-.2.1.1.2h.4l.2.1.4.5.4.2.2.1-.1.3v.2h-.8l-.5.2h-.5l-.3.2-.3-.2-.2-.6-.1-.3h-1.5l-.5.1-.2-.1-.4.1-.2-.1-.5.3-1 .5-.3-.1h-.8l-.4-.2-.5-.2H55.7v-.3l.4-.6.4-.4.2-.4V28l-.2-.3h-.2l-.3-.2-.1-.1h-.4l-.2.2.1.4V29l.1.3v.2h-.2l-.3.1-.8.2-.5.2-.3.1h-.1v-.2l.1-.2v-.7l.2-.1.1-.2.3-.3-.1-.2h-.2l-.1-.1v-.5h.2V27l-.7-.6h-.3l-.1.2-.2 1v.6H50.6l-.7-.2H49.1l-.2.4-.3.3-.2.1-1.7.3-2 .1-.5-.1h-1.8l-.6-.1h-.7l-1 .4H40l-.5.2H39l-.6-.2h-.7l-.3-.2H37l-.5.1-.5.2h-.5l-.4-.3-.3-.3h-.5l-.5.3-.2.2-.2.7-.1.4h-.5l-.5-.3-1.3.3-.5.2-.5.7-.2.1-.2.2-.2.1h-.2l.3.8h-.2l-.4-.2-.5-.6-.2-.1-.6.2h-.5l-.6.7-.4.3-.4.2H25l-.3.5v.3l.4.6.2.2.2.4h-.4l-.6-.3h-.2l-1-.8h-.5l-.1.2-.1.2-.1.1-.4.2-.3.2.3.2.2.1.4.2 1.1-.2.5.2.6.6.3.4.1.1v.7l-.1.2H25V37.9h.1l.2.3v.2l-.2.2v.3l.1.2v.4h-.6l-.5-1-.3.2-.2.1h-.2l-.4-.4-.4-.4h-.1l-.1.3V38.8h.3l.2.3.1.2-.2.4-.7.3-.3.3v.3h-.5l-.2-.2-.6-.6-.6-.7h-.3l-1 .1h-.3v-.3l-.1-.2-.1-.2-.2-.2-.8-.4h-1.4l-.2.4-.5.1H15l-.4-.6h-.1l-.2.3v1.3l-.1.5-.2.7.1.5.1.2.4.6.5.5h2.3l.4.3-.2.4-.2.2-1 .5-.3.2-.3.3.4.5.8 1 .6.4.9.3.7.1.4-.1.2.4v.4l.3.2.3.4.2.3.5.4 1.3.5.6.4.2.2v.7H23l-.1.1V51.3l-.3.1h-1l-.3.2-.2.4-.1.7v.3l.2.4.2.1.6.5h.1v.4l.1.3.2.1.4.1.4.4v.4l-3.5.7-3.5.6-.5.2-.3.4-.2.5.5.3 1.4.8.4.4.2.3.3.5-.1.4-.1.3-.3.3-.2.5.7 1.5.8 1.8-.3 1-.4.5-1.2 1.3-.3 1-.5.3-.9.3-.4.3-.1.1v.5h.2l.3.3-.3.9-.3.2-1.5 1.3-.4-.4H12l-1.4.2-.4-.9-.3-.4-.2-.2-.5.4-.3.4-.3.3-.2-.4-.3-1-.6-.5-.5-.2-1.3.2H5l-.1-.1-.2-.1-.2-.3-.4-.4-1.4-1.1-.7-.7H2l-.3.3h-.2l-.2.2H1l-1-1v.5l.2.3 2.2 2.3.3.4 1.8 1.4.3.7.3.6.1.2.3.8.2.5.2.1.8-.1h.7l.3-.3.5.4.8 1.2v.9l-.4.1v.2l-.1.5.1.4.4.7.2.1V80z" fill="#0f1c24"/>
</svg>
