<svg xmlns="http://www.w3.org/2000/svg" width="636" height="542" fill="#0f1c24" stroke="#aab5bb" stroke-width=".2" stroke-miterlimit="10">
  <path d="M210.1 83.2v.1h.2l.1.1h.1l.1.3V84.6h-.1l-.2-.2h-.1l-.2-.1-.2-.3-.1-.1V82.5l.3.2.1.5h0zm3.6-1.9l.2.2v.3l.1.4v.3l-.4-.3-.7-.9-.1-.3V80h.3l.1.3.4.8v.1zM187.4 66h.7l.4.1.4.2v0l-.2.1h-.2l-.2-.1h-.4l-.2.1h-.1l-.1-.1v-.1l-.1-.2zm34.3 266.8h-.2l-.8.3-2.2 1.1-.2.3-.4.2-1 .6-6 2.8-2.7 1.1-3.5.6-2.4 1h-.5l-.2.4h0l-3.4 1-2.5.4-.2.1-.1-.1-.5.2h-4l-1.1.2-4.2-.6-1.3-.4-.4-.2-.6-.1-.3-.1h-.1l-.5.2-.2.1-.2.3h0l-.4.2-1-.1-.4.1-.7.4-.8.4-1 .7-1.7 1.4-1.9 1.4-.8.3-2 .6-1 .6-2.2 1.2-.8.3h-.3l-.2.1-1.4 1.6-1 .6-1.1.4-.5.1-2.7.4-2.2.4-.6.3-.2.2-.6.5-.1.2h-.3l-.3.2-.5.5-.7 1-.3.5-.2.5v.7l-.1.4-.2.2-.2.3-.5 1.1v.2h0v.4l-.2.4v.4l-.3.7v.3l-.1.8-.1.3-.3.2h-.3l-.3.2-.2.2-.2.2h0v.2h0v.1l-.6.4-.8 1-.2.4-.1.3v.4h0v.2l-.1.2-.3.1-.6.3-.2.2-.1.1-.2.4h0H147.2l-.2.2-.6.9h-.2l-.2-.2-.2-.2-.1-.1-.2-.2-1-.1-.6.2-.4.4-.7 1-.4.2h0-.1l-.1-.1h-.1 0l-.2.2h-.7l-.2-1.1-.3-.6-.3-.4-.6-.3h-.5l-.2.1h-.5l-1.1.5h-.5l-.3.1h-.2l-.2-.4h-.4l-.3.2H133.9l-.5.3.2.2v.2l-.2.2-.1.2-.3-.3h0-.2v-.1h0l-.4.2h-.1l-1.4-.5h-.5l-.6.1-.4.4-.2.2v.7l-.1.4-.2-.1-.3-.3v-.1h-.2l-.1.2-.1.2h0-1.6v-.2l.4-.4v-.3l-.3-.6-.1-.6-.1-.3h-.1l-.3-.3-.3-.5h-1.1l-.3.2-.5.5-.2.1-.2.1-.5.2h-.5l-.5-.4h-.2l-.1-.1h-.3l-.1-.1h-.2l-.1.2h-.2v.1h-.3l-.2-.2-.2-.2-.3-.1h0l-.4-.2-.3-.2H116.1l-.5.2-.6.1h-.3l-.6.5h0-.1l-.4-.3-.3-.1h-.4l-.5.2-.3.1h-.5l-.2.1-.3-.1h-.4l-.7-.1-.3.1-.4.2-.4.2h-3v.1h-.2l-.1.2v.2h0v.2l-.3.1-1.4.6h-.4l-.2-.1-1.4-.4-1.4-.2-.2.1-.5.3h-.6l-.4-.4H98l-.2.2-.4.3h-.2l-.3.1h-.6l-.8.3-.1.2-1 .9-.3.2-.8.4-.4.3.1.1v.2l-.2.1-.4.1v.1l-.5 1.2h-.1l-.5.4-.2.4-.1.4-.1.5v.4l.2.3.3.2h.4l.3.3H91.7l-.3.2-.5.1-.5-.5H90l-.4.2v.9l.3.3h-.2l-.3.4h0v.2h-.2 0l-.2-.3v-.4l-.3-.1h-.2l-.2.1-.2.1v.1l-.1.4v.6h-.3l-.2.1h-.1v-.1l-.1-.2v-.2H87l-.1-.1h-.6l-.1-.1-.2-.2H86l-2.6-.5h-.1l-.3.2h0l-.8-.1h0l.5.6.1.2-.2.1-.9.1-.2.1-.5.4-.2.1-.2.2v.6l.4.1-.4.6-.3.2-.5.1-.5.4-.3.1-1.2.3-.6.2-.5.4-.2.2-.2.6-.2.3-.2.3v.4l.2.5v.4l-.2.1h-1.6l-.3.2-.6.3h-.5v.1l-.1.2.1.1h.2l.2.4v.5l-.2.1H73l-.6-.6-.1.1H71.9l-.7.3H71l-.1.1h-.2l-.2-.1h-.2 0-.3l-.1.1h-.1 0l-.2-.1h0-.1l-.1.2h0-.8l-.2.2v.5l.3.1.4.2h.1V388h.3l.2.6.3.2.5-.1h.1v.3h-.4l-.3.2h-.8l-.4-.1-.7-.7-.8-.3H66l-.4.2-.2.3v.4l-.1.6-.4-.2-.7-.6-.5-.2H63.2l-.8-.6-.2-.1-.4-.2-.2-.1h-.1l-.2.2h-.2l-.5-.3H60l-.1.1h-.2l-.2-.2h0-.4l-.1.3-.3.6-.2-.1-.2-.3h-.2l-.2-.1-.4-.2H57.3l-.2.1H56.8l-.2-.1-.2-.1H56l-.2.4-.3.2h-.7l-.2-.1-.6-.4-.6-.1-.1-.1h-.1V387.8h-1l-.2.2v.2l-.4-.1-.4-.4-.7-.1-.3-.2H49.5v-.1l-.4-.4-.5-.4-.3-.3.1-.1 1.2.2.3.1h.2v-.2l-.2-.2-.2-.1-.5-.1-.2-.3-.2-.2-.2-.2v-.1H48.3l.3.7-.3.3-.6-.1-.6-.3-.5-.3-2.1-.7-1-.1H43l-.1.1h-.1v-.3l.1-.3-.1-.3-.4-.4-.2-.6-.2-.3-.4-.4-2-2.3-1.8-1.6-.5-.4h-.5l-.1-.1-.1-.2-.1-.2h-.1l-.1-.1H36l-2-1.2-.7-.2H32l-.3.1-.4.7-.2.2-.2-.3-1.2-1.4-.1-.2V373.3l-.1-.3-.4-.9v-2.8l-.2-.7v-.6l.2-.7.2-.3-.3-.4-.1-.6v-.7l.1-.4.4-.4V363.9l-.1-.9v-.3h.2l.6.2.3.5.3.5.4.3.5.3.5.2.6.1h.6l.6-.1.6-.2.5-.3.4-.3 1.1-1.4.8-1.4.4-1 .2-.7.1-.2.2-.2h.1l.2.1h.2l.4-.1v-1.7h0l-.2.2v.6l-.2.7h-.1V354.5l-.1-1.4-.5-2-.2-1.4v-.6l-.1-.5.1-.7.3-.4.6-1 .4-.3-.2.6-.7 1v.7l.4 1.2.3.7.3.1.2-.3-.1-.3-.3-.6-.2-.3v-.5l-.1-.2-.2-.2h0v-.2h.2l.3.2H39.9v-.9l-.2-.1h-.3v-.2l-.2-.3V346.3l.2-.3.1-.2.2-.6v-.6l-.2-.5-.4-.3.4-.4v-.5l-.3-.2-.3-.2-.2-.2h.6l.2-.2.1-.3v-.4l.2-.6v-.5l-.2-.2v-.8l-.2-.3v-.3l.2-2-.3-2.6-.3-1.3-.2-.7-1-1.6-.8-1.8-1.3-2.1-1-2.7-1-2.3-1-1.8-.8-.8-.2-1v-.4l-.9-1.7v-.5l-.5-1.3V313.2l-.1-.3-.3-1.2-.2-.5h0l-.1-.3h0v-.2l.1-.1v-.8h-.1l-.3-.3h-.1l-.1-.3v-.4l.1-.4v-.8l-.2-.4v-.1l-.2-.1-.1-.2v-.5l.3-2v-.4l-.3-.6v-2.9l.2-1.3.2-.9v-.6l-.3-.8-.2-.7v-.7l-.1-.2-.3-.6-.2-1-.7-1.9-.2-.3-2.4-2.8-.1-.1-.5-.7-.1-.3-.2-.7-.2-.2.3-.6v-.7l-.1-.7-.8-2-.3-.6-1.2-1.4-.7-1.2-.1-.2-.1-.3-.7-1h-.2l-.4-.3-.2-.2L18 276l-.2-.4v-.2h-.1v-.7l-.6-1.8V271.2l.2-.6v-.3l.1-.1.2-.3v-.4l-.9-3.7-.8-2-1.3-2.3-2.1-3.9-1.6-2.2-.8-1.5-.8-.8-1-1-1.4-1.6-.2-.2-.5-.4-.2-.3V248.7l-.1-.3-.2-.5-.4-.7-.4-.4-.5-.6-.3-.3v-.2l.4.2.3.3.3.1h.4v.5l.2.3v-.5l.2-.5v-2.2l.3-.4.2 1.9v2.3l.2.6.1.3.2.4.1.3.2.1v-.5l-.4-.6v-.6l.1-.7.2-.3v-1.6l-.2-1v-.4l.4.8.1 1.7.2-.3H8.2v1l.1.5.2.2v.3l.1.2.2.4v.8l-.1.4v.5l-.2.6H9v-1l.1-.2.2-.6-.3-.7.1-.2v-.4h.2l.2.2.1.3v.3l.2.4-.2.5.1.4.1.6-.1.3.1.4v1.1h.2l.2-.2v-.5l.1-.2.3-.3v-.7l.3.6v1l-.1.4v.2l-.1.2h.4l.1.3v.5h.3v-.5l.3-.1.3-.2h.4l.2-.2v.3h.5v-.6l.3-.2.3-.1.2-.4.2-.4V250l-.2-.4.2-.3v-.5l-.2-.4-.4-.3-.4-.5-.4-.4h-.5l-.9-.3v-.6l-.2-.2-.2-.4-.6-.7-.4-.1-.1-.5v-.7l-.1-.2-.2-.4.1-.5-.5-.3v-.7l-.1-.3-.2-.2-.2-.2-.1-.1-.1-.2v-.2l-.1-.3-.2-.1-.4-.6v-1.1l.2-.4.2-.4.2-.5.4-.4.1-.5H9v.4l.1.6v.4l.2.2h.2l.2.2h.3v.6l.3.5.3.5.4.2.2.5.4.2h.3v.5l-.1.3v.3l.1.1.3.1h.1V242.4l-.3.3v1.1l-.2.3v1.4l-.2.4.3.5v.3h.5v.2l.5-.1.7-1.3.3-.6.1-.6-.2-.7v-.1l-.1-.3v-.4h.1l.3.1.3.4v2.2l.3.2h.3l-.2.9v.5l.3.5v.4l.1.4v.3l.8 1 .6.6.3.2h.2l.3-.3.3-.2.1-.3.4-.2.3-.1.2-.5.2-.4-.2-.7-.2-.4v-.4l-.2-.4v-.4l.2-.3.2-.6V244.9l.1-.2v-.2l-.1-.3-.4-.6v-.5h.1l.2.3h.8l-.1-.3-.2-.2-.2-.1v-.4l.1-.3.2-.3v-.7l-.2-.2-.7-.4-.5-.2v-.2l-.1-.3h-.2v-.6l-.2-.2-.2-.1h0l-.1-.4h-.1l-.5-.3-.2-.2-.3-1-.9-1.2-.3-.6-1-2.3v-.6l-.5-.8-.2-.4v-.2l-.2-.1-.6-.4-.5-.2-.3-.3-.1-.3-.2-.6-.2-.3v-.5h-.1v-.2l.2-.2v-.2l.1-.3-.1-.3-.3-.2-.4-.1v-1.2l.2-.3v-.3l-.2-.4v-.3l-1-1.3-1.3-1.6-.3-.6-.3-.6v-.6l-.2-2.5v-.3l.2-.2.3-.4.2-.3v-.3l-.2-.7v-1.1l.2-.1.2-.3.1-.2v-1.2l.5-.6.1-.3.4-1.3.1-.2.3-.1.6-1.7v-.1h.1l.2-.1h0l.1-.3h0l.4-.2h.3l.1-.2v-.2l.2-.1.5-.4.1-.2.1-.4h0l.2-.3v-1.1l.2-.6v-.4l-.2-1.2-.2-1V200h.2l.1-.2.2-.1.2-.3v-2.6l-.3-.4-.1-.3-.2-1-.7-.7h-.1l-.2-.2H11l.2-.6v-.3l-.2-.3v-.8l-.1-.1v-.4l.1-.1.3-.1.2-.2.3-.6.2-.2v-.1l.1-.7.1-.4.2-.2.4-.6.2-.2L14 185v-.3l.1-.3v-.3l.4-.5.4-1 .8-1.3.4-.3.4-.3h.3l.3-.1.2-.1.3-.1H18l.1.4-.1.1-.2.2-.1.2v.3l-.3.6-.4 2.8-.2.5v.5l.2.5v.2l.3.5v.8l-.1.3h.2l.2-.4.1-.1h.3V188.8h-.2l-.4.5-.1.1v.2l.1.4-.2.6.2.4.3.2h.4l.3-.2.1-.3.2-.3h.4l.2-.2h.1l.2-.1h.2v.2l.2.3v.1l.3.1.3-.1.1-.1v-.5l.1-.2.1-.3v-.1l.1-.4v-.3l.5-.9v-.4l.2-.4h0l.4-.6v-.5h.4l.1-.6.2-.6v-.4l-.2-.2h0v-.2l-.1-.3V183.3l.3.2.3.4.1.1.7-1.3.2-.4h.1v-.2l.2-.2v-.6l.2-.2.3-.1h0l.3-.3.1-.1 1-.5 2.1-1.2.6-.2.5.1.7-.2.1-.1.2-.1.1-.2h.2v.2l1.7-1 3.2-1.2.3-.2.1-.3.1-.2.2-.2.4-.4.9-1.2.3-.3.5-.4 2-1h.2l.1-.6.4-.5.3-.6.3-.4.5-.4.3-.2h.2l.7-.4.4-.1.2-.1.2-.2h.5l.4-.3.3-.4.2-.6v-.7l.1-.1h.5l.2.1.3.1h.3l.3-.1.3-.3.2-.1h1.2l.2-.2.5-.3h.1v-.1l.2-.1.1-.1v-.3l.2-.1h.3l.5-.2 1.6-1 .6-.7.4-.8.3-.2v-.2h.1l.1-.1H54.6l.1.1h0l-.3.2v.3l-.1.6v.1l-.3.2v.4h0l.6.7h.3l.3.1h.3l.3-.2.3-.2v-.1l.2-.2 1.4-.6h.2l.2.2h.3l.1-.1.4-.3v-.2h.2v.1h0v.6h0l.1.2h0l.2.2.2.2 1 .4.6.2h1.7l1-.3.4-.2.5-.4.4-.1h.2l.2.2h.2l.2-.1v-.1h0l.2.1v.1h.2l.5-.3v.1l.3-.1.5-.2.3-.2h.3l.1-.1.1-.1.2-.4v-.1l.2-.2h.5l.1-.1.2-.3h0v-.5l.1-.1 2.7-2H72.8l.1-.1H73.2V159.5l.3-.1.3.1h.2l.2-.2.3-.1h.1l.3-.2H75.2v.1l.1.2h.4l.6-.2 1.9-.3h.2l.1-.1.4-.1h.4l.1.1h.1l.2.1h.6l.4-.5h.7l.3-.1.3-.3.3-.4.4-.7 1-1.2.2-.5.1-.3.1-.1.2-.1.2-.2.5-.1h.1v-.2l.1-.2h0l.5-.3h.3l.6.6V153.5l.1-.1h.6l1 .3.6.1h.3l.3.1.6.2h.4l.1-.1H91v.2h0l.1.2.5.3.4.2h.5l.5-.3h.2l.4-.5h.7v-.5l.2-.2h1l1.4-.2 2.2-.4 2.4-.2 1.7-.6 4-1.5 2-1 2-.9 2.5-1.6.5-.6h.2l.2-.1 1.6-1.8 1.4-1.9 1.4-2.2.3-.8.3-.4v-.2l.1-.3v-.1l.1-.1.2-.3.1-.1.2-.7.3-.6.1-.2.1-.3V136l-.1-.2h-.1l-.1-.2-.2-.4H121.1l.5-.1h.2l.6-.7v-.2l.1-.3v-.2l-.2-.2-.4-.2.3-.3.2-.2.4-.9.2-.3.1-.2.2.1.2.1.2.1h.6l1.6-1.2.3-.4v-.4l.2-.2.8-.4.3-.2.2-.2.4-.5h0l.2.2.1-.4.2-.2.4-.2 1-.5.3-.4.2-.5.1-.4v-.5l-.1-.4-.2-.2-.4-.2-.5-.1h-.9l-.2.5h-.1v-.1h-.1l-.1-.2h-.1l.3-.5.2-.5v-.5l-.2-1v-1h0l.1-.2V120.6l-.2-.3-.1-.3h0l-.1-.4-.2-.5v-.1l-.2-.3h0V117l.1-1.7.2-.6.1-.5.1-.3.2-.2h.2v-.3l.8-.8.2-.2-.1-.2h-.2l.1-.3.1-.2 2-1.7.4-.3v.4h.2l.2-.1v-.7l.2-.1h.2l.1.2.1.2.1.1.2.1.7.2-.2-.2-.3-.7-.4-.5v-.4h.1v-.2h.2v-.2h0l.2-.3v-.1l.2-.2h.3v.1l.2.2h.4l.3-.1h.5l.2-.2.2-.1.1-.1h.5l.6.2-.8-.7-.2-.4v-.5l.1-.3h0v-.6l.1-.1.1-.2.2-.2.2-.1h.5l.2-.1.1-.2v-.2l.2-.1h.2l.1-.4.1-.6.2-.5h.3l1-.6.2.2v.2l-.3.3.6.3.2.2v.2l-.3.1h-.7 0l-.1.4.2.4-.5.7.2.2v.3l.1.1h.4l.2-.1v.5l.1.4.2.2.3-.1.2.3h.4l.1-.2h.2v.4l-.2.1h-.2l-.1.3v.3l.1.2.3.2h.2l.2.1v.7l-.1.6v.3l.2.1h.3l.2.3.3.5.6.5v.8l.1.2.1.3.5.5.3.3v.4l.2.2.2.4.2.4-.1.3.2.5.2.2.4.3.2.3.2.2v.1l.2.2.2.2.2.2.1.6.4.4.2.3v.2l.2.6v.2h.1l.1-.1v-1h0v-.3l-.3-.5v-1.4l.2-.2.2-.3v-.7l.1-.1v-.1l.1-.2v-.3l.1-.2.1-.1H148.1v-.5l-.3-.2-.6-1V111l.2-.4v-.2l.2.2h.1l.2-.1H148.2l.2.2v.1l.2.7h.1l.1-.2h.3l.3.3.2.2.1.2V112.2l.2.1v.1l.2.1.3.2h.2l.1.3.2.3.2.2.3.1h.4v-.2h0l-.3-.1h0l-.5-.4-.2-.5-.3-1.1-.2-.5-.1-.3.1-.1h.2l.5.4h.1l.1-.2-.1-.2-.2-.2-.1-.3v-.2l.4-.3.1-.1.1-.3.3-.1.2-.1.3-.2.1-.2V107.8l-.2-.2-.1.6-.3.3-1 .3-.5.1-.4-.1-.5-1v-.2l-.2-.6v-.2l-.3-.2-.5-.2-.2-.1-.4-.5h-.2l-1.2-.3h0v-.1l.3-.2h.3l.2-.2-.2-.3.6-.3.1-.1v-.3l-.1-.1h-.6l-.3-.1.2.4v.1h-.7v-.2l-.1-.1-.4-.3h0l-.2-.2h0l-.2-.1h0v-.2l.5.2H146v-.2l-.3-.4h.3l.5.5.2.1h.4l.3.3h.7l-.1-.1-.2-.1h-.4l.2-.2.4-.1h.3l-1.6-1h-.5v-.2l.5.1h.1v-.3l1.4.5h.9l-.4-.3-.1-.1h-.2l-.2-.1v-.1l-.2-.2v-.1h.4l.2.2h.5v-.6l-.2-.1h-.6 0l-.1-.2-.2-.1-.1-.2H147.6v.1h0l.1.1h0v.1H147.4h0v-.2h-.1l-.3-.2-.2-.1-.1-.2h.4l.1-.3v-.3l-.3-.2.1-.4h.1l.2-.2h0l.2.1h0v-.3H149.2v-.3l.1.1.2.2v.1h.4l.2.3h.2v.1l.1.1v.2h-.2l-.3-.1h0v.2l.2.1h.6l-.2.3h-.4l-.4.1h-.4l1 .8.4.2h.4l.1.3V101.4h-.4l.2.7.1.2.1-.2h.1v.1h.1l.1.1v-.8l.1-.3v-.2h.1l.3.1.3.1v.1l.3.2.2.2.1-.1-.5-.8v-.4l.4-.1v-.1l-.3-.2-.3-.2-.2-.3-.2-.2h.3l.5.3h.4l.3.1h.1v.1l.1.2h.2l.3-.1h.5l.3.2.3.2.2.1v.1l.5 1 .1.3h.2l1 .1.5.2h.1l.4-.7.2-.2h.2l.4.3.3.2.3.1 1.7.1h.4l.3-.2.1.1h.4l.6-.1h.6l.2.2.3.3h1l.3-.3h-1l-.3-.2h-.2l-.5-.2-.8-.4-1.4-.2H160l-.2.2h-.1l-.3-.1h0-.1 0-.5l-.2-.1v-.4l-.1-.1v-.1h-.1v-.3l.1-.2V99.5l-.1-.1V99l.1-.2V98.6l.4-.1v-.1l.1-.2V97h.5l.1.2V98l.4.3.1.2.2.3v-.3l.3-.4.3-.2h.4v-1.3l-.2-.5.1-.1h.4l-.1-.3V94.7l.1-.2.3-.2h.4l.1.2h.1l.2-.4V94l.2-.3.3-.2-.5-.2H161.7l-.1.1-.2.1-.3.6-.4.4-.6 1.4-.4.4v-.5l.1-.2v-.2h-.2V95l-.1-.4-.3-.8-.2-.2v.4h-.1l-.1.1h0l-.2.2v-1l-.2-.2v-.3l-.1-.3v-.9l-.1-.1v-.2h.1v.2h.2V91l.3.5v-.3l.1-.4-.1-.3h-.3V89.7l-.3-.2h.4l.2.1h.4v-.6l.3-.3h.4l.5.2.4.3h.2l.2.1h.5V87.8h.2v.5l.1.3h.4l.1-.3-.2-.2V88l.1-.4.2-.2.4-.2h0v-.2h-.2v-.2l-.4.2h-.2V86.6h.1l.2-.1.1-.1v-.2H162.3l-.2-.1V85.5l.3.1h0l.2.1h0v-.1h0l.2-.1h0v.3h.1l.5.2h0v.3l-.2.4h0l.6-.5.2-.1h0l.2.2h.2l.1.2v.1l-.1.2v.2h.2l.4-.1h.5l.2.2.3.4h0l.1.2h.3l.1.1h.1v.4l-.2.4v.1h.4v-.1H167.2V89l.3.1.1-.1v-.3l.1-.3.3.1 1 .7.4.2-.2-.2-.5-.4-.1-.2-.7-.6v-.2l.2-.8.1-.2h.2l.2-.2h.2v-.1h-.4l-.1-.2-.1-.2-.1.3h-.2l-.3-.2-.2-.2h-.2l-.6.5-.4.1-.3.3h-.2l-.1-.1-.1-.2v-.3h-.1 0-.1V86h0v-.1l.1-.2.2-.1h.1l.1-.1V85.2l.2-.1h.1l.3-.1v-.1h.1l.2.2h.2l.3-.3.4-.6h-.4l-.2-.1v.4h0H166.5l-.1-.1v-.2l-.1.1-.1.3h0-.2l-.3.2-.6.5-.2.2V85.2h0V85l-.1.2h-.1v-.4h0v-.2l.1-.2v-.1h0-.4v-.4H164.9v-.3h0l.2-.1h.2l.1-.1H165.6l.2.1h.3l.1.1.2.3.3-.6.2-.2.1.3.1-.3v-.6l-.2-.1v-.7l-.1-.2h.1l.2.1.2.2.1-.1.2-.2h.1l.2.1v.2l-.3.3v.3l.1-.1.1.5.2-.1.1-.3.2-.1h0v.1h.1v.5l.2.6h0v.1l.3.5.1.1h.1v-.4h0v-.2l-.2-.8-.1-.2v-.3l.2-.2v.3l.1.2h.4l.2.2h.1l.1.2.2-.1v.1l.2.1v.1l.3.3h0V83.8l.1.1.3.2h.3V84h.4l.8.2.2-.2v-.3h-.7l-.1-.1V83.2h0l.2-.1h0v-.2h-.2v-.1l-.1-.1h0l.2-.1h.1l.2-.3h.4V82l-.2-.1-.5.1h-.2l-.2-.3h0l-.2.1h-.1v-.2h-.1 0-.2 0v.1h-.2 0-.2 0V81.4l.1-.2h-.2l-.1.1h-.1v.1h-.2v-.2H169.7h0H169.5l-.2-.1V81h.1l.2-.1V80.7H170l.2-.2h.1l.1.2h0l.3.1h.2v-.4l.2-.1-.2-.2-.4-.2h-.5l-.4-.2-.1-.1v-.8l-.1-.1H169h0l-.1-.1h-.2V78h.5v-.4h.5l-.2-.2v-.3H170.4V77h.4l.2-.3H170v-.2l.1-.3.3-.3.3-.1h.3l.2-.1v-.1l.1-.2V75l.1-.1H171.7v1l-.1.1-.1.4.1-.3.3-.2.2-.2v-.3l.2.2.5 1.1v.1h0V76h.3v-.4l.1-.1h0v-.2 0-.2l.3.3v-.8h.5v.1h.3v.4l-.2.2h-.1l.2.2h.5l.1-.1v-.2h0V75h.2v-.2h0v-.9l.2-.3v-.4l-.2-.2-.2-.3.1-.2v-.4l-.1-.3.1-.2v0l-.1-.2v-.2H175.1V71h.4l.1.4h.1v0h0l.2.1.4.2.2.2v-.2l.1-.1h.2v.1l-.3.4.1.1v.2h0l-.2.2h-.2v-.2h-.4V72.8h0v.2l.2 1.4.1.2v.4l-.6 1.3v.6l.2-.2.6-1.7.1-.1.1-.4v-.6l.1-.4h.2l.1.2v.8h.4l.2-.2v-.1l.1-.1h.2v.2h0l.2.1h0l.1-.1H178.4v.2h0l-.2.1-.2.1.2.5-.2.2v.1h.3v.2l-.1.1v.5H178.6l.5.4.2.2h.2v-.6h0V76l-.2-.2h0v-.2h0l.1-.3v-.2H180l.2.2h.3V75h.1l.3.1h0l.2-.1v-.2l-.1-.2V74.3l-.3-.2v-.4h-.2v-.1l-.2-.1h0l-.1-.2v-.1h.3l.2-.2h0l.3-.2h.3v-.6l.2-.2h0v-.2l-.1-.2V71h.5v-.1h.2l.3-.4h0l.1-.2v-.6l-.2-.6-.3-.2h-1.4l-.2-.1-.1-.3v-.1l-.2-.2V67.9l.1-.1v-.2l.2.2.2.3.2.1h.2V67.6h.1l.4.5h.3V67.5l-.1-.2h0-.2l-.5-.4h-.1l-.2-.2H181.4v-.2l.1-.2.2-.1h.1l.1.1v.2l-.1.1v.1h.3l.2.1h0l.3-.1v.1l-.1.1-.2.2h0l.2.1h0v.1l-.1.1-.2.2-.1.2v.2h.2l.2-.2.4-.4h0l.2-.1.4-.2-.1.3-.5.3-.1.2h.3l.3.2v.2l-.2.1h-.4V69l.4-.1h.2v.3l-.3.3-.1.1h.2v.4l.2.2.4.2v.2h0-.1 0l-.1.2h0l.2.1h.3l.1-.2h.2v.3h.1v-.2l.1-.2.2-.1.4-.1v-.2l-.1-.2-.2-.2h-.1 0-.2v-.2l.1-.2V69l.1-.1.1-.1.3-.1h0l-.1-.1v-.1l.1-.2h.5l.2-.6.4-.3.1-.2.3.3h.2l.3-.1.2-.3.2-.3.1-.1h.2l.4.1-.2.1-.2.1-.2.1V67.5l-.2.1h0l-.1.1v.4l-.1.1-.4.4-.2.3h.4l.5-.2h.1l-.4.7h0l.2.4h.5l.2-.1h.1V70.6l.1.2h0l.2.1.2.2v-.8h.2l.2-.1.2-.1v-.4h0v-.4h.1V69l-.1-.1v-.2h.1l.2.2h.1v.2l.1.3H190.2l.2-.4.2-.2-.1-.2v-.2l.2-.2v-.3h0v.1h-.2l-.1.2-.2-.1v-.2l-.1-.2.1-.2h0l.4.1h.2v-.1l.1-.2.2.1h.2l.4.1h.2l.2-.2h-.3l-.1-.1V67H192.2l-.1-.1h-.1l-.1-.1h-.3l-.1-.1-.1-.2v-.4h-.1l-.3-.4v-.1l-.2-.6-.1-.2h.5l.2-.2.1-.1h0l.2.1v.5H192l.1-.2H192.5v0l-.2-.2-.2-.2v-.2l.2-.2h.3l.2.2.2.1h.3l-.3-.2h0V64h.2l.4-.1.3.4.2.2h.3l.1.1v.7l.2-.1h.2v.3l.3-.2v.2l-.1.4-.1.3h.4l.1.1v.4l.2.4.3.2.2-.2.1-.3.3-.2-.1-.1v-.4l.2.1V66.8l.1.2h.2l.2-.2.1-.4.2-.2.2.1.5.6.2.1.4.2V67l-.2-.4.2-.2h.1l.2.2v.2h.4v.2h.1v.2h.2l.2-.3.1.2.2.2v.3l.1.2v.8l.3.1.1.2.1-.3h.2l.3.3.1.2h.2l.4.4.2.1H202.6v.1l.2.1.6.5v.2l.2.3.2.3.8.7v.1l.5 1v.1h.3l.1.1V74l.2.1h.1v-.2l.1-.1H206.2v.3l-.2.3v.3l.2-.2h.2l.3.4.4.3.2.2h-.1v.5h0l.2.2h.1l.3-.2h.1l.1-.1.2.1.3.3h0l.2.2v.2l.2.2.2.1H209.4l.2.2.5.5.3.2h.5l.2.1v.5l-.2-.1h-.4v.5l.1.5V79.5H210l-.1.1-.3.3h.2v.6l-.3.9v.2l-.2.3-.1.2v.7l-.2.4-.1.3v.4l.2.4v.1L209 86v.1l-.2.1h-.3l.4 1v.6l-.2.6-.5.4V89l.4-.1.3-.3.2-.2.2-.4.2-.6V86l-.2-.9h.2V84.5H209.8l.1.2.5.2.6.6.2.2v.1l.3.5.3 1v.3h.1l.1-1.3v-.3l-.2-.3-.5-.5-.2-.2-.1-.2v-.6h0v-.7h-.1l-.1-.2h-.1v-.7l.2-.5.7-.7h.2V81.1h0l.2-.3.3-.3h0l.2.4.2 1.2v.3h.3l-.1-.4v-.4l.5.6.3.2h.5v-.7h-.1l-.3-.7-.1-.4-.1-.3V80.1h.1l.1-.1.1-.1h0V79.5l-.3-.1h-.1l-.2-.4h0l.7-.1.5-.2.3-.1.2-.2h.6l.5.3 1.1.1.6.2.4.4.3-.1h.3l.3.2h1.5l.3.1.4.3h.3V332.9zM4.9 244.6l.1.3v.6l-.2.2h-.2l-.2-.2-.1-.5-.2-.6-.3-.3-.1-.2-.6-.9-.5-.4-.5-1.4-.6-.8-.2-.3.1-.2v-1l-.6-1v-1.6l.2-.3.2-.2.2-.1.1.1H2.1V236.8l.1.6.3.6.1.8v.5l.3.5.3.7.4.8.2.6-.3.8v.4H4l-.1-.2h.1l.2.1.1.3.2.2v.2l.2.2.1.2.1.1v.4H5zm-2.2-12.3v-.3l.3-1V229.2l.2-.5.4-.3-.1.5v.4l-.1.1v1l-.1.2-.3.5v1.1l-.1.2h0l-.2-.1h0zm1.3-5l-.3.4v.2l-.1.4v-.4l-.1-.2.3-2.4.2-.7.1.3v.4l-.3 1.4v.4l.2.1zm31.8-62.6v.5l-.3.4V166h0l-.2.1h0l-.2.2h0v.3l-.2.1-.5.2v-.2l-.2-.1H34h0v.2h-.4l-.1-.2v-.2l.2-.6.2-.4 1-1.2.4-.3h.3v.2l.1.5v.2zm123-79.1v-.2h.2l.1.1.1.2v.2h-.2v.2l.1.1-.2.1h-.4 0-.1v.1h-.2 0l-.5-.1h0V86l.6-.2h.3l.2-.3zm2.1 1l.4.2.3.7h.3l-.2.2-1.1.5h-.4l-.1-.2v-.2H160.4l.2-.3.2-.2h.2-.2l-.4-.1h-.1l-.2.1h-.1v-.2l-.1.2h-.2l-.2-.1-.2-.1.2-.2V86.6l.1-.1h.4v-.2h0V86h-.2l.1-.2.7-.4h.2v.1l-.2.6v.1H160.9l.1.2v.2zm4.9-5l-.1.1v.1h.1l.1.1v.4h-.2l-.2-.1h0l-.1-.3h0l-.2-.1h-.2 0l-.1-.2v-.3h.3l.2.2v-.1l.1-.1.1-.2h.1l.1.2v.2h0zm3.6-7.2h.2v.2l-.1.4-.3.3V75.6l.3.4v.2h-.1l-.3.2h0-.2l-.1.1V76.8h0l-.2.1-.1-.2v-.2h-.4 0l-.1-.1v-.9l.2-.1h.1l.2.2h.1V75h0l-.3-.2.1-.2.3-.2.2-.2V74h.2v.2h.1v.2h.2zm-131 265.9l.1.3.2.7v.4h-.2v-.5l-.2-.4v-.3l.2-.2zm-2.2-2.5h.7l.1.1-.3.2-.2.1h-1l.2-.2h.3l.2-.2zm-25-56.4h.4l.1-.2.1-.1h.4l-.2.2-.2.3-.2.1-.1.2h-.2v-.5zM230.4 79.8V80H230v-.2l-.3-.3v-.1l-.1-.3h0l.3.1.2.2v.1l.2.2zM229 79l.6.9.1.3.1.4v.7V81.1h-.2v-.2l-.3-.3-.3-.7-.2-.3-.2-.5h0v-.2h.2v.1h.2zm73.5-38.7h.5v.1l.2.3-.1.3-.3.1h-.2l-.2-.2-.1-.4-.2-.5.3.2h.1zm1.1-.5l.3.2h0l-.5.2h-.2l-.2-.2h-.2v-.2l.7-.1.1.1zm2.2-1.3l-.2.2h-.3l-.4.1-.2-.2.1-.3h.4l.4.1h.2zm-23.6-4.8h1V34h-.4l-.5.1h-.2v.2l.1.2v.1l-.1.1h-.5 0V34.1h.1l.2-.1.3-.3zm1-1.9v.2l.1.2.2.2.1.1H282.5l-.2.2-.1.2-.2.2V33l.1-.1v-.5h.3l.3-.2.2-.1.3-.2zm-61.5 48.2h.1l.6.1.6.3v.1l.2.1v.4h.1l.2.1h.3l.3.2.1.3v.8l-.1.3.1.2.2.3v.6l-.4.5-.2.7h.2l.4-.8h.3v.3l-.2.2v.3l.1.2.4-1.7.3-.1v-.3l-.1-.8v-.2l-.2-.1V81l-.3-1v-.3H225l.2.3.1.3h0l.4-.3h.4l.5.2.2.4 1.4.4.3.3h0l.2.8h.2l.4.3h.1l.1.3.2.5.2.2v.2l-.1.5v.3l.5-.5h.5v.5l.1.3h.8V84.4l-.1-.2-.9-1V83l-.4-.8-.1-.9-.1-.2.1-.1.2-.4v-.2l.2-.7v-.1h.2l.4.2H231.8l.5.2h.4l.3-.1.3-.2H233.6v-.2h.1l.6-.5h.1l.1-.1h.3l.4.3v-.4l.1-.8-.1-.2-.1.5-.3.2-.8.2-1.3.6h-.5l.4-.5v-.2h0l-.5.3h-.6l-.6-.5V78l-.3-.2-.3-.2-.3-.3-.2-.6V76.4h.2l.6-.1h.6l.3-.1.2-.3h.1l.6-.4.1-.2h-.3l-.3.1-.3.2-.5.3h-.2l-.6-.1H229.7h0l-.1-.1h-.1l-.2-.1-.3-.1-.8-.7h0-.2 0l-.1-.2h0l-.1-.1h-.2 0v-.2l-.1-.1V74l-.8-.4v-.1l.1-1.2h0l.4-.5.1-.1v-.5l.2-.2.1-.2.6-.6.2-.3v-.2l.1-.3V69l-.2-.3v-.1H228.6l.2.1.2-.1v.4h.7v.2l.3-.4v-.4l-.1-.4.1-.2v.5H231.3l.3-.2.3-.4.1-.4v-.7l-.1-.1-.2-.1V65.7l.3-.4.7-.6.3-.3-.2-.3v.1l-.1.1v.1h-.2l.1-.3V63.2l.3-.9.3-.4V61l.1-.2h.1l.2-.1.1-.1.1-.4.1-.2.1-.2h.1l.1.1v.8l.2.2h.2l.5.2h.2l.8-.3.3-.2.7-.6.3.1.4-.4.7-1 .3-.3.2-.2h.5l.4.3h.2l-.1-.4-.2-.1-.2-.2-.3-.1h-.3l-.1-.1-.2-.2-.2-.4-.8-1h0-.4 0l-.1-.2v-1.7l.1-.2v-1.1l.2-.3H237.7l.1-.1.1-.2.2.2v.2l.1.2h.6l.5-.3h.3l.2-.2.2-.3.2-.3v-1.1l.2-.5V50l-.2-.3v-.3l.1-.3h.2l.2.1h.2v-.4H241.3l.2-.3h.4l.5.3h.2l-.2-.2V48h.2l.6 1.2H243.4V49.6h.4l.2.1h0l.2-.1h.7v-.2l-1-.3h0-.2 0l-.1-.1h0l-.1-.1-.2-.2h0v-.1l-.2-.1h0l.2-.1h.4l.2-.2h0V47.8h-.5 0v-.2l.3-1v-.2l-.2-.3v-.2h.2l.2-.2v-.1l-.2-.2h-.1l-.2-.1v-.1l.3-.2h1l.3.4H245.6l.3.1.3.2-.1.3V46.6l.1 1v.2l.2-.2v-.4h.2l.4.2.5.8.3.4v-.3h0l-.1-.1.2-.2h.3l.5.4-.1-.4-.3-.3-.4-.2-.3-.3-.1-.3v-.1h.6l.4.2.2.1V47l-.2-.2-.3-.3h0-.4v-.2l-.1-.1-.1-.2h-.4l-.2.1-.2-.1v-.2h0v-.5l.4-.1-.1-.2v-.2l.5-.2h.1v-.2h.4l.2.1 1.2.2.4.2v-.3l-.1-.1-.2-.4V43.1l-.1-.2-.3-.4V42l.1-.2.2-.2h.3l.3.3h.2l.2-.2H250.8l.1.3.2.1h.3l.3.3.3.1h.1l.1.3.2.1h.3l-.3-.4v-.2l.2-.2.1-.1v-.5l.2-.5v-.6l.2-.2h.2v.4l.2.1v.8l.2.7.2.5.4.3.5.4.2.1.3.1.3.1h.6l.6-.1h.5l.3.1h.1l1.2-.2 1-.1.5-.2.3-.2.3-.3H261.3l.2-.1h0l.1.2v.1l.1.2.3.2.6.2.3.2h.3l.3.2h.2l.3-.2.5-.3.5-.4.2-.3h0l.7-.2v-.1l.2-.4v-.2h.4v.3l.1.3.1.4h.3l.3-.3.4-.1H268l.1.2.5.8v.3h0V44l-.2.1v.1l-.1.2h0v.5l.2-.3.3-.4.3-.4-.4-1v-.6l.2-.5.4-.2h.3l.8-.6h.4l.4.2.5.2.5.2h1.1l-.1-.1h-.5l-.1-.1-.1-.2h-.1l-.6-.4-.2-.2V39.6l.2-2v-.4l-.1-.2-.6-.4h0v-.3l.6-.6.2-.2.2-.5v-.1l.4-.1v-.1l-.7-.2-.5-.1-.2-.1-.2-.2-.2-.2-.2-.2h0v-.5l-.2-.1-.2-.1v-.3h-.2l-.2-.5-.8-.4h-.3l-.6-.2h-.3l-.5.4H266h0l-.2.1-.1.1-.1.1-.1.1h-.1 0l-.2-.1h0l-.4.4-.3.1h-.5l-.2-.2-.2-.1-.1-.1h-.1v-.2l-.2-.2v-.1h0l.2-.1h.2v-.2l-.2-.2h-.4l-.3.1-.1-.4h-.1l-.2.1h-.1l-.1-.1v-.2l.3-.1.1-.1v-.2l-.2-.1h-.5 0V30h-.4l-.4-.2H260.8l-.3.2h-.1l-.7-.1h0l.1-.2h.4l-.2-.5h.2l.3.2h.2l.1-.2-.1-.2-.2-.3v-.3h.3l.1.1.2.1h0l.1-.2h0V28h.1v.1l.3.2.4.7h.4l.3-.3v-.2l-.2-.3V28l.2.1h0V27.3h.1l.3.1.1.1.1.2.2.3.5.1V28.8l.2-.1.2-.2h0l.1.2h0l-.1.3h0v1.2h.1v.1h.2v-.4l.1-.1.2.3v.8l.3.3h.4V31l-.2-.3v-.2h.4l.1.1.1-.1V30l-.3-.2h-.1 0-.2v-.1h0v-.2h0V29l-.1-.2.1-.2v-.3l-.3-.3-.1-.1-.2-.2v-.2l.2-.2.4.1.1.2.1.3.2.2h.2l.1.2.2.6.1.2.3.2v-.7l-.2-.6.1-.2.3-.1h.2v.1l.3-.1h0v-.3l.1-.1h0l.1.3.5 1h0v.4l-.1.5.2.1h.1l.1-.3.2-.6.3-.2.4.3.4.6.2.5v.2h0v.2h.2v-.1h.2l.1.2v.1l.2.3.6.4.3.5.2.5.4.5h.8l.3-.3.3-.2.1-.4h.1l.1-.1h.2l.1-.2h0l.1-.1v-.1h0V31h.3l.4.2.2.1V30.6l-.4-.3V30H275.5v.1h0l.2.2h.1l.1.1v.1l.2.4h0l.4.2.4.4.3.5.1.4h.2l.2.1h0l.1.2V33.4l.3.5.6 1 .1.3.2.2.3.2h.3l.7.2.3-.2.1-.4h.8l.2.1v.1l-.3.1-.2.1-.1.2v.4h.7l.1-.1.2-.2v-.2H282.4l.1.3h0l-.1.1h-.1v.2h.5l.3.3h.2v-.1h.2l.2-.2h.2l.1-.3.2.3v.5l-.1.4-.2.4h.1l.1-.1.2-.4v-.2l.4-.1H285v.2h0l.2.2h0l.3-.1H285.7l.1-.2.2-.6.2.1h.7l.2-.2.5-.6h.5l.1.1h.1l.2.1.3.1h.2l.2-.2.2.3.1.2h0-.3v.2l-.2.1v.2h-.4l-.4.2-.1.3.1.3.7.5.7.4.5-.4.4-.1v-.2l.1-.2.1-.1h.4l.2.1V37.8h.2v.8l.7-.6v-.1h.1l.2.6v.1l.2.1h.2l.1.1v.2h0-.2l-.1.1v.2l.1.1v.1l.1.2V40.6h.2l.2-.3.4-.4h.2v-.5l.1-.2h.3l.8.7.5.3.6.2h1.9l.3-.1.1.2.2-.2.3-.3 1-.9h0l.3-.2h.6v.6l.2.1.1.2v.1l.2.2h.4l.1.1v.6l.2.4v.1l.4.2h.8l.3.1h0l.1.2.3.3.1.3v.1l.5.3h.1v.1l.4.3h.3l.3-.1.2-.1h.2l.2.1.2.3.2.1.2.2.2.1.3-.1-.1-.3-.6-.3-.3-.3h.9l.3-.1.2.2.2.2.2.1.3-.1h.2l.2-.2v-.2l-.3.2h-.3l-.2-.2-.4-.2h-.3l-.2-.2.2-.2h.3l.6-.3h.1l.1-.2h0l-.2-.1v-.1l.3-.3h.3l.2-.3h.7v.3h1l.2-.2.2-.2v-.2h.3v.2l.4.2h.3l.4-.4h.1l.3-.2h.1l.8-.5-.2-.1-.7.2h-.2l-.6.4h-.1l-.1-.1-.1-.3v-.4l.3-.4.1-.1h.5l.2.1h.1v-.2h.2l.2-.2h.7l.5-.3.5-.4.4-.2h0l.1-.3H316l.1-.1.2-.3v-.2l-.2-.3v-.5h.4l.3.2.2.1-.2.6-.3.5-.9.9-.4.5-.2.2h-.5v.1l-.1.1-.5.3.1.1.6-.2h.3l.9-.2h.2l.4-.3h.3v.1l-.2.1-.7.2-.3.2-.5.5-.4.5-.5.4h-.1l-.4.4-.3.2-.3.3v.5l.3.5.3.2.2.2.1.2.2.4.3-.5.2-.2H315l.1-.3.2-.3.5-.4.5-.5h.2v.1l.2.2h0v.1h.1l.2-.3v-.2h.5l.8-.9.4-.2v.2l-.3.3-.2.2-.2.1h0l-.2.3h0V42l-.5.3h-.1l-.1.2v.2h0l.1.2h0l.1.4h.6l.2-.1.2-.2h.5v.4H318.4v.2l-.2.4-.5.6v.5H318v.7l.1.3.2.1h.2v-.4h.1l.2-.1h.1v.2H319.3l.6-.1h.2l.2.3h.6l.5-.2.4-.4.3-.4.4-1.2.4-.6v-.5l-.2-.2h-.2l-.3-.1h-.1l-.4.1h-.5l-.2-.2h-.6v-.4l.2-.1h.4l.1-.4.7-1 .3-.1h.4l.4-.4.3-.3.5-.4.1-.1h.2l.1-.3h.9l.2-.3.3-.1.2-.1V38v.1l.2.2v.1l-.2.1-.2.2-.3.2h-.7l-.1.2v.5h.3l.2-.1.2-.1h.2l.2.7.1.6h.4V42l.3.3.2.2.4.4v.3h.1l.4.3h.4l.4-.2.2-.3v-.2h-.1l-.4-.1-.2-.2-.1-.3-.3.2v-.2h.4l.2-.2.5-.1h.2l.4.4.3.3h.3l.4.1.4.5.3.4v.9h.7l-.1.2-.1.1h-.5l-.3.2-.6.7-1 1.1-.1.3h-.2V47l.1-.2.3-.3V46l.1-.1v-.1H328.5l-.1.1h-.1l-.4.3v1l.3.3h-.3l-.1.1-.4.5-.3.8.2.4v.2l-.4-.1h-.5l-.3.1-.1.3.1.2.2.2v.8l-.2.1H326v-.3l-.1-.2-.1-.4v-.1l-.1-.1h0-.5v.8h-.2l-.2-.4-.3-.1h0v1l.2.1.5.5.2-.2v.6H325.6l.7.4.3.2v.3l.3.3v.1l-.1.1h-.2v-.2h-.1l-.1-.1v-.1H326l-.3.4h-.2v-.5l-.2-.2h-.2 0v.2h0-.1l-.2-.1h0-.3v.5l.1.1h.1l.2.1h0v.2l.2.2.4.2-.4.6v.7l-.3-.1h-.3l-.2.3V57h-.3 0v-.4h-.2l-.1.1-.5.2-.1.4-.3.4-.2.2-.2.2h-.1V58h-.2v-.2l.4-.2v-.2l-.2-.1V57h.2l.2.1.3-.1v-.5l-.2-.2V54.4l-.4-.1h-.1l-.2.2-.1.2-.1.2v.2l.2.2-.1.3V55.9h-.5l-.2-.4H321.1V56.7h-.2 0-.2v.2-.1.2h-.4l-.3.4-.1-.3-.2-.4.3-.5v-.4l-.2-.3h-.1l-.4.5-.3.6v.4h-.1l-.2-.1h0-.1V58h-.1l-.1-.3v-.4l-.2-.3-.3-.3h-.2l-.2.2-.1.6-.2.2v-.4h-.2l-.2.1-.2.2v.3l-.4.3v.6l.4.1h.1l.1.2v.2h-.1v.2H317.4l.1.1v.4h-.4l-.3.2-.3-.4-.2-.1-.3.1v1l.1.5v.2h-.1l-.1.1v.2l-.1.3.1.2.2.6.2.1.5-.1h0v.2h0l-.3.2-.1.4.2.4.4.1h.5l.4-.4.5-.6V63h0v-.1l.2-.1H318.8V63.2l-.2.2-.1.2-.2.7-.4.7V65.6h0l-.1.1h0l-.1.2v.4h0l-.4.6-.5.3-.3 2.5v.8h-.5l-.2.1v.2h-.2l-.3.1h0-.1l-.3.3h0l-.4.3-.3.5-.8 1.5-.1.3-.3.1h-.3l-.2.3-.8 1.3-.3.5-.2.5v.5l-.2.2h-.3l-.4.3-.1.2v.2h-.2l-.2.1h-.2l-.1-.1h-.2l-.2.1h.3v.2l.1.6.1.5.6 1.5.3.4 1.2 1 .4.3.4.1h.5l.3.3.4.3.1.1.1.3.3-.1h.3l.3.2v.2l.2.1 1 .4.3.4.4.5.5.4.5.2h.2l.5.3.2.2.5.4h.1l.2.2h.3l.4.4.5.2.3.2.2.1h0l.2.7.2 1.1v.2l.2.2.7.5h.2l.7.1.2.1.7.7.4.3.2.2.3.2H325.7l.1-.2h.2v.2l.1.4.1.1.7.5.1.1.5.7.1.1.1.1v.3l-.2.3v.2l.1.3h.3l.2-.1.1-.3.2-.1h.2l.6.1H329.8l.4.3h.3v-.5l.3-.1.5-.3h.1l.3.4.5.4.6.3.6.2.3.2h0l.3.1H334.3l.7.6.1.1v.2l.5.4 1 .7.2.1h.4v.2l.1.1h.4l.4.3.1.1H339.1l1.5.5.4.3.6.2.2.1.5.7v.3l.9 1.1v.2l.3.4.6.5.5.5.7.4V243.5H221.7V80.1v0h0zM327 91.4l.1.2.2.1.2.1.1.2v.2l-.2.3-.5.5h0l-.2-.2-.2-.2-.2-.2v-.6l.3-.1.2-.1.2-.2zm1.8-.3l.2.1.2.3v.2h-.2l-.1-.2h-.4v.1l.2.4h0v.2h0l-.3.2-.2.2H327.9v-.4l.1-.3v-.3l-.1-.4h.7l.2-.1zm3.8 1.5v.2h.2l.2.2v.4l-.2.3-.2.3-.4-.2v-.2l-.1-.2v-.1h-.4l-.1-.1-.2-.6h0v-.4l-.1-.1h-.4v.2h0-.2 0v-.8l.2-.2.2-.2.1.2.1.1h.1l-.1-.4h.1l.2-.3-.1-.3H331.8v.1l.1.4.3.1.1-.1h.2v.3h.2V92.6zm-6.3-3l-.2.4v.7l-.2.3h-.4l-.2-.1h0l-.1.1H324.9h0l-.2-.1.1-.1v-.4h-.1l.2-.3h0l.1-.2V89.6h.3l.3-.2.3-.1h.2l.2.3zm3.8.7h-.1l-.2.2V90.8h0-.1l-.2.2h0v-.1h0l-.1-.1h0V90.4h0v-.1h0v-.1l.2-.2h0V90l-.2-.1h0v-.3l.2-.2.2-.2.2-.2-.2.4v.3l.3.6zm-15.5-10.2v.4h-.5l-.3.2h-.2v-.2l.2-.1.1-.2V80h0v-.1h0v-.2l.2-.1h.3l.1.2.1.3zM329 65h0l.1-.1h0v.1h0zm-7.1-1.5v.2h0v.1l-.1.1H321.4l-.1.1-.1.2h.2l.1.2v.1l.2.2h-.3v.2l-.1.3-.1.2-.1.1h-.2l-.2.1h-.2l.1-.1v-.1 0-.1l.1-.1-.1-.2-.2-.6h-.5v1l-.4-.2v-.1l-.1-1.4.5.3h.2V64l.1-.3.1-.3.2-.2.2-.1H321l.2.1.1.1v.2h.2l.2.1v.1zm9 6.7h0l-.1.1V70.7h0l.1.1.1.1v.2h0-.1l-.1.3v.2h.2-.2 0v.2h0-.4v.2l-.6-.3h-.2l-.2.1-.2-.2h-.8l-.2-.2h-.4l-.5.4h-.6l-2.4-1h-.1l-.3-.2H323.1l-.4.4h-.2 0-.2v-.2h.1l.3-.3h.2l.4-.2.2-.2.1-.4.1-.1.1-.1v-.2l-.2-.3v-.4l-.1-.9v-.4l.2-.8v-.7l-.2-.2v-.4l.2-.1h.2l.3.4h.7l.1-.3V65l.1-.3v.1l.3.3.1.1.2-.3h0l.3.2v-.4l.2.1h.2v-.2l-.1-.2-.1.1v-.2l-.1-.3-.1-.1h-.3l.1-.2v-.2h-.2v-.2h.7v.1h0V63.8h.1l.1-.1h0l.2-.1h.1l.3-.3V63h0l.4-.1.2-.1v.8l-.5.2v.5h.1l.2.1H327.8l-.1.1-.2.3.1.2V65.3l.3.2h.2l.7.2h.2l.2-.2.1-.2v-.4h0-.2 0l.3-.7.2.1H330.2l.1.1.1.2.1.2v.2l-.1.2-.4.4-.2.2-.2.8-.5-.2-.4.2-.3.4-.1.4v.3l.1.1h.2l.1.2h.2v.2h0-.2 0l-.1.2h0-.4v.5l-.2-.2h-.5v.9l.2.5v.2h0l.2.1h.6V70l.2-.2.3.1.8.7h.1l.2-.1.1-.2.1-.1V70l.1-.3h.1l.2.2h.2l.2-.1h.2-.2v.2l-.2.2zm-11.1-10.5v-.4l-.2-.2v-.3l-.4-.2h.3l.3.4h.2l.2.3.2.4v.1l.1.1h.1l.1.1v.3l-.4-.3v.3h-.3v.1l.2.4-.2.3-.1.3-.2-.1V61l.2-.2v-.2h-.2v-.9zm9.3-19.2l.1.2v.5l.1.1-.1.1h-.1v-.2l-.2-.2v-.3l.2-.2zm-60.8 0l.3.1.1.4-.1.3h-.3l-.6-.4v-.2l.2-.1.2-.1h.2zm53.6-1.4l.4.2-.2.4-.5.3-.4.2h-.3l-.1.1-.1.2H319.7l-.1-.2v-.6l.2.1.1.1H320.2l.2-.3.2-.1h.1V40h.4l.3-.1.3-.5h.1zm2.4-1.1v-.4l.1-.4V37l.4-.3v.3l-.3.7v.5h0-.1 0l-.1-.1zm2-2.1l.1-.1h0v.3l-.3.2-.1.1v.2h-.9v-.3h.7l.1-.1.3-.3zm-9-.5V35l.4-.3.6-.3.4.2-.5.5-.2.3h-.7zm-45.8-.9h.3v.6l-.1.2h-.1l-.2.2h-.7l-.2-.1-.3-.3-.2-.3v-.3l.3-.2H270.5l.2.1.1.1H271.4zm52.2-2l.4-.2.3-.2V32l.2.3-.2.3-.2.3-.7.4h-.2v.1l-.2.4-.7.4h-.1l-.1.1h0-.2v-.1l-.2.1-.1.2-.2.2-.4.1v-.1l-.5.4h-.2 0V35l.1-.4h.2l.1-.1.3-.2.2-.2.1-.3.2-.2.2-.1h0l.3.3.2.2.1-.1v-.1l.6-.6h0l.1-.1.2-.2.4-.2zm-80.8 2.8h.2l.3.2.6.4.2.2V36.8l-.2.1-.6.3h-.7l-.4.1-.3-.2-.5-.2-.4-.1h-.4l-.2-.1-.4-.3h-.4l-.3.1-.7.1-1.2.5H236.2l-.3-.2-.2-.2v-.5h.7v-.3l-.1-.7.1-.2h.2l.5.3h.6l.3-.3.2-.3-.1-.3-.2-1.2.2-.2v-.5l-.1-.1H237.4l.4-.6.1-.2.2-.1.3-.2.2-.2.4-.7.1-.1h.6l.2-.1.3-.2v.3l.2.4.2.4.3.5v.2l-.2.3v.7l.2.2.6.5.3.3v.9l-.1.3-.1.3v0H241.9l.2-.1h.2l.4.2h0zm13.7-4v.8h-.7l-.2.3-.1.4v.9-.1l.2.3h-.8 0l-.3-.3H254.3l-.7 1.4-.3.3-.1.3h-.5l-.4.3-.2.1v.2l-.2.1-1.4.8-1.6 1.3-.3.1h-.2l-.3-.4-.4-.3-.5-.3-.7-.2-.6-.4h-.1l-.3-.1-.3-.1-.3-.2-.2-.2h0v-.1h0l-.2-.1h0l-.7-.6-.4-.3h0l-.2-.3-.1-.1h-.3l-.3-.1-.3-.2v-.2l-.1-1v-.2h-.1l-.2-.2h0l-.4-.5v-.2l-.4-1.5v-.3h0l-.2-.2h0v-.4h.1l.1-.2-.4-.4-.1-.2v-1l.2-.2.2-.2.5.7 1 1 .1.3.1-.1.2-.1.1-.1h.4l.2.2.1.2v.4l-.5.4v.3l.1.2H243.5l.1-.1.6-.6.3-.2.1.2-.2.4v.1l.2.1.3.5v.1l.5-.7.8-.2.8-.1.4-.4.2-.3h.9l.2.2.1.2.4.1v.1l.2.7v.1l.2-.1.2-1.2.2-.2h.2l.3-.2.5-.4.3-.2v.6l.2.3v.3l.7.8v.1h.1v-.4l-.2-.4v-.5h0v-.1h-.2 0V29l.2-.3.2-.2.3-.2h.6l.1.3v.4h0l-.1.2v.2H253.4v-.2l.1-.1.1-.1h.2l.2.1H254.4l.3-.1H255l.2.3v.5h.2v.8l.2.3v.1l.1.1h0l.4-.2H256.4v.2l.1.2zm71.8-5.3l-.2.8-.2.6-.2.5v.4h-.2v.1h0l-.3.2-.2.4-.4.5-.2.6h-.2l-.3.6-.6.8-.1.2h-.2v-.1h0-.2l-.2.2h-.2l.2-.3v-.1l-.2-.2.3-.2.4-.3.4-.3v-.1l.3-.3v-.6l.5-.6.5-.7.5-.2.1-.5.2-.3V27l.1-.1.2-.1v-.3l-.2-.1.3-.3h.2v-.2l.1.3zm-58.7 1.7v-.1h.2l.1-.1v-.1l.1-.2v-.5l-.1-.2h-.2l-.1-.2-.1-.1-.1-.2V26h.1l.3.1.1.1h.1l.2-.1.3-.1v-.4l.2-.3.1-.2h.3v.2l-.2.2V26.1l.2.3h0v.2l.1.1v.2l.1.2v.2h-.2l-.2.1v.3h.2l.3.1.2.2-.3.2v.1l.1.3.1.4v.4l-.4.6v.4l-.4-.5-.1-.5-.2-.4-.2-.4-.5-.7v-.1zM221.7 332.8V243.5H386.5V370.8l-.2-.2-.3-.2v69.2l-.2-.1-3.2.2h-.4l-.3-.1-.2-.2-.2-.2h-.5v-.1l-.2-.2h-.1l-.3-.2-1.1-1-.3-.2-.5-.2-.3-.2h0v-.3h0-.1l-.2-.1h0l-.2-.2V435.9l-.3-.6-.7-1.2v-.3l-.6-1-.4-.5-1-.8-.4-.4v-.2h.3v-.4l-.3-.4-.3-.1h-.1l-.3-.3h-.1l-.1-.1H373h0v.2h0l-.5-.2-2.7-3.8-.3-.8-.4-.7v-.2h.3l.2-.3.1-.4-.1-.4-.3-.4-.2-.4v-.7l-.2-.2-.2-.3-.4-.2-.1-.1v-.3l1.5-.9.4-.4.4-.5.2-.7v-3.2l-1.8-4.2-1.3-3-.9-2.1-.3-.3-.4-.4-.6-.8v-.3l-.2-.2-2.5-2.6-1-1-.6-.3-.4-.5-.4-.2-.5-.5-.4-.2-.5-.5-.4-.1-.7-.5.6-.2.5.3 4.8 4.4 1.4 1.4.7.8.9 1.3.5 1 .9 2h0v-.8l-.8-1.8-.1-.6-.1-.3-1.7-2.1-.2-.3-.5-.2-.3-.2-.3-.5-2.6-2.3-.3-.1-.9-.8v-.1l-.6-.4h-.2V396.8h.5v-.4l.1-.2.4-.5.3-.2.3.1.4.4.2.2h.2l.2.2.1.3v.4l-.1.2v.5H362.5v.3l-.1.1-.2.2v.4h.2l.7.1h.3l.3-.2v-1l.3-.3v-.3l-1-.9-.3-.1-.4-.1-.2-.1V395.7l.5-.1v-.1h.1v-.1h.4l.7.1h.2l.1-.2v-.4l-.2-.2v-.2l.1-.7v-.2l-.2-.1h-.1l-.4.4-.1-.7-.5-.4-.6-.2h-.6 0v.1h.2l-.1.3-.7.4-.2.2-.3.2h-1l-.6.2-.3.2-.1.4v.4l.2.2.6.2.3.2v.4H358.8l-.2-.2-.8-.1-.1-.1-.2-.3v-.1h-1.2l-.2.2.2.3h1.2l.2.1.1.1.2.3h.6l.3.1v.2h-.4l-.3.1h-.1l-.3-.1h-.2 0l-.3.2h-.4l-.5-.4h-1l-1.1.3-.3.2-.2.2v.3l-.3.2-.5.4-.5.2-1.3.2H349v-.2l-.2.2-.3.1-.3.1H347.7l-.2-.1-.7-.7v-.8l.2-.3.2-.3.3-.2 1.3-.6.4-.4.4-.5.4-.6.2-.3.2-.1h.2l.3-.2.3-.2.1-.2v-1l.1-.4v-.1l.2-.1.1-.1v-.8l-.1-.1V389l.2-.3.5-.6v-1l-.3-1.4v-2l.2-.4h.2l.2.2.2.3v-.7l-.1-.3-.3-.1h-.2v-.2l-.2-.1v-.2l-.1-.1-.4-.1v-.1l-.2-.2v-.6l-.5-.5-.4-.3-.2-.2-.2-.7-.2-.3-.5-.2-.2-.4-.2-.7-.5-2-.3-.5-.4-.3-.3-.2v-.2l.1-.3v-.3l-.8-1.1-.3-.3-.2.2v.4l-.2.3-.5.8V375l.1.3.1.1v.1l.1.2-.5.8-1 1v.2l-.5 1.6V380.2l-.1.2.4.6-.2.3-.2.4v.4l-.2 1.1v.5l-.3.4v.1l-.1.2-.3.4V385l-.3.8-.3 1-.1.5v.4l-.2.3V389.4h0l-.5.3-.3.4-.1.2h-.2l-.7-.3-.6-.4-.2-.2h-.8l-.2-.1h-.1l-.5-.1h-.3l-.3.1-.3.2-.4.5-.3.1h-1.3l-.4.5-.2.4-.3.3h-.7l-.8-.2h-.3l-.8.4-.4.5-.5.2h-.6l-.2-.4h0l-.3-.2V391.3l.1-.2v-.2l.2-.2.4-.3.2-.1v-.2h0l.3-.2v-.1l.1-.1.1-.2.3-.6v-.6l-.1-.3-.1-.1v-.4l.4-.3v-.5l.5-.8.1-.3h.2l.9.4h.6l1.1-.3H335.5l.1.2.2.2.7.1.2.2H337.3l.4-.5V384.6l.1-.7.3-.5v-1l.5-1.5-.2-.5v-.6l-.2-.5v-1l-.3-.3-.2.1-.2.2-.3.1v-.1l.3-.7.2-.3h.2l.1-.3v-.2l.2-.3.1-1.2v-.8l-.1-.3-.1-.4-.3-.5V373h0l.2-.1.3.2h.2l.2-.2.4-.9V371.4l-.1-.4-.1-.1h0v-.3l.2-.3.3-.3.3-.2.3-.2.1-.1v-.2l.1-.2v-.2l-.2-.1v-.1l-.2-.2h.2l.2-.3.3-.4.7-.6.2-.1.5-1 .3-.6.3.1h0l.9-1.2.2-.5.4-.1v.1l-.1.3.1.2.3-.2V363.6l.1-.4v-.7l-.2-.4-.2-.5-.2-.3-.1-.2-.1-.2-.2-.3v-.3l.1-.3-.1-.3-.3-.3-.3-.5-.1-.5.1-.2.2-.4.1-.3.2-.3.5-.1.8-.6H345l.2-.1h.2l.2.1h.1l.2-.1v-.2h0v-1l-.1-.3-.1-.2-.2-.2h-.4l-.1-.1-.1-.1v-.1l-.9-3.6v-.2l.2-.1.3-.2-.5-.5-.1-.1v-.1h-.1l-.2-.1-.1-.1h-.1 0-.1v-.2 0-.1h0v-.7l-.4-.2-.1-.3-.1-.2v-.2l.2-.2v-.2h-.4v-.2l-.1-.3-.1-.1h-.1l-.1.3v.3l-.1.3.1.3v1.1l-.1.3v.2l.4.2.1.1.1.2v.2l.1.7V352l-.1.2-.1.4-.1.2h-.2l-.1-.1-.1.2v.5l.3.3v.4H341.4l-.3-.2-.4-.4H340.2l-.3.4-.2.2V354.6h0l-1.1 1.3-.3.2-.3.1-.2.2-.1.3v.8l-.2.3-.6 1.1v.3l-.2 1.3v.4l-.2.3-.6.8-.1.3-.8 1.9-.4.7-.3.2-.2.2-.4.4-.3.1-.7.1-.9.2h0-.2l-.1-.2h0v-.2l-.1-.1-.3-.2h-.3l-.2.1v.4l-.1.1-.2.2h-.2l-.1.2V366.7h0l.8-.2h.3l-.7.5-.2.1-.3.2h-.7l-.3.1-.2.2-.2.2-.2.1h-.4l-.1.2-.2.3h-.2l-.4.3-.8.3-.3.2h0v.5l-.7.4-.4.5-.2.1-.6.2-.2.1-.9.8-.1.2v.5l-.1.1v.2l-.3.2v.2l-.2.5-.3.4-.9 1.6-.4.4-.9.4-.3.5.2.2-.1.2-.2.1v.2l.2.2V379.2l-.3.3h-.2v-.5l-.2-.4h-.4l-.7.5h-.3l-.2.1-.2.3-.1.2-.1.5-.1.2.3.5v.3l-.1.2-.3-.3h-.3l-.2.2v.4l-.1.2v.6l.2.3.1.2v.4h-.7l-.2.1v.2l-.3.2h0v.3H316.3l.2-.2.5-.6h.3v.2H317.7V383l.1-.1H318v1.3l-.2.3-.2.2-.2.2v.3l.4 1.1h0v.3h0l.2.3-.1.2-.4.1-.2.2-.2-.2-.3-.7-.2-.2h-.1l-.3-.2h-.2l-.1-.1V385.7l-.5-.6-.6-.2h-.5l-.5.5-.1.4h0-.2V386.5h0H312.5v-.6l-.2-.6-1.3-1.4-.5-.7-.2-.3-.4-.4-.6-.2-.2-.2H308.5l.3-.6v-.2l-.3-.3-.5-.5-.5-.3-.2-.1h-.3l-.2.1h-.3l-.3.2-.2.2-.2.1-.2-.1v-.3l.4-.6.1-.3v-.4l.2-.2.2-.1.2-.3V378l.1-.2h.2v1l.2.2h.2l1 .3h.2l-.3.2v.4l.2.3.4.1v.1l-.1.2.1.2.3.2.3.2.2.1h.1l.3-.2.8-.1.1-.2-.3-.1-.6-.1V379.7h-.1l-.2.2h0l-.1.2h0v.1h-.2v-.2l-.1-.1v-.4h-.1v-.4l.2-.1V378l-.4-.5v-.2l-.3-2.2-.2-1-.4-.6h-.5l-.2-.4-.1-.1-.1-.2h.2l.2-.2.1-.2V371l-.1-.3-.2-.3-.4-.5-.4-1-.2-.1-.3-.1-.2-.2-1-1.2-.8-.8-.9-.6v-.1l-.4-.3h-.1l-.2-.5h-.1l-.5-.3-.1-.1.2-.2-.1-.3v-.3l.2-.3V362l-.1-.4-.4-1-.2-.7-.2-.3-.4-.4-.5-.6-.2-.1-.3-.2h-.1l-.2-.4h.8v-.3l-.2-.3-.1-.4-.2-.1h-.3l-.9-.3h-.4l-.1.2v.3l.3.1h.5v.2l.1.2h.1l.2.2v.1h0l-.2.1-.1.1-.1.2-.3-.6-.3-.2-.6-.1-.9-.6h-.7l-.3.2-.4.1h0v-.3h-.2 0v.3l-.1.2v.2h-.3l-.7-.6-.1-.3v-.3l-.1-.3-.3-.8-.1-.2-.2-.1H292.6l-.2-.2.2-.2.5-.1.1-.2v-.6l-.2-.3-.2-.1h-.2 0l-.2.2h0-.1l-.3-.2h-.5l-.2-.1-.1-.4h0l.2-.3.1-.1.4-.3h.2v-.9l-.3-.5-.5-.8h0v-.3h.2l.5.1h1l.3.1-.1.3v.1l-.2.2V350.8h.1l.2.1h0l.2-.4v-.2l.2-.2.3-.3h0l.1-.2.1-.4.2-.3v-.3l-.3-1.2-.3-.6-.3-.5-.5-.4-.6-.7H291.8h0l-.2.2h-.4l-.1-.1-.3.1-.2.3-.2.2-.1.1h-.8l-.3.3v.1l-.1.2h-.1l-.2.1h-.4v-.3h0V346h.1v-1.3l.3-.3.1-.2.1.2.1.2h.3l.2-.2V343.9l-.5-.5v-.3l-.2-.2-.6-.6-.2-.4-.1-.1h-.2l-.2.2h0l-.1.1h-.2l-.1-.1V341.4h-.2l-.3-.2-.3-.1h-.1l-.2-.2h0v-.4h0l-.2-.1h-.1v-.4h.1v-.4l-.4-.1-.3-.1h-.3l-.2.1v.3l-.1.4-.1.3-.2.1h-.1l-.6-.3-.2-.1v-.1l-.1-.4h-.1l-.4.2h-.4v.5h.4l.3.2.3.3v.2h-.4l-.2-.2h-.2 0l-.1.2v.1h-1l-.4-.1-.3-.2-.3.4h-.2 0l-.3-.2-.3-.1-.3-.2H279.1l-.3.2h0-.1 0l-.1-.1-.1-.2-1.1-1.1-.3-.2h-.4l-.1.1-.1.1h-.2v-.4l-.1-.2h-.2l-.3-.2-.9-.7-.3-.4-.7-.6h-.3l-.3-.1H272l-1-.2H270l-.3.2h-.3l-.2.3v.5l.1.2.2.2-.1.1h-.2l-.2-.2h-1l-.6.3H266l-.5-.3-.5-.4-.7-1-.4-.4-2.2-1.3-1.9-1.6-3.4-2-2.6-1.2-2.3-.8h-.6l-.6.2-1.3 1-2.2.8H245l-2-.3h-3.3l-.6-.2h-1.8l-.8.4-1.9-.1-2.6.4-3 .1-.8.3h-1.5l-.8.2h-1.5l-.8.4H223l-1.3.2zM347 401l-.1.3v.5l-.4.1-.1.1-.4.6-.2.1H345.3l-.2-.2-.5-.4h-1l-.4-.2H341.9l-1.1.6-.6.1-.2.2-.1.4v.4h0l.1.1v.1l.1.2v.2l-.1.2h0l-.2.2-.6.1-.9.6-.4.2-.2-.2-.4-.2-.6-.8-.5-.2h-.7l-.6-.3h-.4l-.4.2v.4l-.2.3-.4.1h-.2l-.5-.2h-.2l-.4.1h-.2l-.2-.2-.9.4h-.9l-.2-.3H329.5l-.2.2H328.7l-.1.1-.2.2h0H327.4v-.5l-.3-.4-.4-.5-.1-.1-.6-.1-.2-.1-.8-.8.1-.1V401.9h.1l.1-.1v-.1l.1-.5.1-.1v-.2h.2v-.7l.2-.2h.4l1-.2.6-.3h.4l.1-.1.3-.2h0l3.8-.6.2-.1.7-.4 1.9-.5.2-.1.1-.2.2-.2h.5l1.1.4h.2l.3-.2H339l.5-.2H340.3v.3l-.2.1-.3.1-.2.3v.2l.2.1h.6v.2l-.3.4-.6.7.3.3h.6l.6.2h.3l.6-.1.2-.1h.2l.1.2v.8l.3.1h.3l.3-.1.2-.2.2-.2.1-.3v-.3l.2-.3h.8l.6.2.6.3h.2v.2l.1.5.1.2h.2l.2.1h.3zM324 389.7l.2-.1h.2l.1.3.2.2-.1.2-.1-.2h-.5l-.1-.1v-.3zm-3.8-2.3l.2.2h0l.2.2v.7h-.2l-.4-.1v-.3l-.1-.4-.1-.4-.6-.6-.2-.3.4-.2.2.2.6 1zm16.4-9v.9l-.2.2-.1-.1-.1-.3v-.2l.4-.5zM298 365.8v.4h0l-.3.1h-.2l-.3.6-.2.1v-.7l.1-.2v-.2h0l.2-.2h.4v-.1h.2v.2zM284.4 343l-.3-.1v-.3l.2-.3.3-.3h.2l.4-.2h.7v0l-.8.2.2.3h0l-.1.2-.1.1v.2H284.7l-.4.2z"/>
  <path d="M345.3 104h0l.8 1 .6.3.7.6.4.3.5.2h.2l.4.2h.2l.2.2h0l.3.1h.8l.4.1.6.4.7.2.7-.3h1.5l.4.5h.1l.2.1.4.2.2.1.7.2.5.3h.4l1.4.2.5.1.4.3.4.9.4.4.9.4-.2.5v.7l.1.7.2.5.6 1.2.4.6.5.3.5.2h1.2l.5.2.2.1.3.3.5.3h.1l.2.3.6.4.6.6.3.3h.4l.4.1 1.2.4h.3l.2.1.1.2 1.3.5.1.1.3.5.5.5h.2l1.6.2 1.7-.2 2.2-.5h.3l.1-.2.1-.2H379.7l.2-.1.3-.2.3-.3h.5l.1-.2h.1l.4-.3.4-.4.2-.2h.6l.2-.2v-.2l.1-.2.2-.2h.3l.3-.2h.3l.2-.1.1-.3.4-1.1.1-1.2.2-.6h0l.4-.4v-.5h.1v-.3l.2-1v-.2l-.1-.2v-.6l1.4-1.6.4-1.2h.1l.3-.1h.1l.1-.1.3-.4.7-.8.1-.3v-.2l.3-.5.1-1 .2-.1h.2l.3-.6.1-.3v-.3l.1-.3v-.2h0l-.1-.1V101.8l.4-.5v-.5l.3-.6v-.8l.1-.1.2-.2v-.3l.8-1.4.1-.3-.2-.3-.5-1.5V95l.3-.2v-.7l.5-3 .7-2.3 1.1-2.8v-.2l.1-.5v-.2l.2-.2h.2l-.1-.4.2-.2.2-.1.2-.3v-.2l-.1-.2v-.2h.3v-.6l.1-.3v-.6l-.1-.3-.2-.2-.1-.2v0-.2l-.3-.4-.1-.3-.8-3.7v-.9l-.1-.2-.2-.5V74l.1-.6.8-2.2.1-.6v-1.2l-.2-.6-.3-.4-.4-.4-.7-1-.2-1.1.1-1.3.7-3 .3-.6.1-.3v-.1l.5-.6.1-.2.4-1v-.3h.2l.2.1h.2l-.1-.3V58l.1-.2.1-.2v-.1l.2-.3V56.7h-.1v-.1h-.1l-.2-.2h0l-.1-.1v-.1l-.2-.1v-.2l-.2-.4v-.2l-.2-1-.1-.6h0-.2v-.1l-.1-.2h0l.3-.6.2-.2.1-.2V52l.2.2h.3l.2-.3.5-.3.3-.3.3-.3v-.3l.1-.2.3-.9.1-.4v-.2l.2-.1h.1v.4h0l.3-.3h.2l.2.3.2.3.1.8V51.4l.2.2h.1l.4.7v-.8l-.3-.5v-.6l-.2-.2 1.2-.4.2-.2h-1.1l-.3-.2-.2-.2-.1-.2-.7-.2h-.1l.2-.2.5-.3.3-.3h.3l.2-.2H399.9l-.4-.2h-.4l-.3.2-.2-.1h-1.2l-.2-.1-.1-.2-.2-.3-.1-.2h-.2l-.6-.3.6-.4.2-.2h0H395.8l-.3-.2h0V47h.5v.2h-.5l-.6.3h-.3l-.1-.3V47l1.4-3 .2-1 .1-.2h.2l.6.2h.4l.1-.1h-.1l-.1-.2V42.4h-.2 0v.2H396.8V42.3l.1-.6.3-.5.2-.9.4-.7.6-.5.5-.2-.1.3v.5l.2.8v.6l.5-.9.1-.1h.2l.6.5.2-.5V40l-.3-.1-.2-.4v-.1l-.3-.1H399.6l-.1-.5V38l.3-1.2.6-.7v-.8l1.6-5.1V28.9l.1-.3.2-.4.1-.5v-1.2l-.2-1.2.1-.4.3-.3.7-.2v.1l.2-.1h.3l.3-.1h.2l.4-.1.2-.2.3-.4.5-.6.1-.2v-.2l.3-.6v-.3l.3-.1h.8l.3-.3h.1v-.1h.1v.2h0l.3.2.5.2.2.2h0v.2l-.2.2h0l-.1.2h-.3v.1l-.1.1-.2.4h0l-.1.1-.3.1h-.1v1.1l-.2.3h.3l.2-.3.2-.3V24l.2-.2h.7l.1.2.1.7h.4l.1.3-.1.4v.3l.2-.3.3-.2h.4l.2.1v.2l.2.4v.1l.2.2.1.2.2.4v.9l.2.3h0v.2l-.1.2v1.1l.3.3h.1l.2.2v.2l.1.2v.2l.3.3v.2l-.1.2-.2.1-.3.6-.1.3v.2l.3.1v1.1l.2.3v.1l.1 1.9-.1 1.2v.2l.2.2.8.6h.1l.5.4.2.1h.7l.5-.3.4-.1.2.1.8.7H417.2l.2.1-.2.2h-.4l-1.4 2.2h0-.2v.4h0v.8h0l-.2.2h0l.1.1h.1l-.1.3V44.3h.3l.5.1h.6l.3.2h0l.6.4h0l.2.2v.2l.1.3v.8l.2.3.1.3.2.2.2.1.5.2h.4l.2.2.4.4v0l-.3.5-.1.2v.1l.1.2-.4.7v.2l-.2.8v.8l-.1.2.3-.3h0l.3.1H419.8l.2-.2h.1l.1.1h.8l.2-.2.2-.1-.6 1.2.2.5v.6l-.1 1 .3 1.8v2.1h0l.6.5v.1l.2.2v.2l.1.2h0l-.2 1v.2l.3.1-.1.3-.4.8-.1.5-.1.8-.2.6v.4l.3.6v.4l.5.6v.6l.1.1v.2l.1.1.1.1.9.7v.2l.2.8v.3l.1.3v1.3l.6 1.9.5.9.3.4.4.3.2.2h.2l.2.2h.7v.1l.2.3.1-.2h.5l.6-.4.5-.2.6-.7.3-.2h.2l.2-.3.2-.2v-.2l.1-.4v-.7l.3-.2h0v.2h.2l.1-.1h.1l.2.5h.1l.2.2h.5l1.8-.8h.1l.3-.8h0l.1-.1V70h.4l.2.1v.1l.1.2h.1l.2.1.5 1-.1.1V73h.3l.3-.1.2-.2v.5l-.1.2-.1.1-.1.2v1l.2.1.4.3v.1l.2.4v.1l.4.1.5-.1h.3l.2.2.1.2.2.3h.4l.9.1h.2v.2h0l.1.2v.1l.1.2.3.2h0v.8h0l.2.2.8.6.2.3.4-.2.3.1.3.3h.3l.2.1.2.1h1l-.2.3.1.4.8.9h1l-.2.3-1 1.5-.2.3-.1 1v.2l.2.5v.4h.2l.2.2h.4v-.2l.2-.4.2.2.1.3v.3l-.6.2-.3.2v.3l.2.2-.1.1v.5h-.2l-.2.1h0l-.2.3v.5H445.1l.1.5v.3l-.1.1h0v.4h0l.6.5h0l.1.3V90.6l-.2.3h0l.1.1.6 1.2.1.2V93.7h.1v.4l-.2.3v.4l.1.2.3.3.6.8.3.5.2.5v.5l-.3 1-.1.5h0l.3.2h0l.2.4v.2l-.1.2-.5.4-.2.5v1l-.2.5v.2l.1.2h.1l.2.1h.5l.1.4v.3l.1.1.5.5.2.5.3.3h0v.3l.2.2.2.2.6.6h.2l.3.2.1.1.1.1v.4l.1.1.2.1.2.2h.1l.3.7.2.2.3.3h0v.3H451.7l-.2.1v.4l.3.1.1.2v.4h0l.2.1h.1V109.5h0l.1-.2.4-.3.1-.2.3.2.1.2h.2l.3-.3.1-.1.1-.1h.5v.4h0l-.2.2h0v.5l-.2.2h0l-.2.1-.2.5-.1.2v.8h.2l.1.2.6 1v.4l.1.3v.3l.1.2.5.7.4 1 .1.2.3.2h.1V118l.2.4.3.5.4.4.1.2v.4l-.4.3v.3l-.1.3v.9h0l-.2.2-.1.2h0l.2.1v.4l.1.3.1.2-.1.1v.5l-.1.1v.2l-.4 1-.7 1.3v.4l-.2.4v.8l.2.2-.1.3.2.4 1 1.3.3.2h.8v.2l.1.2v.5l.4 1v.2h.5l.2.1.1.1.2-.1h.2l.5.1v.7l-.1.6-.1.5-.4 1-.2 1.6v.1l-.1.1v.5l.3.3v.2h.1l.2.2v.1l.2.4 1.1.8.2.2.3.5.2.2.2.1.6.2.2.1.3.4v.1h.4l1 .7.5.1.7-.3.2.2.2.4.4.4.2.1h.1l.3.3.4.3.4.2.5-.1h.2l.3-.2.4-.4.2-.3v-.8h0v.2l.3.3.1.2v.1l.2.1h0v.2h-.1l-.1.5v.4l.4.4v.1l.7.9.2-.2h.3l.7.2.3.1h.2l.4-.1h1.9l.4-.2v-.3l-.1-.3-.2-.2-.3-.2-.1-.2v-.2l.3.2.3.4.6 1.6.8 1 .2.2v.8l.2.3.2.4v.3l.1.4v.2h-.5l.3.2.1.1.3.5 1 1 .5.1h.9l-.4-.8V150.4l-.1-1 1 .4.3.3.2 1.3.2.4.3.4.4.3.3.1H482.8v-.1l.1-.2h.4l.3-.1h.2l.4.6v.1l.2.1 1 .2.7.2h.3V154l.4.5h-.3l-.2.2h.1v.4h-.1l.3.2.2.1.3.5h0l.2.1.5.4.3.1.1.1v.3h.7v-.2l.1-.2H488.7l-.3-.1.2-.2H488.9l.2-.1v-.4h-.1l-.2-.1v-.1l-.2-.2v-.2l.1-.2.2-.1.2.1.1.2H490l.2-.2.2-.2.1.1v.9l.1.4.2.4h.4l-.1.3V157h.2l.2-.2V156.6l.1-.2h.2v.5l.2-.1.1-.1V157l-.1.2h-.2l.3.2h0v.2h0v.4l.5-.3h.5v-.4l.4.2.3.4-.2.3h0l.3.3h0v.2H494.1l.2.4v.2l-.1.2v.2l.1.4.3.3.7.5h-.3v.3l.3.3.2.3h-.4 0l-.2-.2H494.6v.1l-.2-.2v-.2h-.2l-.2-.1v-.7h0l-.3-.2h0-.2 0V160.7l-.1.2H492.8h0l-.1-.2-.1-.1-.4-.1v.2l.3.4v.6l-.3.3-.3.2h-.3v.2l.2.3.3.3h0V163.3h.4l.1.2v.2l-.2.3.2.1.2.5.3.1h0l.3.4v.2H494.1l.1.2v.1l.1.7h0v.1l-.1.1v.4l-.1.1-.1.1h.2l.2-.2.2-.5.2.2.2.1.1.2H496l.4.4H497.3v.3h-.2l-.2-.1h-.2l.2.3v.2l-.1.2v.2h.2l.4-.1h.3v.2l.2.1h.5l.2.3v.2l.2.2.1.1h.2v.1l.4.6v.5l-.5.8v.6l.5.8h.2v-.3H500v.2h.1v.1h.2l.2.3v.2l-.1.1v.4l.4.5-.1.1-.1.1h-.2l-.1.1.1.2h.4l.2.2-.2.2-.2.1-.2.2-.1.4v.4h.3l.5-.5.1.2.3.1h.2v.5l.1.2.2.1V177.1l.2.1h.3l.1-.2.2-.4.1-.2.1.1.1.2.1.3-.7.8V178.4l.2.5.2.2v.4H502.5l-.2.2-.1.3v.3l.2.3.1.3.1.1.1.1v.1l.1.2v1.3l.6.9v.2l.1.7.1.3.5 1-.2.1V186.2h.2l.1.3v.1l.4.4v.2l-.3.3h0v.1l.7.3h.1l.1.1.1.3.1.2.2.1.2-.1.1.3v1.2l-.2.2-.2.2-.1.3h.4l.5-.3.5-.4.2-.3.3-.5.1-.2.3.2.3.4.2.3v.3l.1.1 1.2 1v.2l.2.5.3.4.3.4.3.2-.3-1.4-1-2.3-.2-.3-.1-.3v-.3l.3.1-.1-.2-.2-.3v-.5l.2-.2.2-.6.1-.5.2-.2.1-.2h.2l.2-.1.5-.2v.1l.3.1.1.1v.1l.3.7.1.2.1.2.2.2h.2v.1l.1.2v.4l.1.1.4.2v.2l-.2.2.2.4.3.3 1.2.3.2.1.4.3.2.1.4.2.2.1.1.1.3.4.2.1.2.1.7.2.3.2 1 1 .1-.1-.2-.3-.2-.4-.1-.4v-.3 0l-.4-.5-.2-.8.1-.9.4-.6h0l.4.3.3-.1h.2l.1.3-.2.1v.1l.1.2h0l-.2.1h.2l.1.2h.2v.2h.2l-.1-.3v-.4l.2-.2v.7l.2.3.2.2h0l.4.2h.2v.1l.1.2v.2h-.1l-.4.5-.2.1-.1-.3H519.4l-.1.2.3.2-.2.4h.5v.7l.1.3H520.3l.1-.2v-.2l.1-.2v-.8h.2l.1.2v1.6h.4v.3l.2.4v.5l-.2.6v.6l-.2.5V196.9h-.1v.2h0-.3l-.3.1h0v.2l.1.1.3.2h0V198.6l.1.3-.3 1.3v.5l.6.3-.1.3v.2l.1.3.2.2v-.1h0v-.1l.3.3v.4l-.4.3-.3.2.4 1.5.4.4.4.6.1.2-.1.1h-.8v.2h.3l.3.1.1.2.1.3.2.3h.3l.3-.3v-.1h.3l.4.3h.4l.2.2.2.5.4.2.4.4.2.2.2.2.2.5.1.2V209.7h.1l.2.4h0l.2.2.3.1.6.2h.4V211l.1.1v.1h.4l.2.2v.2l.2.2.8.8.3.4.1.3v.1h.2l.1-.2H530.7l.2.2.2.2h.1v.1l.2.2h0l-.1.1h-.1V214.6l.2.1.2.1h0v-.1h.1v-.2l.1-.3v-.2h0l.2.1h.4l.3.2.3.3.3.2v-.5l-.2-.3-.2-.2-.1-.1-.4-.3-.1-.1.1-.2h.2l.3-.1h.2l.2.2.2.2.1.1h.3v.2l-.3.3.1.2h.3v-.1h.1l.4-.4v.4l.1.6.2.5.2.3.3.3.2.1h.5v-.2h0v-.1h.2v.5l.2.2.2.2.1.1v.3l1 2.6.7 1.6.3.2.6 1 .3.4 2.2 1.6h.5l.8.3.5.4.4.5.3.6.1.7v1.3l.1.3 1 1.5v.2l.2.2.5.3.1.3h0l-.2.1h-.3 0H545.5h0-.1v.1h0l.3.1.4.1.2.2.2.2.2.2.2.2.2.1.7.1.4.1.3.2.3.1v-.5l.1-.1h.1l.1.4.2.1.6.1h.2V233.3l.3 1.4-.1.1-.6.4v.1l-.1.2v.1h.2l.7-.5h.3v.4h-.2l-.1.1v.2h.2l.1.2-.1.2-.5.5-.2.2-.1.4.2 1v.3h-.4l.1.3.2.1.5.3h-.2l-.1.1v.3l.3.2h.3l.3.1.5 1v.3l.2.6v.3h0l-.2.2v.8h0l.5-.9V241.3l.2-.2-.1-.3h.2v.2l.1.5.3.8.2.2.3.2h.5l.3-.2v.3l-.3.4-.1.3-.3.6v.2l-.2.2v.6l-.2.2-.2.8v.2l-.4 1.5V249l.1.2.2.2h.4v.3l-.1.4-.1.5V253.8h0l.5.2-.1.8v.7l.1.2h.1l-.1.2v.3l-.1.3v1.2l.8 1.9v.5l-.2.3-.5-.2h-.5l-.5.4-.3.5-.1.1-.2.4v.3l.3.1H552.7l.1-.2.1.1v.7l-.2.2-.2.1-.2.2-.2.3v.3l.2.2.2.1.3.1.6.2.2.2.1.3.1.7.1.3.3.3h.5l.2.3v.2l.3.4V267.3l.3.4v1.1l.1.2.2.2.2.3.1.2h0v.4l.2.1h0l.1.1.4.4.1.3v.5h.3l.1-.4h.1v.3l-.2.8v1.2l-.2-.4v.1l-.2.3v.5l.2.1v-.1l.2-.2.1-.1.1.5v1.4l.3.3.2.3.3.6h0l-.4.4-1.2 1-.4.2-.4-.2h-.2l-1.1.3H553.9l-.1.3v.2h-.2v.2h0-.2l-.3.6-.2.1h-.5 0-1 0-.1l-.8-.1h-.1l-.4-.2h-.2l-.3-.1H549.2v.1l-.2.2h-.1l-.4.2h-.6l-1.3-.5h-.1l-.4-.5h0-.2 0v.2h0v.1l-.1.1v.1l-.2.1h-.5 0v-.1h-.1v-.2h0v-.4h-.2l-.2-.3h-.2 0H544l-.4.5-.2.1h0l-.2.6v.1h-.1v.1l-.3.2-.4.1-.6.1h-.2l-.1.1-.4.3-.2.3h-.1l-.1.2H539.9h0l-1.6.8-.2.2h0l-.4.3-.1.1H537.3l-.1.1h0l-.1.1h0v.1l-.1.2.4.4v.2l.1.3v.1l.1.2h0l.4.3.4.5V285.4h0V285.7h-.1v.2l-.1.1v1l-.1.2-.2.4h0v.5h0V288.5h-.2v.1h-.1 0-.3 0l-.2.1-.4.2h-.1 0-.4l-.3-.1h-.1 0-.2 0l-.1.1-.1.2-.1.5h0-.2 0-.2v-.1h-.4v-.1h-.1v-.1l-.6-1h0-.1l-.2.2-.5.4H532.7l-.1.1h-.2 0-.2l-.2.2h-.1 0-.2l-.1.1h-.1v.1l-.1.2-.3.6-.1.3v.5h0l-.1.2-.3.1-.1.2-.2.3-.1.2h-.2l-.2.3h-.1v.2l-.3.1-.3.2h-.4l-.1-.3v-.5h-.2l-.2-.2v-.1l-.1-.6v-.6l-.1-.1v-.5l-.2-1-1-.6-.5-.4-.3-.2h-.8l-.3-.1-.2-.2-.1-.3v-.8l-.1-.3-.3-.2H523.6l-.3-.2-.2-.2-.2-.2-.6-.1-.2-.2-.5-.3-.6-.2h-.6l-1.2.3H517l-.6-.1-.5-.4-.7-.8-.6-.4-.3-.2-.3.1-.2.2H512.3l-.8.3-.6.2-.5.2h-1l-.6.2H506.4l-.4.3-.1-.2h-.7l-.3-.1v-.3l-.1-.2-.3-.2-.2.1-1.3.2-.2.2-.5 1-.2.3-.2.1h-.3l-1.4.8h-.2v.2l-.2.1-.2.2h-.2l-.1.2-.1.2-.1.2-.3.2-.3.1-.3.2h-.3l-.2.1-.2.4-.1.7-.2.3-.2.3-.3.2-.4.2-.3.3h0H386.4V243.6h0-41.2V103.9zM558 265.2h.8l-.3.6-.2.8-.7 3.3H557.3l-.2.1h-.2 0l-.2-.4V269.1h0l.2-.1V268.7h0l-.1-.3v-.4l.1-.4v-.5l-.1-.6v-.2l.3-.5.1-.2V265l.2-.1h.2l.1.2.1.1.2.1zm-1-1.2v-.2l-.1-.5-.1-.4-.2-.1-.1-.2-.1-.3-.1-1v-1.7l.3-.1.4-.1.3-.3h.4v.6l-.6 1.9V263.3l.1.4v.7h-.1l-.2-.3zm-6.2-31.7l.4.5.2.4-.2.2-.4-.6-.1-.3v-.2zm5.6-4.2v.6l-.2.2-.1.3v.3l-1.1 2.6-1.5 3.2-1 3v.4l.2.5v.5l-.3.5-.3.1-.6-.6-.2-.4v-.5l-.2-.8v-.4h-.4l-.1-.5v-.5l.2-.2.3-.2.1-.4.1-1 .1-.2.1-.1h.2v-.2l.3-.5.1-.2.1-.4-.1-.8.1-.4v-.2h-.2 0l-.4-.2h0-.1v-.4l.3-.2 1.5-1 .5-.4.3-.5.3-.5.2-.5.1-.6-.1-.6-.2-.5-.4-.6-.5-.4h-.3l.8-1h.1l.4-.4.5-.3.2-.1v2.8l.2.8.2.1.1.1.5.5.2.2zm-27.5-17.7l.2.3V211.4h-.3v-.4l-.1-.3-.4-.4v-.5h0v-.2l.1-.1h0l.2.5v.2l.3.3zm-1.4-2.3l.3.2v.4l.1.5v.2h0-.1l-.1.2h0l-.1.1h-.1 0-.5l-.1.1h-.1l-.2-.1-.1-.3-.2-.1-.2-.2v-.6l-.2-.2-.6-.7-.4-.3-.1-.2-.2-.3-.5-.6-.3-.5-.3-.3.5-.1.1-.1V205h.8V205.3h0l.3.1.6.2.1.1h.1l.3.1.2.1-.2.3h.2l.2-.2.2-.2.2-.2v.4l-.2.7v.6l.2.5.2.3.2.1zm-21.1-19.8h0l.2.1.3.3h-.2v.5l-.3.4v.2l-.2-.1h0V189.1h0v-.6l.2-.2zm11-1l.2.1h0l.2.2h0v.2l-.2.1h-.1v.1l-.1.2h0l-.2.1v.1l-.3.1h-.2v-.3l.1-.2-.2-.2h0-.1 0-.1l.1-.1.2-.3.2-.3-.1-.3-.1-.1v-.2H517l.1.1v.2l.2.1v.4h.2zM509 184V185l.2.3v1l-.3.4-.2.2-.2-.1v-.2h0v-.5l-.1-.2v-.6l.2-.4.2-.2-.1-.1v-.2l.2-.2h.1zm5.2-4.4l.4-.1H514.8l.4-.1-.2.2v.3l-.2.1h-.2l-.5-.3v-.1h0zm.1-1h0-.1v.1h-.2 0l-.2-.2h0-.2v.1h0v-.2h0v-.2h0v-.4h0l.2.3.4.1.2.2v.2zm-16.5-18.5v.5l.1.2.1.2h-.3l-.1.3-.1.2-.3.2h0l-.1-.2h-.1v-.2h.3l.1-.2.2-.2v-.5l.2-.3zm-.4-1.5l-.1-.1h-.1l-.2-.3-.2.4v.2l-.3-.3h-.2l-.1.2h-.1v-.6l-.3.2h0-.2 0l-.1-.1v-.2l.5-.4v-.1l-.2-.1v-.3l.2-.4v-.3l.3-.2v.2l.2.4v.5l.1.1h.3v.2l.2.4.3.2v.4zm-1.5-2.5h0l-.5.5v-.4h0-.1 0l-.2.2h0l-.2-.2h0v-.4l.4-.5h0l-.1-.1v-.2l.2-.1h.4v-.2l.2-.1.2.2-.1.3-.3.3-.1.2v.1l.2.2v.2zm-7-2.6l.3.2.1.3v.4l-.1.3h0l-.1-.1h-.1 0v-.5l-.1-.2v-.4zM467 141v-.2h.1V141.9l-.2-.2-.5.3-.3-.1v-.2l-.2-.2h0v-.2h.4l.2-.1.1-.2h0l.2.1h.2zm-7.5-10.6h.1l.3.3h.1v.2h0l-.2.1h0l-.2.5-.2.2-.2.2h-.3l-.5-.2-.2-.1-.1-.4-.1-.7-.1-.3-.4-.5-.1-.2-.6-.4-.2-.1v-.2l-.2-.1v-.3h.4l.8.3.5.1.1-.2v-.5l.1-.4v.3l.3.2h.7v.2l-.2.3-.1.3v.5l.4.4H459.7l.1.2v.2H459.5zM366.7 111v.4l.2.1h0v.4h-.7l-.1.1v.1h-.4 0v-.2h0-.6l-.1.3v.3h-.1v-.1h0-.1v-.1l-.2-.4v-.2l.3-.1.3-.3.3-.5.2-.2.1-.2v-.2l.2.1.6.4.1.3zm-6.5-3l.3-.2h.7v.1l-.1.1h-.4v.2l-.1.2h-.1 0l-.2-.2h0v-.2h0zm9-5.6V103.4h-.1l-.2-.2h0-.1v.5h0-.2l-.3-.1h-.3l-.2.1-.3.2v.2l-.2-.2-.3-.5h-.1v-.1l-.2-.1h0-.1 0l-.3.3h-.5v.1l-.1.2h.1l.2.1h.1l.2.1v.2h-.8v.6h0v.2l-.2.2v.1h0v.2l-.2.2h0-.2l-.2-.3h-.2l-.2.1-.2.6h-.1l-.3.1-.3.3h-1.2 0l-.2-.1-.4-.6-.1-.1v1h-.1l-.1.2-.2.1h0l-.1-.4-.1-.3v-.2l.2-.1v-.4l.1-.3v-.3l.2-.2.2-.2.3-.3v-.1l.1-.3v-.2h.2l.1-.2h.2l.3-.4.2-.2.3-.1h.8l1.6-.4.8-.5h.8l.1.1.1.2.2.1.2.2h.7V102.8h0l.2.1v-.2l.2-.1h.1zM403.6 21l.4.3v.4h0-.4l-.3.1h-.2l-.1.1-.2.2v.2l-.1.1-.5-.2h0l-.2-.3-.2-.3-.1-.4v-.4h0l.1-.1h0l.3-.1h.1l.1-.2.3-.1h0V20l.2-.3.2.1.3.3.3.7zm.1-1.2l.5-.1.3.2v.3l-.2.3-.4.1-.3-.2V20l.1-.3zm.5-6.2l.2.2.3.3.1.2v.2l-.3.2-.4.6h-.2l-.2-.2h-.5l-.2-.2-.1-.1-.1-.2v-.2h.1l.1-.2h0v-.3h0l.3-.2H404.3zm-1.5-.8l.1.2v.7l-.2.1v.1l-.2.3-.1.1h-.2V14l-.3-.2-.2-.2-.1-.1v-.3l.6-1 .2.1.2.1.2.3zm61.3 123h.4V136h-.8 0-.7v-.3l.2-.4v-.2l-.1-.2v-.1l.2.1.1.1.2.1.1.2.2.3.2.1zM410.6 2.8h.2l.2.2-.2.2-.2.1-.2.2h-.1l-.3.1H409l-.3-.1-.1-.3.1-.2.4-.1h1.1l.5-.1zM403 1l1 .3v.4h-1.4l-.4-.3.2-.3.6-.1z"/>
  <path d="M558.3 276.7l.3.4h.4l.1.3.2.8.1.4v.7l-.4 2.3v.6l.2 1.4.1.3.5.5.2.3h0l-.2.4v.7l-.2.5v1.6l-.3.5-.8.7-.7 1-.3.5-.2.6V291.5l.1.7v.2h0l-.3.1v.1l-.1.2-.6 1-.3.6-.1.7.1.6.2.3v.5l-.1.2v.6l.1.1-.2.3v.7l-.3.5V299.8l-.1.2v1l-.3.6-.1.3v1.3l-.2.2V304.2l-.1.4-.1.3-.5.7v.2l-.1.1-.2.3v1.6l-.2.8-.7 1.3.1.4-.2.6-.6 1v.3l-.2.6-.3.5-.1.3-.3 1.3v1l-.2.3h0l-.3 1.3.2.2v1.4l.4.6v.1l.2.1.1.1h.2v-.1h.2v.1l.1.2v.4h0v.2l-.3.3-.3.5V322.5h.2v.5l-.2.2-.5.5-.4.7v.5l-.2.7v.2l.2 1-.6.8-.2.5v.4l.2.3v.7l-.4.3-.4.5-.4.6v.5l-.1.4.1.3-.2.2-.3.3-.3.4.2.3v.2l-.4.4-.4.6-.1.5.1.3-.4.3-.3.4-.4.3-.8.7-.8 1.5v.5l-.3.4v.3l-.2.3v.7l.3.1.2.2.2.2v.4l-.2.2-.1.2-.1.2-.1.2v.5h.2l.2.1v.2h-.1 0l-.1.2v.2l-.1.2-.1.3v.7l.2.2-2 .8-.6.4-.8.7-.1.5h-.3l-.4.3-.3.4-.3.3v.3l.2.3.2.2h-.2 0l-.2-.2h0-.2 0l-.4-.3h-.2 0l-.2.2h-.1l-.7.3.4.3h1.2l.2.1v.1h0v.6H539.4l-.1.2v.1h-.2l-.1.2-.7-.2-1 .2-.7.3-.8.4-.3.3-.3.1-.5.5v.4l-.2.2-.2.2-.3.2-.1.3v.7h-.3l-.2.2-.3.3-.2.2v.4l-.2.4v.6l-.3.2v.6l-.3.2-.3.2-.3.4v.4l.1.3v.1l-.6.5h-.2 0l.2-.3.2-.4-.4-.3-.3.2-.5.5v.1l.2.3h-.2l-.2.1v.2l.1.1.1.1h.2l.2-.2.1-.1h.2v.3l-.2.3-.1.3-.4.4-.2.3.1.1v.2l-.1.1v.4h0l-.2.1v.3h0v.2h0l-.2.2h0-.4 0-.3l-.1.1-.2.1h-.4l-.4.3h-.2l-.2-.3-.1-.4-.2.2v.6l.3.2v.1l-.2.1h0l-.2.1v.1h.4l.4-.6h.2l.2.1-.2.5v.7l.2-.2v-.3l.2-.5.2.5-.3.8-.1.4v.5h-.1l.1.2v1.5H527.4l-.2.3v.5h.4v-.2h0l.2.1v.4l-.3.8v.2l-.1.5-.1.2-.2.2v-.1l-.4-.6h-.5v.4l-.2.2h-.8l-.2.2.4.1h.1l.2.2h0l.2-.2.9.1h.1v.3h0-.7 0-.1l-.1.2-.1.1v.2h-.1l-.2.2h.5v.4l-.3.2-.5.5-.3.2-.3.2-.6.4-.2.3-.6.7-.4.7-.2.5v.5l-.2.8-.1.7.2.6-.3.2-.1.5-.2.3-.3-.1.2-.3v-.2h-.3 0-.1l-.5.6v.1l.1.1h.5l.1.2.4.3.2.2h.3-.5l-.2.4-.3 2.1-.2.5-.3.2-.4.2-.4.9-.3.2h0l.1.2.2.2h.2l.2.1v.1l-.2.2h-.3l.1.1.3.2.2.1-.1.2h.1l-.1.5.2.3.5.2h.3v.1l-.1.6v.3l-.2.3-.3.3-.1-.2-.2-.2-.1-.1v-.2l.2-.3-.2-.4.1-.2-.3-.1h-.2l-.3.1-.5.2v.2l-.2.6h.3v.8h-.4l-.5.4-.3.7-.4.1-.4.3v.2l-.1.2-.1.2v.1l-.2.2-.3.4-.2.3v1h0V393.8l-.4.3-.1.1v.3l-.3.3-.2.2v.2l-.1.3v1h0l-.3.2-.2.4-.5 1-.4 1-.2.4-.2.2-.3-.1-.3-.2h-.2l-.4.2.4.4v.5h.1l.2.3V401.3l-.1.2h-.2l-.4.2h0l-.5.6h0v.3l.1.5V404.5l-.2.7h-.2l-.3-.3-.3.3V405.5h.4l.3.3v.3l-.2.6v.7l.3 1v.4l-.2.1v.1l.1.4V409.7l-.1.2-.3.2-.2.3-.2.3-.1.3v1.1l-.2.3v1l.1.4-.1.3-.4.7-.5 1v.3l-.1.4v.8l-.3.4-.2.3-.3.3.2.4-.1.3-.3.6-.1.4v.2h.3l.2.2-.1.2-.2.3V421.5l.2.2h0l.1.2v.4h0l-.1.1h0l-.2-.1-.2.1-.2.3h0l-.2.2v.2l.3.2h.8l.6.5v.1l.2.3v.8l.5.8v.2l-.3-.2-.3-.1h-.3l-.3.1-.2.3v.3l.3.6-.2.7v.7l.1.6.3.8-.2.2-2.9-1.5-3-1.5-3-1.5-3-1.5-2.9-1.5-3-1.5-3-1.5-3-1.5-.3-.2h-.8l-.3-.2h-.2v-.1l1-1.6.2-.3v-.4l.1-.4v-.2l-.3-.5h-.1l-.2-.1h-.2v-.2h-.1v-1.1h0l-.1-.2h0l-.1-.4v-.2l-.2-.2-.5-.3-.2-.3-.2-.4v-.2l.3-.2v-.5l-.2-.3-.3-1v-.2l-.1-.1v-.5l.2-.6-.2-.4-.5-.4v-1.2l-.4-.1-.3-.1h0l-.2-.2-.2-.1v-.2l-.1-.2h-.2l-.3-.1-1.8-.9h-.2l-.2-.1H478.4l-.2.3h0l-1.7.7-.2-.1v-.3l-.3-.3-.2-.1-.3-.1h0l-.3.2h-.7l-.2.2-.2.2-.1.2-.2.3-.1.9-.1.2-.3-.2-.2-.2h-.5 0l-.7.2h-.7l-.2-.3h-.1l-.2-.1h-.1l-.4.6h0v.2l-.2.2h0V406.5l.1.4v.2l.2.2v.1l.2.2h.2l.2.1H471.5v.3l-1.1.3-.2-.1-.6-.7-.2-.3v-.6l.1-.6-.4-.2H468.5v.2l-.1.1-.1.1h-.4l-.3-.3-.4-.2-.4.2-.3-.3v-.1l-.2-.1H465.7l-.2-.4H464.6l-.2-.2-.5-.6h-1.2l-.2-.1-.3-.3h-.2l-.2.2H461.5l-.1-.1H461l-.7 1.1-.2.1-1-.1-.4-.2h-.5 0l-.2.4-.2-.1-.2-.2h-.4l-.8-.1-.3-.2h-.2l-.4-.1h-.6 0l-.2-.2v-.1l-.1-.2-.1-.2-.3-.1h-.6l-.9.2h-.6l-.6-.3-2.3-2-.5-.3h-.6l-.6.2-1 .6h-1.2l-.5-.3-.5-.1h-1.3l-1.6.3h-.2l-.2.3v.1l-.2 1-.3.6v.6l.3.3.2.3.1.4-.1.3h-.3l-.6-.3h-.5l-.6.6-.3.3H438l-.2-.1v-.2h0l-.2-.1h-.1 0l-.1-.2-.3-.3h-.2l-.6-.1-.2-.2-1.6-1.8-.5-.2-.2-.2-.2-.3-.7-1.7-.3-.6-.4-.4h-.1l-.4-.1h-.1l-.1-.2-.2-.2-.2-.2-.3-.2v-.1l-.1-.1-.1-.1h-.2l-.1-.1-.4-.5-.7-1-.5-.4h-.6l-.3-.2-.3-.5-.3-.2-.8-.4-.6-.3-.3-.4h-.1l-.1-.1-.3-.1h-.1v-.2l-.2-.1-.6-.3-1.1-.2-.8-.5-.1-.1-.1-.2v-.4h.1v-1.2l-.3-.2-.2-.2-1.2-.2-.3-.2-.3-.2-.2-.1-.3-.6-.3-.7-.1-.6-.1-1-.2-.5v-.4l.1-.3v-.8h0l.1-.1.1-.1v-1l.1-.2h0l-.4-.4h-.2l-.3.2h-.2v-.4l-.2-.3h-.2l-.3-.1-.1-.2-.9-.5h-.2l-1.3-.2-.5-.3h-.2l-.1.1-.1.2-.2-.2-.5-.4h-.2l-.1.2-.4.2h0l-.1-.3-.1-.2v-.3l-.1-.2h-.1l-.4-.3-.2-.2h-.1l-.1-.1h-.2l-.3.2h-.1l-.3.1-.1.3-.2.8h0v.1l-.1.1v.5h0v.3l-.1.1H408.9v.5l.2.2v.2l-.3.1-.2-.2h-.4l-.3-.1h-.2l-.1-.2-.1-.1-.1-.1v-.5l-.4-1-.3-.3v-.7l-.2-.2-.9-.7v-.2l-.3-1.5v-.4l.1-.3.3-.5.1-.3-.1-.3h-1l-.3-.4-.3-.3-.1-.3h-.2V374.5l-.2-.4-.1-.4h0-.7l-.2-.4-.1-.1h-.2l-.3-.1h0l-.3.2h-.2l-.2-.5-.4-.4h-.3l-.8.1H399l-.2.1h-1l-.6-.3-.3-.1-.6.1-.6.3-.4.4-.4.3-.3.5-.2.2-.3.1h-.1l-.1-.2-.1-.1v-.4h-.2l-.7-.1-.2-.1-.4-.3h-.1l-.2-.2h-.4l-.3.2h-.2l-.1-.2-.2-.3h-.1l-.2-.2-.1-.1-.2-.2h0-.1l-.2-.2h0-.2l-.2.2h0-.4l-.1-.1-.2-.2H387l-.3-.3-.3-.5V290h109.4l.4-.3.4-.2.3-.2.2-.3.2-.3.1-.7.1-.4.3-.1h.3l.3-.2.3-.1.3-.2v-.2l.1-.2.1-.1.3-.1.2-.2.1-.1.1-.2h.1l1.4-.7h.3l.3-.2.2-.3.5-1 .2-.2 1.3-.2.2-.1.2.2.1.2v.3h1l.2.3.4-.2.1-.1h2.3l.6-.2h1l.5-.2.6-.2.8-.3h1.3l.3-.2h.6l.6.5.7.8.5.4h.5l1.8.2.6-.1 1.2-.3h.6l.6.2.5.3.2.2.6.1.2.2.2.2.2.2h.7l.3.1v1.2l.2.3.2.1.3.1h.8l.3.3.5.4 1 .6.2 1v.4h0v.2h0v.6l.1.6h.1l.2.2.1.1v.5l.1.2h.5l.3-.1h.2v-.2h0l.1-.2.3-.1.2-.1v-.2l.2-.4h.2l.3-.2v-.7l.1-.3.4-.6v-.2h.2v-.1h.4l.2-.2h.2l.2-.1h.2l.1-.2.5-.3.2-.1h.2l.5.9h.1v.1h.4l.1.1.1.1h.2l.2-.5v-.2h.1l.1-.1h.5l.4.1h.1l.5-.2h.4l.1-.1h.1l.1-.2h0v-.2h.1v-.5l.2-.4V286l.1-.1v-.2l.2-.2h0v-.2h0v-.2l-.4-.5-.3-.3h-.1v-.2l-.1-.2v-.2l-.2-.2-.3-.4v-.2h0v-.1h.1v-.1h.5v-.2l.4-.2.1-.1.1-.2 1.6-.8h.9l.1-.1.2-.1.2-.3.4-.3h0l.2-.1h.7l.4-.2.2-.2h0l.1-.1h0l.2-.6h0l.3-.2.4-.4.1-.1h.4l.2.2v.1l.1.2v.2h0v.1h.1v.1h.1l.2.2H545.6l.1-.2h0v-.2h.1v-.2h.2l.4.3h.1l1.4.6H548.5l.4-.2h0l.2-.2h.2l.1-.1h.6l.4.3h2l.1.2h.4l.2-.3.3-.4.1-.1h0l.1-.1v-.1l.2-.2.1-.3H554.5l1-.3h.2l.4.2.4-.2 1.3-1 .5-.4zm-57.1 116.6h.2l.2-.2.2-.1.1-.2v0-.1h0l-.7-.4-.3-.1H500.6l-.7-.4-.1-.1v-.4l-.1-.1h0l-.2-.1H499.2l-.1-.1v-.2h-.1V390.1h-.1 0l-.8-.6-.3.1-2.3 1.7-1.5 1.1-.1.1-.2.2v.2h0v.2h0v.2h0V393.8l-.2.5v.2l-.1.4-.2.7v1l.2.5v.5l-.2.5v.4l.3.1v.7h0l.1.1.5.5H494.4v-.1l.1-.1h0l.2-.1h0l.1.1v.5l.2 1v.3l.3.5v.1h.1l.1.1.1.1.8.3.4.2h.2l.1-.1h0l.2-.3v-.2h0l.1-.1h0l.2-.2h0l.1-.1v-.1l.1-.2v-.4l-.1-.7v-.2h0v-.5l.1-.3v-.5l-.2-1v-.5l.1-.1.4-.2v-.4l.3-.5v-.5h0l-.1-.1v-.2h0v-.4h0v-.2h0v-.2h.1v-.1l.2-.1v-.2l.3-.4h0l.1-.2h.2l.3.2h.2V393.3l.3-.2h1.2z"/>
  <path d="M519.8 389.3h0l.2.2h.2l.2-.2h.2v1h-.4 0-.1l-.1.2h-.1l-.1.1-.3-.4h-.7l-.3.2.3-.7.5-.4h.5zm-10 40.7l-.3.4-.8.3-1.6.1h0l.1-.1V430.4l.1-.2v-.2h-.2l-.1.3h-.2l-.6-.2.6.9v.5l-.5.4-.2.5-.4.7-.2.2-.7.2v.1l-.1.2-.2.1-.2.1-.6.1-.3.2h0l-.2.3v.1h-.3l-1.9.1-.5.2-.4.4h0l-.2-.2V435h0-1.2l-.2-.1-.3-.2-.6.3H495l-1.6.1-.3.1-.4.3h-.1l-1.7-.2-4 .2-2.5.6-3 1.1-2.1 1.2-2.3 1.6-2.7 2.5-3 3-1.3 1.4-1.3 1.7-1.2 1.1h-.2v.2l-.5.7h-.2v-.2l.2-.2-.2-.1-2 .4h-1l-.5.4h-1l-.6.2-.4.1-.1.2-.2.2-.3-.3-.2-.3v-.1l-.3-.1-1.3.1h-.3l-.2.2-.5.8.4.5h.1l.1.4.1.2h.3V453.2l.1.2v.4l.3.1-.1.4.1.2h.4l.3-.3.2-.5.3-.1h.5v-.2l.1-.2V452.9l.2-.3.2-.2h.2l.2.3v.3l-.1.3v.8h.1l.1.2v.2h0V454.9l-.2.2-.2.2v.3l-.1.1-.1.6v.4h.2l.2-.1h0l.2.7v.1h-.2l-.3.2-.2.1V458.5l-.3.1h-.4l-.4-.3-.2-.1-.2-.3v-.3h.1l.2-.2v-.4l-.6-.3-.2-.1-.3-.6-.2-1-1-1.3-1.2-.8-1 .2-.1.3v.8l-.2.1-.8.2h-.2v-.3l-.4-1.1-.5-1.3-.5-.7-.7-.8-.2-.2.4.1.6.5h.4l-.3-.5-.4-.3-.4-.2h-.6l-.5.1-.8.6h-.5l-.4-.3-.6-1.2-.2-.3h-.2l-.7-.4-.8-.2h-.2v-.2h.3l.3-.3.2-.2-.2-.2.1-.3.1-.2v-.3l-.2-.3.4-.3h.2l.1.2h.5l.2-.2.1-.2.2-.1.2-.1v-.3l-.3-.3-.2-.2h0v-.7l-.3-.3-.3-.7-.2-.2h-.2l-.3-.1-.6.1h-.6v.2h-.2l-.1-.1-.3-.1h-.3l-.3.1.2.3-.2.1v.2l-.2.1v.5h-.2l-.2.1v.4l.1.2v.2l.1.5v.4l-1.2-.2-.3.1-.1.2v.2l-.2.2-.4.1-.2.2-.2.5h.1l-.2.2h-1l-.1.3-.4-.2-.4-.3-2.2-2.3-.2-.2h-.3l-.2-.2v-.2h.1l.1.1.5.1.3.2.5.5.2.2h.7l.6-.2.8-.4.4-.1.1-.1.1-.2v-.5l.4-.2v-.5l.1-.1.1-.2.3-.3.1-.3.7-.8.1-.6v-.6l-.3-.7-.3-.5h-.1l-.5-.2-.1-.1-.1-.1-.3-.7-.2-.7-.1-.3-.3-.3-.4-.3h-.3v.6l-1-.1h-.2v.3l-.2.3v.2l-.2.1-.2.1-.3.1h-.2l-.1.2-.5.5-.2.1-.2.2-1.5.6-.2.1-.2.3-.1.2v.4h-.4 0l-.2-.2-.4.2h-.8l-.3.2-.1.5.2.2h.8l1.2.3h.5l.3-.2 1-.7.7.4.3.3-.1.4v.4h0l-.2.1h-.2 0l-.3.4-.1.2-.1.2v.4l-.6.1h-1.3v.2h-.5l-.3-.2h-.5l-.3.2-1.2 1-.7.6-.2.1h-.3l-.2.1v.1l-.2.3-.1.1-.7.2-.1.1-.1.3h-.1l-.6.1-.3.2-.7.9h0v.4l-.1.2-.2.1h-.3l-.2.2-.2.2-.3.8-.2.2h-.2v.2l-.3.3-.1.1-1.4.5h-.3l-.3.2-.1.2-.1.4-.2.3h0v.1h0H422.8h0l-.5.4-.2.1-.4.5-.2.2h-.5l-.5-.5-.2-.1v-.1l-.2-.3h0l-.6-.2-.5-.4h-.2l-.3-.1H417l-.2-.3-.3-.2v-.3l-.9-.8-.5-.4-.3-.1-1.6-.3-.6-.4h-.4l-.2-.2h-.1l-.5-.2-.7-.7-.4-.2-1-1-1-.4-.5-.4-.2-.1v-.1h-.2 0l-.3-.4v-.2h0H406.8v.2l-.1.2v.1l-.4-.1-.1-.2-.3-.3H404l-.2.4-.6.2-.7-.1-1.1-.6-1.5-1.2-.5-.2H398.7l-.3-.2-1.4-.2-.6.1-.7.3-.5.4-.2.5v.3l.3.3.2.3v.2h-.5 0-.2v-.1h-.1l-.3.3-.1.2v.2l-.1.1h-.3v-.3l-.3-.4-.1-.2-.2-.1-.2-.1H392.4v.3l-.1.2h-.4l-.2-.2-.1-.1v-.2l.3-.3V443.9l-.3-.3-2.2-2-1-.8-2-1-.3-.2h0V370.4l.2.2.2.3.3.5.3.2h1.2l.4.1.2.2h0l.2.2H389.4l.2-.2h.4l.1.1.2.2.1.1.2.1h.1l.2.5h1.2v.1l.5.3.2.1h.7l.1.1v.4l.2.2h0l.2.1h.3l.2-.3.3-.5.4-.3.4-.4.6-.3.6-.1h.3l.6.4h1.2l.3-.2.2.1h.4l.8-.1h.3l.4.4.2.5h.2l.2-.2H402.5l.1.2.2.3h.7v.1l.1.4.1.4v.5l.2.1h0l.2.3.3.4.3.2.3.2h.2l.3-.1h.2l.1.3-.1.3-.3.5v.7l.1 1.5.2.2.8.7.2.2v.2h0v.5l.3.4.4.9v.6l.2.1.2.1h0l.4.1h.2l.2.1.2.2.3-.1v-.1l-.2-.3v-.5h.8l.2-.3h0l-.1-.2v-.4h0l.1-.2h0l.2-.8.1-.3.3-.1h.1l.3-.2H411.2l.1.1.2.2.4.2v.1l.1.2.1.3v.2l.2.2h0l.4-.1v-.1h.4l.4.3.2.2.1-.2.1-.2h.2l.5.4 1.3.1h.2l.9.6.1.2h.3l.2.1.2.3v.4h.2l.3-.2h.2l.3.3.1.1v.2l-.1.3v.7h0l-.1.2h-.1v.4h0V387.5l.2 1 .2.7.2.6.3.6.2.1.3.2.3.2 1.2.3h.2l.2.3.1.3v1h-.1v.3l.1.2.1.1.8.5 1.1.2.6.3.1.1v.1l.2.1h.3l.1.1.1.1.3.4.6.3.9.4.2.2.3.5.3.1.6.1.5.3.7 1.1.4.5h.1l.2.1h0l.1.2h.1l.3.3.2.2.2.3h0l.2.1h.5l.4.5.4.6.6 1.7.2.3.2.2.6.2 1.5 1.9.2.1h.6l.3.2.2.2v.2H437.7v.1l.1.2.2.1H438.8l.3-.3.6-.6h.5l.6.3h.3l.1-.3v-.3l-.3-.4-.2-.2-.2-.4v-.3l.4-.6.1-1h.1l.2-.3.2-.1 1.6-.3h1.3l.5.1.5.2.6.1h.6l1-.6.6-.2h.6l.5.3 2.4 2 .5.3h.6l1-.2h.5l.3.1.1.2v.2l.1.1.1.2h1.1l.2.2.3.1h.8l.4.1.2.2h.2l.1-.2H458.8l.5.1 1 .1h.1l.7-1.1.1-.1H461.5l.2.1h.1l.2-.2h.2l.3.3H463.7l.2.1.5.6.2.1h.7l.2.1.3.4h.6l.1.2.3.3.4-.2.4.2.3.3h.4l.1-.2.1-.2h.6l.4.3v1.1l.1.3.6.7.2.1 1.2-.3-.1-.2H470.9l-.2-.1-.2-.1-.1-.2-.1-.1-.1-.2v-.2l-.1-.4V406h-.1V405.7l.2-.2v-.2l.4-.5.1-.1h.2l.1.1.2.2.2.1h.5l.7-.2h.5l.2.2.3.2v-.2l.3-1v-.2l.2-.2.2-.2.2-.2h.7l.2-.1h.4l.2.1.2.3.1.3h.2l1.6-.6h.1l.2-.2h.2l.1-.1h.2l.2.1 1.8.9h.3l.2.1v.2l.2.2v.1l.2.2h.4l.4.2v1.2l.5.4.2.4-.2.7v.4l.1.1v.2l.3 1 .2.3v.4h0l-.2.4v.5l.3.3.5.3.1.2v.2l.1.3v.2h.1v1l.1.1v.1l.2.2h.3l.2.1.2.5V415.2l-.1.4-.2.3-1 1.6h0l.2.2h.3l.8.1.4.2 3 1.5 3 1.5 2.9 1.5 3 1.5 3 1.5 3 1.5 3 1.5 2.8 1.5zm-46 21.8h0l.2-.1h.2v.2h0l-.2.1h-.9l-.2.4h0-.7l-.2-.2-.3-.3v-.3h.2l.6.2.6-.2h.3l.4.2zm-17.8-4.4h.1v.1h0v.2l.2.2V448.5h0v-.1h0l-.1-.1-.4-.3-.4-.3-.4-.1h-.4l-.1.2h-.1l-.1.1h-.2l-.2-.2h0-.3l-.4.1h-.2v-.2l.5-.4.3-.4.2-.1.2-.1.9-.1h.5l.1.2h.1l-.1.1h-.1l.1.3h.1V447.5h.2zm1.5-3.4l.2.1v.2l.5.6h0l-.3.1h-.6l-.2.1-.5.7-.3.2-.4-.1-.1-.1-.5-.2v-.5l-.2-.3.4-.6v-.5h.2l.1.2h0l.6.3h.2l.7-.2h.2zM482.6 533.2h-.3l-.2-.1-.8-.8-.1-.2v-.3l-.1-.3v-.1l-.3.2-.1.2v.6l.1.3h-.4l-.2.2-.2.3-.2.3-.3-.5-1-1v-.6h.1l.4-.3.2-.2-1.2-.5-.2-.1-.1-.3-.2-.3v-.7h.1l.4-.3h.2v-.1l.1-.1v-.2 0-.2l-.1-.2v-.1l.2-.1h.5v1l-.2.3.7.6.3.2h1l.2-.1.2-.2.3-.3h-.4l-.3-.2-.2-.3-.2-.5h.2l.2-.1v-.1l-.4-.1v-.3l.1-.3v-.2l-.1-.2-.9.2h-.1l-.2-.2-.2-.1h-.1l-.4.1h-.2l-.1-.2v-.2h-.2l-.1-.1h-.3v-.1l-.1-.1v-.4l-.2-.2H477l-.7.2-.2.2-.2.2v.5l.2.7.6 1-.3.6-.1.2-.3.2-.8.2-.2.2-.1-.2-.2-.2-.2-.3v-.2l.2-.3.2.2.2.3.1.1h.2l.2-.4v-.4l-.2-.2v-.3l.2-.7h-.3l-.3.3h-.2v-.2l-.2-.5-.2-.2-.3-.1-.2-.2-.8-1.4v-.2h-.2l-.2.1-.1.2v.1l.2.2h.1l.3.4.2.3.2.7.3.5v.3l-.2.6-.2.4V529.7h0l-.3-.2-.5-.4-.2.3.1.3.4.4.1.4v.1l-.3.2-.3.2-.1.3v.6l.1.7v1.3l-.3.3-.3.1-.3-.1v-.1l-.4-.1V533.4h-.8l-.1-.1.1-.4.2-.3V532.3l-.1-.5-.2.4-.2.3-.3.2h0l-.4-.3v-.9l-.2-.5h-.2l-.2.1-.2.3v.3l-.1.5v.4l.2.2.2.1 1 .8.2.2.2.3v.5l-.2.1-.1.2H469.6h0v-.1l-.2-.1h-.5l-.3.2-.2.3h1l.3.2v.1l-.4.4-.1.2-.2.5-.1.2-.3.1h-.8l.3.3.8.2.2.4h-1v.5l.1.1v.4l-.1.1H467.5v.4l.1.2h.3l.2.3v.3l-.2.2-1 .6H466.6v-.4l-.4-.2h-.6l-.7.4-.1-.1-.1-.3-.3-.4-.9-.6h-.1l-.1-.4-.1-.8-.2-.3-.2-.2-.1.3v.4l.1.4h-.2v-.1l-.4.3h-.3l-1.5-.1-.3-.2-.3-.3-.3.4-.1.1h-.4v-.3l-.1-.2-.1-.2-.2-.1H458v.8l-.2.2-.2-.3v-.3h-.4l-.5.1h0v.6h-.2 0l-.2-.1h0l-.8.2v-1.9l-.3-.6-.8-.6-.1-.2v-.2h.4l.3.2h.2v-.1l-.4-.5h.3l1.2.2.4.2.2.3.2.3.3.3v-.8.1H457.8l-.1-.2h.2l.2.1.2.4h.1l.1-.2V535h-.2l-.4-.4-.2-.3H457.3l-.4.8-.2.2-.4-.3v-.6l-.2-.1h-.1l-.1.2v.2l-.1.4h-.3l-.3-.2-.2-.3-.2-.3v-.3l-.1-.3v-.4l-.1-.1-.3-.2-.3-.3h0v.9l-.2.1h0H453.4v.2l-.1.2h.6l.2.1v.2l-.2.3h-1l-.1-.2-.4-1h0v-.5h0l-.4-.5h-.2v-.2l-.1-.1v-.4h-.1l-.2-.1v-.8h-.2l-.1.1H450.9l-.2-.1V530.2h0l.1-.2v-.2h0-.2l-.2-.2-.3-.2-.5-1-.2-.2h-1l-.5-.9-.3-.6-.3-.7-.2-1-.2-.3v-.1h-.2l-.2-.2h0v-.2h0v-.1l.2-.4v-.2h-.1v-.2l-.3-1h0-.4 0l-.1-.2v-.3l-.2-.2h-.1l-.4-.1v-.2l.4-.7-.3-.3-.4-.7-.2-.7.2-.7-.4-1-.1-.7V515l-.1-.3-.2-.4v-.3l.2.1.2.3.2.3v.2l.1.4.2.1.5.1.2.1h0l.2.3v.1l.1.2v.1l.5.2.9.7.1.2v.2l.1.7.1.7.2.7.1.2h.1V518l.4.2h.2v-.6l.2-.3.2-.5v-.2h0l-.2.1v.1h0-.1v.1h-.1 0v-.2l-.1-.1V516.3l-.2-.1h-.1V516.5h-.1l-.3-.2-.8-1-.2-.4-.3-.2h0l-.1-.6-.2-.5v-.6l-.2-.1h-.1l-.3.2h0v.3h-.1l-.2.1v.8l-.2.1h0l-.5-.5.5-1.4-.2-1.5-.6-1.4-.7-.9-1.2-1v-.1l-.1-.1-.1-.5v-.1h-.2l-.2-.2-.5-1.1-.2-.3-.1-.1-.1-.2-.2-.1h-.2 0l-.2-.1v-1l-.7-2-.8-1.2-.2-.5-.1-.1h-.1l-.2-.2-.2-.3h0v-.2h0l.4-.2v-.5l-.2-.6-.9-1.7-.2-.3v-1.6l-.2-.3v-.7l-.2-.6-.7-1h.2l.2-.1v-.5l-.1-.4-.1-.2h0l.3-.1.2-.4h.1l.3-.1.2-.1v-.3l.1-.6v-.5l-.2-2v-.8l.4-.3v.3l.2.3.3.4v.4l.1.1H438.5l.1-.1h.5l.9.5h1.2l.2.1.2.3h.2l.4.3.3.4h.1l.1.1.4.2h.2l.1-.3-.1-.3 1.2.1h.4l.1-.4v-.8l-.1-.2h.2l.4.3.2.4-.5.2v.1l-.1.2v.2l.2.2.5.4.2.2h.1l.2.1h.7l.5.4h.4l.7-.4.2.7.5.5.7.2 1.2.2.3.1v.4l.2.3.2.3.4.4.3.2.2.1h.3l.7.1h.2v.2l.1.2h.5l.3.1.5.4.3.1.3.2.1.1.2.1.5.1 1.3.6 2 .3h.9l1-.3.7-.4.1.1v.4l.1.2.1.1.2.1h.2l-.2-.4v-.2l.6-.4.1-.1.2-.4h0l.2-.2h.5l.2-.1.2-.2h.6l.2.2.1.2.2.4v.3l-.2.2.2.3h.5l.2.2.2-.2H467.8l.2.1h.2l-.2-.2-.2-.2-.2-.2-.6-.1-.3-.2-.2-.3v-.4l.2-.7.6-.2.7-.2.5-.3h.1l.1-.2h.1l.2-.1h0l.1-.1h.2v.2h.1l1.9.3.5-.3 1-.8.2.2.6-.2.2.1v.4h.1l.4.1v.1l.1.2.1.2h.5l.6-.3.5-.7.8-1.4v-.3l.2-.2.7-.3h.3l.2.1.2.4.3.2.5-.2.3.2.3.3.3.2.4-.1.5-.3.4-.4.2-.4v-.1l.2-.5v-.6l.2-.2.1-.1.2-.2.1.1h.4l.1.1.1.1.1.3H483.8l.1.2.3.3.2.5.2.2h.8l.1.1 1 1.5.5.7.1.4v.5h-.2l-.2.3-.2.2-.1.1h.1l.2.2h0l.2.2-.3.8h0l-.2.3V495.8l.1.2.5.6v.4l-.6.5-.3.4v.3l1.1-1h.3l-.3.6-.7 2.3v1.6l.4.7v1l-.1.4-.2.4v.3l.3 1.2-.2.2-.3.3-.2.4.1.4.1.1.1.5v.1l.1.2.3.4v.2l.1.1.1.1-.2.6-.1 1v.9l.8 1v.2h0l-.2.2-.4.6v.2l.6.3v1l-.1.1-.3.3v.1l-.1.2h-.2l-.1-.3h0l-.5-.2-.1-.1v-.2l.3-.2h0l.1-.2.1-.1.1-.2V513.6l-.1-.2-.2-.2h-.1l.4-.3.2-.2v-.2h-.3l-.3-.2-.4-.5-.2-.2-1-.3.4-.3.3-.1h.2l.1-.2.2-.3v-.3l-.5-.3v-.5l-.2-.1h-.2v.3l.2.4v.4h-.1l-.1-.2h-.2l-.2.1V511.1h0l-.2.1h0v.4h.2v.1l.3.1.6.2h-1.3l-.4.1-.1.3v1.3l-.1.2-.5.5v.4l-.1.2h-.2v.4l-.5.8-.3.3h.2l.3-.4h.4v.6l-.3.4v.5l.1.9v1.3l-.2.2h-.2l-.2.4-.2.1h-.1l-.2-.5-.2-.1V520.2l-.2.1h-.2l.7 1v.7l.1.2h0l.1.1h0v1.3l-.2.3-.2.2-.3.1-.2.2v1.3h-.1 0-.2l-.2.4v.5l.1.2h.8v-.2l-.5-.1.2-.4.4-.3.2.4v.3h.2l.2-.1h.1l.1.2V526.9l.2.1.1.2h0v.2l-.2.1v.2h.2v.2h.1v.4l-.1.2h-.2l-.2.2-.1.4v1l-.2.2.3.4v.5l-.1.3h.3l.1.2.1.2v.3h-.1l-.1.2h-.1v.5l.2.1v.2zm-9 2.1h0l.2.5v.2l.1.2v.4l-.1.2-.2.2v.1l-.1.2-.1.6-.2.4-.1.2h-.3l-.3-.3h0-.2 0l-.1-.2h0v-.2h0v-.4l-.1-.1h-.2v-.1l.2-.2h0l-.2-.3-.2.2-.1.9-.2.3-.2.3h-.3l-.2-.4v-.3l-.3-.3-.2-.2-.1-.2v-.4l.3.1.7.8h.2l.1-.4V536l-.2-.2v-.1l.2-.1h.2l.3.4v.2l.2-.3v-.1l.1-.2-.1-.2v-.4l.3-.3.4-.6.3-.3v.1l.4 1.4zm.8-4v.5l.1.2.1.2v.2l.2.5.1.5-.2.2h-.3l-.1-.1h-.2l-.1.2h-.2 0l-.1-.5.1-.2.2-.1.2-.3-.2-.3h-.7l-.3-.3-.1-.2.2-.2h.7l-.1-.2-.2-.1-.1-.1v-.4l.2-.4.2-.1.2.5.3.3.1.3zm10.2-9.8v.5l.2.2.2.1-.3.3h-1.1l.2.6.3.4h0l-.9.2-.2.2-.1.2h-.1v-.4l.2-.2v-.3l.2-.6h-.3l-.1-.3v-.4l.2-.3.2-.2.4-.2.1-.3.2.1h.3l.3.1v.3zm2.1-5.6l.3.2v.2l.2.2.1.3h0H487l-.2-.1-.2-.2-.1-.1-.5-.1v-.1l-.2-.4h.5l.4.1zm-45-30h.2l.2.3.1.2.1.2h-.4l-.3-.2h-.4l-.8.5h0H440h0-.2 0-.2v-1.1l.6-.7.2-.2v.2l.2.3.2.1h.2l.3.3.2.1zm42.5-2.6l.2-.2.6-.1.2-.1.9-.2-.1.1-.1.3h-.1v.6h-.2l-.1.3v.4l-.2.2-.4-.2v-.3h-.5l-.1-.1h0l-.2-.3v-.2h0v-.2zm-45.6-1.9v1.5l-.1.1-.3.3v1l-.3.2-.1-.2v-.2l-.1-1v-.1l-.2-.2v-.4h.7v-.3l.2-.8v-.1h0l.2.2zm1.5 1l-.4-.1-.2-.2-.2-.3-.2-.2h.1l.3-.1h0l.2-.2.1-.1v-.2h0-.1v-.2h.2l.1-.1h.5l.1.1.3.2v.2l-.1.2v.6h-.4l-.1.1h-.1l-.1.2zm48.4-1.8l.6.7.2.3-.1.1h-.2l-.1-.1h0l-.2.3-.2.2h0l-.2.2v.4l-.3-.2h-.3l-.2.2-.2.2v-.6l-.2-.6h-.4l-.9.5v-.2l-.2-.1H485.3h0l-.2.1h0H484.7h0-1.4v-.2l-.2-.2h-.5v-.7l.1-.2.8-.5.3-.1H485l.3.3h.1l.1-.4h.6l.4-.2.1-.2h.1l.3-.2h.3l.7.9h.1l.3.2h.1zm-5.7-4v-.6l-.1-.3-.2-.2h-.5v-.5l-.2-.3-.2-.2h-.6v-.2l.3-.6v-.5l-.2-.6v-.2l-.1-.4h-.3l-.5.3h-.2l-.7-.6.2-.2.3-.4.3-.1.5-.2.2-.2-.2-.4h.1l.3-.2-.2-.3v-.4h.1l.2.1v.1l.3-.1.6-.7 2.6 3.4v.2l.3.4.6.3 1.2.2V475l-.2.3-.6.5-.2.3.3.2.3-.1.3-.3.1-.3.2.3.1.4.2.7v.3h-.2l-.4-.4v.4l.2.2.3.1v.3l-.3.2h-.2l-.3-.3-.3-.2H485.4v.2l-.1.5h-.1l-.3.2-.3.1-.3.1-.6-.2-.4-.3-.1-.3.2-.4-.4-.4-.2-.3v-.2zm-53.7-4.7l.1.2h.2l.1.1.1.1V473.7l-.1.1h-.2v.6l-.2.1-.3.2h-.1l-.1.2-.1.2-.1.1h-.2l-.2.1-1.4.9h-.2l-.3-.4v-.3l-.2-.7h.2l.1-.3V473.3l-.3-.2-.2-.1-.2-.3v-1.3l.1-.2.2-.2V469.8l-.1-.2h0v-.2l.1-.2h0v-.7h.2l.2-.2.4-.1.2-.3.2-.2v-.4l-.2-.4v-.4l.1-.2H427.6l.4.4.6.3.2.2.2.4.1.1v.2l.1.2V469.3l.2.8v.7l-.3.8v.3zm205.2-141.8h.3l.2.2.2.3.2.2-.2.2v.2h-.4l.2-.2v-.6l-.3-.2h0-.2v-.1zM501.2 393.3l-1-.2h-.2l-.2.3v.2h-.5l-.1-.1h0-.2v.1l-.1.1-.2.4-.1.2h-.1v.1h-.1v.2h0V395l-.1.2v.1h0v.3h0v.1l.1.2V396.1l-.2.5v.2h0l-.1.2-.4.2-.1.1V398l.1.9.1.5v.3l-.1.4V400.3l.1.7V401.6h0l-.1.2h0l-.2.1h0l-.1.1v.1l-.1.2-.1.2v.1h-.1v.1h-.2 0-.1l-.4-.2-.8-.3h-.1v-.1h-.1l-.1-.2-.2-.5-.1-.4-.1-1v-.4h-.2 0-.1 0-.1l-.1.2h0-.2 0-.1l-.5-.5h0v-.1l-.1-.2h0v-.3h0v-.2l-.2-.1v-1.9l-.1-.7v-.2l.2-.8V394.2l.3-.5V392.8l.2-.2h0l1.6-1.2 2.3-1.7.3-.1.7.5h.1v.1l.1.2h0v.4h0l.1.2H499.4l.1.1h.1l.1.2v.4h.2l.7.4H500.9l.3.2.6.4h.1v.1l-.1.2-.2.1-.2.2h-.2z"/>
</svg>
