<svg width="240" height="241" viewBox="0 0 240 241" fill="none" xmlns="http://www.w3.org/2000/svg">
<path d="M3 6.41016C4.65685 6.41016 6 5.06701 6 3.41016C6 1.7533 4.65685 0.410156 3 0.410156C1.34315 0.410156 0 1.7533 0 3.41016C0 5.06701 1.34315 6.41016 3 6.41016Z" fill="#0F1C24"/>
<path d="M29 6.41016C30.6569 6.41016 32 5.06701 32 3.41016C32 1.7533 30.6569 0.410156 29 0.410156C27.3431 0.410156 26 1.7533 26 3.41016C26 5.06701 27.3431 6.41016 29 6.41016Z" fill="#0F1C24"/>
<path d="M55 6.41016C56.6569 6.41016 58 5.06701 58 3.41016C58 1.7533 56.6569 0.410156 55 0.410156C53.3431 0.410156 52 1.7533 52 3.41016C52 5.06701 53.3431 6.41016 55 6.41016Z" fill="#0F1C24"/>
<path d="M81 6.41016C82.6569 6.41016 84 5.06701 84 3.41016C84 1.7533 82.6569 0.410156 81 0.410156C79.3431 0.410156 78 1.7533 78 3.41016C78 5.06701 79.3431 6.41016 81 6.41016Z" fill="#0F1C24"/>
<path d="M107 6.41016C108.657 6.41016 110 5.06701 110 3.41016C110 1.7533 108.657 0.410156 107 0.410156C105.343 0.410156 104 1.7533 104 3.41016C104 5.06701 105.343 6.41016 107 6.41016Z" fill="#0F1C24"/>
<path d="M133 6.41016C134.657 6.41016 136 5.06701 136 3.41016C136 1.7533 134.657 0.410156 133 0.410156C131.343 0.410156 130 1.7533 130 3.41016C130 5.06701 131.343 6.41016 133 6.41016Z" fill="#0F1C24"/>
<path d="M159 6.41016C160.657 6.41016 162 5.06701 162 3.41016C162 1.7533 160.657 0.410156 159 0.410156C157.343 0.410156 156 1.7533 156 3.41016C156 5.06701 157.343 6.41016 159 6.41016Z" fill="#0F1C24"/>
<path d="M185 6.41016C186.657 6.41016 188 5.06701 188 3.41016C188 1.7533 186.657 0.410156 185 0.410156C183.343 0.410156 182 1.7533 182 3.41016C182 5.06701 183.343 6.41016 185 6.41016Z" fill="#0F1C24"/>
<path d="M211 6.41016C212.657 6.41016 214 5.06701 214 3.41016C214 1.7533 212.657 0.410156 211 0.410156C209.343 0.410156 208 1.7533 208 3.41016C208 5.06701 209.343 6.41016 211 6.41016Z" fill="#0F1C24"/>
<path d="M237 6.41016C238.657 6.41016 240 5.06701 240 3.41016C240 1.7533 238.657 0.410156 237 0.410156C235.343 0.410156 234 1.7533 234 3.41016C234 5.06701 235.343 6.41016 237 6.41016Z" fill="#0F1C24"/>
<path d="M3 32.4102C4.65685 32.4102 6 31.067 6 29.4102C6 27.7533 4.65685 26.4102 3 26.4102C1.34315 26.4102 0 27.7533 0 29.4102C0 31.067 1.34315 32.4102 3 32.4102Z" fill="#0F1C24"/>
<path d="M29 32.4102C30.6569 32.4102 32 31.067 32 29.4102C32 27.7533 30.6569 26.4102 29 26.4102C27.3431 26.4102 26 27.7533 26 29.4102C26 31.067 27.3431 32.4102 29 32.4102Z" fill="#0F1C24"/>
<path d="M55 32.4102C56.6569 32.4102 58 31.067 58 29.4102C58 27.7533 56.6569 26.4102 55 26.4102C53.3431 26.4102 52 27.7533 52 29.4102C52 31.067 53.3431 32.4102 55 32.4102Z" fill="#0F1C24"/>
<path d="M81 32.4102C82.6569 32.4102 84 31.067 84 29.4102C84 27.7533 82.6569 26.4102 81 26.4102C79.3431 26.4102 78 27.7533 78 29.4102C78 31.067 79.3431 32.4102 81 32.4102Z" fill="#0F1C24"/>
<path d="M107 32.4102C108.657 32.4102 110 31.067 110 29.4102C110 27.7533 108.657 26.4102 107 26.4102C105.343 26.4102 104 27.7533 104 29.4102C104 31.067 105.343 32.4102 107 32.4102Z" fill="#0F1C24"/>
<path d="M133 32.4102C134.657 32.4102 136 31.067 136 29.4102C136 27.7533 134.657 26.4102 133 26.4102C131.343 26.4102 130 27.7533 130 29.4102C130 31.067 131.343 32.4102 133 32.4102Z" fill="#0F1C24"/>
<path d="M159 32.4102C160.657 32.4102 162 31.067 162 29.4102C162 27.7533 160.657 26.4102 159 26.4102C157.343 26.4102 156 27.7533 156 29.4102C156 31.067 157.343 32.4102 159 32.4102Z" fill="#0F1C24"/>
<path d="M185 32.4102C186.657 32.4102 188 31.067 188 29.4102C188 27.7533 186.657 26.4102 185 26.4102C183.343 26.4102 182 27.7533 182 29.4102C182 31.067 183.343 32.4102 185 32.4102Z" fill="#0F1C24"/>
<path d="M211 32.4102C212.657 32.4102 214 31.067 214 29.4102C214 27.7533 212.657 26.4102 211 26.4102C209.343 26.4102 208 27.7533 208 29.4102C208 31.067 209.343 32.4102 211 32.4102Z" fill="#0F1C24"/>
<path d="M237 32.4102C238.657 32.4102 240 31.067 240 29.4102C240 27.7533 238.657 26.4102 237 26.4102C235.343 26.4102 234 27.7533 234 29.4102C234 31.067 235.343 32.4102 237 32.4102Z" fill="#0F1C24"/>
<path d="M3 58.4102C4.65685 58.4102 6 57.067 6 55.4102C6 53.7533 4.65685 52.4102 3 52.4102C1.34315 52.4102 0 53.7533 0 55.4102C0 57.067 1.34315 58.4102 3 58.4102Z" fill="#0F1C24"/>
<path d="M29 58.4102C30.6569 58.4102 32 57.067 32 55.4102C32 53.7533 30.6569 52.4102 29 52.4102C27.3431 52.4102 26 53.7533 26 55.4102C26 57.067 27.3431 58.4102 29 58.4102Z" fill="#0F1C24"/>
<path d="M55 58.4102C56.6569 58.4102 58 57.067 58 55.4102C58 53.7533 56.6569 52.4102 55 52.4102C53.3431 52.4102 52 53.7533 52 55.4102C52 57.067 53.3431 58.4102 55 58.4102Z" fill="#0F1C24"/>
<path d="M81 58.4102C82.6569 58.4102 84 57.067 84 55.4102C84 53.7533 82.6569 52.4102 81 52.4102C79.3431 52.4102 78 53.7533 78 55.4102C78 57.067 79.3431 58.4102 81 58.4102Z" fill="#0F1C24"/>
<path d="M107 58.4102C108.657 58.4102 110 57.067 110 55.4102C110 53.7533 108.657 52.4102 107 52.4102C105.343 52.4102 104 53.7533 104 55.4102C104 57.067 105.343 58.4102 107 58.4102Z" fill="#0F1C24"/>
<path d="M133 58.4102C134.657 58.4102 136 57.067 136 55.4102C136 53.7533 134.657 52.4102 133 52.4102C131.343 52.4102 130 53.7533 130 55.4102C130 57.067 131.343 58.4102 133 58.4102Z" fill="#0F1C24"/>
<path d="M159 58.4102C160.657 58.4102 162 57.067 162 55.4102C162 53.7533 160.657 52.4102 159 52.4102C157.343 52.4102 156 53.7533 156 55.4102C156 57.067 157.343 58.4102 159 58.4102Z" fill="#0F1C24"/>
<path d="M185 58.4102C186.657 58.4102 188 57.067 188 55.4102C188 53.7533 186.657 52.4102 185 52.4102C183.343 52.4102 182 53.7533 182 55.4102C182 57.067 183.343 58.4102 185 58.4102Z" fill="#0F1C24"/>
<path d="M211 58.4102C212.657 58.4102 214 57.067 214 55.4102C214 53.7533 212.657 52.4102 211 52.4102C209.343 52.4102 208 53.7533 208 55.4102C208 57.067 209.343 58.4102 211 58.4102Z" fill="#0F1C24"/>
<path d="M237 58.4102C238.657 58.4102 240 57.067 240 55.4102C240 53.7533 238.657 52.4102 237 52.4102C235.343 52.4102 234 53.7533 234 55.4102C234 57.067 235.343 58.4102 237 58.4102Z" fill="#0F1C24"/>
<path d="M3 84.4102C4.65685 84.4102 6 83.067 6 81.4102C6 79.7533 4.65685 78.4102 3 78.4102C1.34315 78.4102 0 79.7533 0 81.4102C0 83.067 1.34315 84.4102 3 84.4102Z" fill="#0F1C24"/>
<path d="M29 84.4102C30.6569 84.4102 32 83.067 32 81.4102C32 79.7533 30.6569 78.4102 29 78.4102C27.3431 78.4102 26 79.7533 26 81.4102C26 83.067 27.3431 84.4102 29 84.4102Z" fill="#0F1C24"/>
<path d="M55 84.4102C56.6569 84.4102 58 83.067 58 81.4102C58 79.7533 56.6569 78.4102 55 78.4102C53.3431 78.4102 52 79.7533 52 81.4102C52 83.067 53.3431 84.4102 55 84.4102Z" fill="#0F1C24"/>
<path d="M81 84.4102C82.6569 84.4102 84 83.067 84 81.4102C84 79.7533 82.6569 78.4102 81 78.4102C79.3431 78.4102 78 79.7533 78 81.4102C78 83.067 79.3431 84.4102 81 84.4102Z" fill="#0F1C24"/>
<path d="M107 84.4102C108.657 84.4102 110 83.067 110 81.4102C110 79.7533 108.657 78.4102 107 78.4102C105.343 78.4102 104 79.7533 104 81.4102C104 83.067 105.343 84.4102 107 84.4102Z" fill="#0F1C24"/>
<path d="M133 84.4102C134.657 84.4102 136 83.067 136 81.4102C136 79.7533 134.657 78.4102 133 78.4102C131.343 78.4102 130 79.7533 130 81.4102C130 83.067 131.343 84.4102 133 84.4102Z" fill="#0F1C24"/>
<path d="M159 84.4102C160.657 84.4102 162 83.067 162 81.4102C162 79.7533 160.657 78.4102 159 78.4102C157.343 78.4102 156 79.7533 156 81.4102C156 83.067 157.343 84.4102 159 84.4102Z" fill="#0F1C24"/>
<path d="M185 84.4102C186.657 84.4102 188 83.067 188 81.4102C188 79.7533 186.657 78.4102 185 78.4102C183.343 78.4102 182 79.7533 182 81.4102C182 83.067 183.343 84.4102 185 84.4102Z" fill="#0F1C24"/>
<path d="M211 84.4102C212.657 84.4102 214 83.067 214 81.4102C214 79.7533 212.657 78.4102 211 78.4102C209.343 78.4102 208 79.7533 208 81.4102C208 83.067 209.343 84.4102 211 84.4102Z" fill="#0F1C24"/>
<path d="M237 84.4102C238.657 84.4102 240 83.067 240 81.4102C240 79.7533 238.657 78.4102 237 78.4102C235.343 78.4102 234 79.7533 234 81.4102C234 83.067 235.343 84.4102 237 84.4102Z" fill="#0F1C24"/>
<path d="M3 110.41C4.65685 110.41 6 109.067 6 107.41C6 105.753 4.65685 104.41 3 104.41C1.34315 104.41 0 105.753 0 107.41C0 109.067 1.34315 110.41 3 110.41Z" fill="#0F1C24"/>
<path d="M29 110.41C30.6569 110.41 32 109.067 32 107.41C32 105.753 30.6569 104.41 29 104.41C27.3431 104.41 26 105.753 26 107.41C26 109.067 27.3431 110.41 29 110.41Z" fill="#0F1C24"/>
<path d="M55 110.41C56.6569 110.41 58 109.067 58 107.41C58 105.753 56.6569 104.41 55 104.41C53.3431 104.41 52 105.753 52 107.41C52 109.067 53.3431 110.41 55 110.41Z" fill="#0F1C24"/>
<path d="M81 110.41C82.6569 110.41 84 109.067 84 107.41C84 105.753 82.6569 104.41 81 104.41C79.3431 104.41 78 105.753 78 107.41C78 109.067 79.3431 110.41 81 110.41Z" fill="#0F1C24"/>
<path d="M107 110.41C108.657 110.41 110 109.067 110 107.41C110 105.753 108.657 104.41 107 104.41C105.343 104.41 104 105.753 104 107.41C104 109.067 105.343 110.41 107 110.41Z" fill="#0F1C24"/>
<path d="M133 110.41C134.657 110.41 136 109.067 136 107.41C136 105.753 134.657 104.41 133 104.41C131.343 104.41 130 105.753 130 107.41C130 109.067 131.343 110.41 133 110.41Z" fill="#0F1C24"/>
<path d="M159 110.41C160.657 110.41 162 109.067 162 107.41C162 105.753 160.657 104.41 159 104.41C157.343 104.41 156 105.753 156 107.41C156 109.067 157.343 110.41 159 110.41Z" fill="#0F1C24"/>
<path d="M185 110.41C186.657 110.41 188 109.067 188 107.41C188 105.753 186.657 104.41 185 104.41C183.343 104.41 182 105.753 182 107.41C182 109.067 183.343 110.41 185 110.41Z" fill="#0F1C24"/>
<path d="M211 110.41C212.657 110.41 214 109.067 214 107.41C214 105.753 212.657 104.41 211 104.41C209.343 104.41 208 105.753 208 107.41C208 109.067 209.343 110.41 211 110.41Z" fill="#0F1C24"/>
<path d="M237 110.41C238.657 110.41 240 109.067 240 107.41C240 105.753 238.657 104.41 237 104.41C235.343 104.41 234 105.753 234 107.41C234 109.067 235.343 110.41 237 110.41Z" fill="#0F1C24"/>
<path d="M3 136.41C4.65685 136.41 6 135.067 6 133.41C6 131.753 4.65685 130.41 3 130.41C1.34315 130.41 0 131.753 0 133.41C0 135.067 1.34315 136.41 3 136.41Z" fill="#0F1C24"/>
<path d="M29 136.41C30.6569 136.41 32 135.067 32 133.41C32 131.753 30.6569 130.41 29 130.41C27.3431 130.41 26 131.753 26 133.41C26 135.067 27.3431 136.41 29 136.41Z" fill="#0F1C24"/>
<path d="M55 136.41C56.6569 136.41 58 135.067 58 133.41C58 131.753 56.6569 130.41 55 130.41C53.3431 130.41 52 131.753 52 133.41C52 135.067 53.3431 136.41 55 136.41Z" fill="#0F1C24"/>
<path d="M81 136.41C82.6569 136.41 84 135.067 84 133.41C84 131.753 82.6569 130.41 81 130.41C79.3431 130.41 78 131.753 78 133.41C78 135.067 79.3431 136.41 81 136.41Z" fill="#0F1C24"/>
<path d="M107 136.41C108.657 136.41 110 135.067 110 133.41C110 131.753 108.657 130.41 107 130.41C105.343 130.41 104 131.753 104 133.41C104 135.067 105.343 136.41 107 136.41Z" fill="#0F1C24"/>
<path d="M133 136.41C134.657 136.41 136 135.067 136 133.41C136 131.753 134.657 130.41 133 130.41C131.343 130.41 130 131.753 130 133.41C130 135.067 131.343 136.41 133 136.41Z" fill="#0F1C24"/>
<path d="M159 136.41C160.657 136.41 162 135.067 162 133.41C162 131.753 160.657 130.41 159 130.41C157.343 130.41 156 131.753 156 133.41C156 135.067 157.343 136.41 159 136.41Z" fill="#0F1C24"/>
<path d="M185 136.41C186.657 136.41 188 135.067 188 133.41C188 131.753 186.657 130.41 185 130.41C183.343 130.41 182 131.753 182 133.41C182 135.067 183.343 136.41 185 136.41Z" fill="#0F1C24"/>
<path d="M211 136.41C212.657 136.41 214 135.067 214 133.41C214 131.753 212.657 130.41 211 130.41C209.343 130.41 208 131.753 208 133.41C208 135.067 209.343 136.41 211 136.41Z" fill="#0F1C24"/>
<path d="M237 136.41C238.657 136.41 240 135.067 240 133.41C240 131.753 238.657 130.41 237 130.41C235.343 130.41 234 131.753 234 133.41C234 135.067 235.343 136.41 237 136.41Z" fill="#0F1C24"/>
<path d="M3 162.41C4.65685 162.41 6 161.067 6 159.41C6 157.753 4.65685 156.41 3 156.41C1.34315 156.41 0 157.753 0 159.41C0 161.067 1.34315 162.41 3 162.41Z" fill="#0F1C24"/>
<path d="M29 162.41C30.6569 162.41 32 161.067 32 159.41C32 157.753 30.6569 156.41 29 156.41C27.3431 156.41 26 157.753 26 159.41C26 161.067 27.3431 162.41 29 162.41Z" fill="#0F1C24"/>
<path d="M55 162.41C56.6569 162.41 58 161.067 58 159.41C58 157.753 56.6569 156.41 55 156.41C53.3431 156.41 52 157.753 52 159.41C52 161.067 53.3431 162.41 55 162.41Z" fill="#0F1C24"/>
<path d="M81 162.41C82.6569 162.41 84 161.067 84 159.41C84 157.753 82.6569 156.41 81 156.41C79.3431 156.41 78 157.753 78 159.41C78 161.067 79.3431 162.41 81 162.41Z" fill="#0F1C24"/>
<path d="M107 162.41C108.657 162.41 110 161.067 110 159.41C110 157.753 108.657 156.41 107 156.41C105.343 156.41 104 157.753 104 159.41C104 161.067 105.343 162.41 107 162.41Z" fill="#0F1C24"/>
<path d="M133 162.41C134.657 162.41 136 161.067 136 159.41C136 157.753 134.657 156.41 133 156.41C131.343 156.41 130 157.753 130 159.41C130 161.067 131.343 162.41 133 162.41Z" fill="#0F1C24"/>
<path d="M159 162.41C160.657 162.41 162 161.067 162 159.41C162 157.753 160.657 156.41 159 156.41C157.343 156.41 156 157.753 156 159.41C156 161.067 157.343 162.41 159 162.41Z" fill="#0F1C24"/>
<path d="M185 162.41C186.657 162.41 188 161.067 188 159.41C188 157.753 186.657 156.41 185 156.41C183.343 156.41 182 157.753 182 159.41C182 161.067 183.343 162.41 185 162.41Z" fill="#0F1C24"/>
<path d="M211 162.41C212.657 162.41 214 161.067 214 159.41C214 157.753 212.657 156.41 211 156.41C209.343 156.41 208 157.753 208 159.41C208 161.067 209.343 162.41 211 162.41Z" fill="#0F1C24"/>
<path d="M237 162.41C238.657 162.41 240 161.067 240 159.41C240 157.753 238.657 156.41 237 156.41C235.343 156.41 234 157.753 234 159.41C234 161.067 235.343 162.41 237 162.41Z" fill="#0F1C24"/>
<path d="M3 188.41C4.65685 188.41 6 187.067 6 185.41C6 183.753 4.65685 182.41 3 182.41C1.34315 182.41 0 183.753 0 185.41C0 187.067 1.34315 188.41 3 188.41Z" fill="#0F1C24"/>
<path d="M29 188.41C30.6569 188.41 32 187.067 32 185.41C32 183.753 30.6569 182.41 29 182.41C27.3431 182.41 26 183.753 26 185.41C26 187.067 27.3431 188.41 29 188.41Z" fill="#0F1C24"/>
<path d="M55 188.41C56.6569 188.41 58 187.067 58 185.41C58 183.753 56.6569 182.41 55 182.41C53.3431 182.41 52 183.753 52 185.41C52 187.067 53.3431 188.41 55 188.41Z" fill="#0F1C24"/>
<path d="M81 188.41C82.6569 188.41 84 187.067 84 185.41C84 183.753 82.6569 182.41 81 182.41C79.3431 182.41 78 183.753 78 185.41C78 187.067 79.3431 188.41 81 188.41Z" fill="#0F1C24"/>
<path d="M107 188.41C108.657 188.41 110 187.067 110 185.41C110 183.753 108.657 182.41 107 182.41C105.343 182.41 104 183.753 104 185.41C104 187.067 105.343 188.41 107 188.41Z" fill="#0F1C24"/>
<path d="M133 188.41C134.657 188.41 136 187.067 136 185.41C136 183.753 134.657 182.41 133 182.41C131.343 182.41 130 183.753 130 185.41C130 187.067 131.343 188.41 133 188.41Z" fill="#0F1C24"/>
<path d="M159 188.41C160.657 188.41 162 187.067 162 185.41C162 183.753 160.657 182.41 159 182.41C157.343 182.41 156 183.753 156 185.41C156 187.067 157.343 188.41 159 188.41Z" fill="#0F1C24"/>
<path d="M185 188.41C186.657 188.41 188 187.067 188 185.41C188 183.753 186.657 182.41 185 182.41C183.343 182.41 182 183.753 182 185.41C182 187.067 183.343 188.41 185 188.41Z" fill="#0F1C24"/>
<path d="M211 188.41C212.657 188.41 214 187.067 214 185.41C214 183.753 212.657 182.41 211 182.41C209.343 182.41 208 183.753 208 185.41C208 187.067 209.343 188.41 211 188.41Z" fill="#0F1C24"/>
<path d="M237 188.41C238.657 188.41 240 187.067 240 185.41C240 183.753 238.657 182.41 237 182.41C235.343 182.41 234 183.753 234 185.41C234 187.067 235.343 188.41 237 188.41Z" fill="#0F1C24"/>
<path d="M3 214.41C4.65685 214.41 6 213.067 6 211.41C6 209.753 4.65685 208.41 3 208.41C1.34315 208.41 0 209.753 0 211.41C0 213.067 1.34315 214.41 3 214.41Z" fill="#0F1C24"/>
<path d="M29 214.41C30.6569 214.41 32 213.067 32 211.41C32 209.753 30.6569 208.41 29 208.41C27.3431 208.41 26 209.753 26 211.41C26 213.067 27.3431 214.41 29 214.41Z" fill="#0F1C24"/>
<path d="M55 214.41C56.6569 214.41 58 213.067 58 211.41C58 209.753 56.6569 208.41 55 208.41C53.3431 208.41 52 209.753 52 211.41C52 213.067 53.3431 214.41 55 214.41Z" fill="#0F1C24"/>
<path d="M81 214.41C82.6569 214.41 84 213.067 84 211.41C84 209.753 82.6569 208.41 81 208.41C79.3431 208.41 78 209.753 78 211.41C78 213.067 79.3431 214.41 81 214.41Z" fill="#0F1C24"/>
<path d="M107 214.41C108.657 214.41 110 213.067 110 211.41C110 209.753 108.657 208.41 107 208.41C105.343 208.41 104 209.753 104 211.41C104 213.067 105.343 214.41 107 214.41Z" fill="#0F1C24"/>
<path d="M133 214.41C134.657 214.41 136 213.067 136 211.41C136 209.753 134.657 208.41 133 208.41C131.343 208.41 130 209.753 130 211.41C130 213.067 131.343 214.41 133 214.41Z" fill="#0F1C24"/>
<path d="M159 214.41C160.657 214.41 162 213.067 162 211.41C162 209.753 160.657 208.41 159 208.41C157.343 208.41 156 209.753 156 211.41C156 213.067 157.343 214.41 159 214.41Z" fill="#0F1C24"/>
<path d="M185 214.41C186.657 214.41 188 213.067 188 211.41C188 209.753 186.657 208.41 185 208.41C183.343 208.41 182 209.753 182 211.41C182 213.067 183.343 214.41 185 214.41Z" fill="#0F1C24"/>
<path d="M211 214.41C212.657 214.41 214 213.067 214 211.41C214 209.753 212.657 208.41 211 208.41C209.343 208.41 208 209.753 208 211.41C208 213.067 209.343 214.41 211 214.41Z" fill="#0F1C24"/>
<path d="M237 214.41C238.657 214.41 240 213.067 240 211.41C240 209.753 238.657 208.41 237 208.41C235.343 208.41 234 209.753 234 211.41C234 213.067 235.343 214.41 237 214.41Z" fill="#0F1C24"/>
<path d="M3 240.41C4.65685 240.41 6 239.067 6 237.41C6 235.753 4.65685 234.41 3 234.41C1.34315 234.41 0 235.753 0 237.41C0 239.067 1.34315 240.41 3 240.41Z" fill="#0F1C24"/>
<path d="M29 240.41C30.6569 240.41 32 239.067 32 237.41C32 235.753 30.6569 234.41 29 234.41C27.3431 234.41 26 235.753 26 237.41C26 239.067 27.3431 240.41 29 240.41Z" fill="#0F1C24"/>
<path d="M55 240.41C56.6569 240.41 58 239.067 58 237.41C58 235.753 56.6569 234.41 55 234.41C53.3431 234.41 52 235.753 52 237.41C52 239.067 53.3431 240.41 55 240.41Z" fill="#0F1C24"/>
<path d="M81 240.41C82.6569 240.41 84 239.067 84 237.41C84 235.753 82.6569 234.41 81 234.41C79.3431 234.41 78 235.753 78 237.41C78 239.067 79.3431 240.41 81 240.41Z" fill="#0F1C24"/>
<path d="M107 240.41C108.657 240.41 110 239.067 110 237.41C110 235.753 108.657 234.41 107 234.41C105.343 234.41 104 235.753 104 237.41C104 239.067 105.343 240.41 107 240.41Z" fill="#0F1C24"/>
<path d="M133 240.41C134.657 240.41 136 239.067 136 237.41C136 235.753 134.657 234.41 133 234.41C131.343 234.41 130 235.753 130 237.41C130 239.067 131.343 240.41 133 240.41Z" fill="#0F1C24"/>
<path d="M159 240.41C160.657 240.41 162 239.067 162 237.41C162 235.753 160.657 234.41 159 234.41C157.343 234.41 156 235.753 156 237.41C156 239.067 157.343 240.41 159 240.41Z" fill="#0F1C24"/>
<path d="M185 240.41C186.657 240.41 188 239.067 188 237.41C188 235.753 186.657 234.41 185 234.41C183.343 234.41 182 235.753 182 237.41C182 239.067 183.343 240.41 185 240.41Z" fill="#0F1C24"/>
<path d="M211 240.41C212.657 240.41 214 239.067 214 237.41C214 235.753 212.657 234.41 211 234.41C209.343 234.41 208 235.753 208 237.41C208 239.067 209.343 240.41 211 240.41Z" fill="#0F1C24"/>
<path d="M237 240.41C238.657 240.41 240 239.067 240 237.41C240 235.753 238.657 234.41 237 234.41C235.343 234.41 234 235.753 234 237.41C234 239.067 235.343 240.41 237 240.41Z" fill="#0F1C24"/>
</svg>
