<svg width="110" height="111" viewBox="0 0 110 111" fill="none" xmlns="http://www.w3.org/2000/svg">
<path d="M6 3.41016C6 5.06104 4.65089 6.41016 3 6.41016C1.34911 6.41016 0 5.06104 0 3.41016C0 1.75927 1.34911 0.410156 3 0.410156C4.65089 0.410156 6 1.75927 6 3.41016Z" fill="#0F1C24"/>
<path d="M32 3.41016C32 5.06104 30.6509 6.41016 29 6.41016C27.3491 6.41016 26 5.06104 26 3.41016C26 1.75927 27.3491 0.410156 29 0.410156C30.6509 0.410156 32 1.75927 32 3.41016Z" fill="#0F1C24"/>
<path d="M58 3.41016C58 5.06104 56.6509 6.41016 55 6.41016C53.3491 6.41016 52 5.06104 52 3.41016C52 1.75927 53.3491 0.410156 55 0.410156C56.6509 0.410156 58 1.75927 58 3.41016Z" fill="#0F1C24"/>
<path d="M84 3.41016C84 5.06104 82.6509 6.41016 81 6.41016C79.3491 6.41016 78 5.06104 78 3.41016C78 1.75927 79.3491 0.410156 81 0.410156C82.6509 0.410156 84 1.75927 84 3.41016Z" fill="#0F1C24"/>
<path d="M110 3.41016C110 5.06104 108.651 6.41016 107 6.41016C105.349 6.41016 104 5.06104 104 3.41016C104 1.75927 105.349 0.410156 107 0.410156C108.651 0.410156 110 1.75927 110 3.41016Z" fill="#0F1C24"/>
<path d="M6 29.4102C6 31.061 4.65089 32.4102 3 32.4102C1.34911 32.4102 0 31.061 0 29.4102C0 27.7593 1.34911 26.4102 3 26.4102C4.65089 26.4102 6 27.7593 6 29.4102Z" fill="#0F1C24"/>
<path d="M32 29.4102C32 31.061 30.6509 32.4102 29 32.4102C27.3491 32.4102 26 31.061 26 29.4102C26 27.7593 27.3491 26.4102 29 26.4102C30.6509 26.4102 32 27.7593 32 29.4102Z" fill="#0F1C24"/>
<path d="M58 29.4102C58 31.061 56.6509 32.4102 55 32.4102C53.3491 32.4102 52 31.061 52 29.4102C52 27.7593 53.3491 26.4102 55 26.4102C56.6509 26.4102 58 27.7593 58 29.4102Z" fill="#0F1C24"/>
<path d="M84 29.4102C84 31.061 82.6509 32.4102 81 32.4102C79.3491 32.4102 78 31.061 78 29.4102C78 27.7593 79.3491 26.4102 81 26.4102C82.6509 26.4102 84 27.7593 84 29.4102Z" fill="#0F1C24"/>
<path d="M110 29.4102C110 31.061 108.651 32.4102 107 32.4102C105.349 32.4102 104 31.061 104 29.4102C104 27.7593 105.349 26.4102 107 26.4102C108.651 26.4102 110 27.7593 110 29.4102Z" fill="#0F1C24"/>
<path d="M6 55.4102C6 57.061 4.65089 58.4102 3 58.4102C1.34911 58.4102 0 57.061 0 55.4102C0 53.7593 1.34911 52.4102 3 52.4102C4.65089 52.4102 6 53.7593 6 55.4102Z" fill="#0F1C24"/>
<path d="M32 55.4102C32 57.061 30.6509 58.4102 29 58.4102C27.3491 58.4102 26 57.061 26 55.4102C26 53.7593 27.3491 52.4102 29 52.4102C30.6509 52.4102 32 53.7593 32 55.4102Z" fill="#0F1C24"/>
<path d="M58 55.4102C58 57.061 56.6509 58.4102 55 58.4102C53.3491 58.4102 52 57.061 52 55.4102C52 53.7593 53.3491 52.4102 55 52.4102C56.6509 52.4102 58 53.7593 58 55.4102Z" fill="#0F1C24"/>
<path d="M84 55.4102C84 57.061 82.6509 58.4102 81 58.4102C79.3491 58.4102 78 57.061 78 55.4102C78 53.7593 79.3491 52.4102 81 52.4102C82.6509 52.4102 84 53.7593 84 55.4102Z" fill="#0F1C24"/>
<path d="M110 55.4102C110 57.061 108.651 58.4102 107 58.4102C105.349 58.4102 104 57.061 104 55.4102C104 53.7593 105.349 52.4102 107 52.4102C108.651 52.4102 110 53.7593 110 55.4102Z" fill="#0F1C24"/>
<path d="M6 81.4102C6 83.061 4.65089 84.4102 3 84.4102C1.34911 84.4102 0 83.061 0 81.4102C0 79.7593 1.34911 78.4102 3 78.4102C4.65089 78.4102 6 79.7593 6 81.4102Z" fill="#0F1C24"/>
<path d="M32 81.4102C32 83.061 30.6509 84.4102 29 84.4102C27.3491 84.4102 26 83.061 26 81.4102C26 79.7593 27.3491 78.4102 29 78.4102C30.6509 78.4102 32 79.7593 32 81.4102Z" fill="#0F1C24"/>
<path d="M58 81.4102C58 83.061 56.6509 84.4102 55 84.4102C53.3491 84.4102 52 83.061 52 81.4102C52 79.7593 53.3491 78.4102 55 78.4102C56.6509 78.4102 58 79.7593 58 81.4102Z" fill="#0F1C24"/>
<path d="M84 81.4102C84 83.061 82.6509 84.4102 81 84.4102C79.3491 84.4102 78 83.061 78 81.4102C78 79.7593 79.3491 78.4102 81 78.4102C82.6509 78.4102 84 79.7593 84 81.4102Z" fill="#0F1C24"/>
<path d="M110 81.4102C110 83.061 108.651 84.4102 107 84.4102C105.349 84.4102 104 83.061 104 81.4102C104 79.7593 105.349 78.4102 107 78.4102C108.651 78.4102 110 79.7593 110 81.4102Z" fill="#0F1C24"/>
<path d="M6 107.41C6 109.061 4.65089 110.41 3 110.41C1.34911 110.41 0 109.061 0 107.41C0 105.759 1.34911 104.41 3 104.41C4.65089 104.41 6 105.759 6 107.41Z" fill="#0F1C24"/>
<path d="M32 107.41C32 109.061 30.6509 110.41 29 110.41C27.3491 110.41 26 109.061 26 107.41C26 105.759 27.3491 104.41 29 104.41C30.6509 104.41 32 105.759 32 107.41Z" fill="#0F1C24"/>
<path d="M58 107.41C58 109.061 56.6509 110.41 55 110.41C53.3491 110.41 52 109.061 52 107.41C52 105.759 53.3491 104.41 55 104.41C56.6509 104.41 58 105.759 58 107.41Z" fill="#0F1C24"/>
<path d="M84 107.41C84 109.061 82.6509 110.41 81 110.41C79.3491 110.41 78 109.061 78 107.41C78 105.759 79.3491 104.41 81 104.41C82.6509 104.41 84 105.759 84 107.41Z" fill="#0F1C24"/>
<path d="M110 107.41C110 109.061 108.651 110.41 107 110.41C105.349 110.41 104 109.061 104 107.41C104 105.759 105.349 104.41 107 104.41C108.651 104.41 110 105.759 110 107.41Z" fill="#0F1C24"/>
</svg>
