<svg width="370" height="371" viewBox="0 0 370 371" fill="none" xmlns="http://www.w3.org/2000/svg">
<path d="M3 6.41016C4.65685 6.41016 6 5.06701 6 3.41016C6 1.7533 4.65685 0.410156 3 0.410156C1.34315 0.410156 0 1.7533 0 3.41016C0 5.06701 1.34315 6.41016 3 6.41016Z" fill="#0F1C24"/>
<path d="M29 6.41016C30.6569 6.41016 32 5.06701 32 3.41016C32 1.7533 30.6569 0.410156 29 0.410156C27.3431 0.410156 26 1.7533 26 3.41016C26 5.06701 27.3431 6.41016 29 6.41016Z" fill="#0F1C24"/>
<path d="M55 6.41016C56.6569 6.41016 58 5.06701 58 3.41016C58 1.7533 56.6569 0.410156 55 0.410156C53.3431 0.410156 52 1.7533 52 3.41016C52 5.06701 53.3431 6.41016 55 6.41016Z" fill="#0F1C24"/>
<path d="M81 6.41016C82.6569 6.41016 84 5.06701 84 3.41016C84 1.7533 82.6569 0.410156 81 0.410156C79.3431 0.410156 78 1.7533 78 3.41016C78 5.06701 79.3431 6.41016 81 6.41016Z" fill="#0F1C24"/>
<path d="M107 6.41016C108.657 6.41016 110 5.06701 110 3.41016C110 1.7533 108.657 0.410156 107 0.410156C105.343 0.410156 104 1.7533 104 3.41016C104 5.06701 105.343 6.41016 107 6.41016Z" fill="#0F1C24"/>
<path d="M133 6.41016C134.657 6.41016 136 5.06701 136 3.41016C136 1.7533 134.657 0.410156 133 0.410156C131.343 0.410156 130 1.7533 130 3.41016C130 5.06701 131.343 6.41016 133 6.41016Z" fill="#0F1C24"/>
<path d="M159 6.41016C160.657 6.41016 162 5.06701 162 3.41016C162 1.7533 160.657 0.410156 159 0.410156C157.343 0.410156 156 1.7533 156 3.41016C156 5.06701 157.343 6.41016 159 6.41016Z" fill="#0F1C24"/>
<path d="M185 6.41016C186.657 6.41016 188 5.06701 188 3.41016C188 1.7533 186.657 0.410156 185 0.410156C183.343 0.410156 182 1.7533 182 3.41016C182 5.06701 183.343 6.41016 185 6.41016Z" fill="#0F1C24"/>
<path d="M211 6.41016C212.657 6.41016 214 5.06701 214 3.41016C214 1.7533 212.657 0.410156 211 0.410156C209.343 0.410156 208 1.7533 208 3.41016C208 5.06701 209.343 6.41016 211 6.41016Z" fill="#0F1C24"/>
<path d="M237 6.41016C238.657 6.41016 240 5.06701 240 3.41016C240 1.7533 238.657 0.410156 237 0.410156C235.343 0.410156 234 1.7533 234 3.41016C234 5.06701 235.343 6.41016 237 6.41016Z" fill="#0F1C24"/>
<path d="M263 6.41016C264.657 6.41016 266 5.06701 266 3.41016C266 1.7533 264.657 0.410156 263 0.410156C261.343 0.410156 260 1.7533 260 3.41016C260 5.06701 261.343 6.41016 263 6.41016Z" fill="#0F1C24"/>
<path d="M289 6.41016C290.657 6.41016 292 5.06701 292 3.41016C292 1.7533 290.657 0.410156 289 0.410156C287.343 0.410156 286 1.7533 286 3.41016C286 5.06701 287.343 6.41016 289 6.41016Z" fill="#0F1C24"/>
<path d="M315 6.41016C316.657 6.41016 318 5.06701 318 3.41016C318 1.7533 316.657 0.410156 315 0.410156C313.343 0.410156 312 1.7533 312 3.41016C312 5.06701 313.343 6.41016 315 6.41016Z" fill="#0F1C24"/>
<path d="M341 6.41016C342.657 6.41016 344 5.06701 344 3.41016C344 1.7533 342.657 0.410156 341 0.410156C339.343 0.410156 338 1.7533 338 3.41016C338 5.06701 339.343 6.41016 341 6.41016Z" fill="#0F1C24"/>
<path d="M367 6.41016C368.657 6.41016 370 5.06701 370 3.41016C370 1.7533 368.657 0.410156 367 0.410156C365.343 0.410156 364 1.7533 364 3.41016C364 5.06701 365.343 6.41016 367 6.41016Z" fill="#0F1C24"/>
<path d="M3 32.4102C4.65685 32.4102 6 31.067 6 29.4102C6 27.7533 4.65685 26.4102 3 26.4102C1.34315 26.4102 0 27.7533 0 29.4102C0 31.067 1.34315 32.4102 3 32.4102Z" fill="#0F1C24"/>
<path d="M29 32.4102C30.6569 32.4102 32 31.067 32 29.4102C32 27.7533 30.6569 26.4102 29 26.4102C27.3431 26.4102 26 27.7533 26 29.4102C26 31.067 27.3431 32.4102 29 32.4102Z" fill="#0F1C24"/>
<path d="M55 32.4102C56.6569 32.4102 58 31.067 58 29.4102C58 27.7533 56.6569 26.4102 55 26.4102C53.3431 26.4102 52 27.7533 52 29.4102C52 31.067 53.3431 32.4102 55 32.4102Z" fill="#0F1C24"/>
<path d="M81 32.4102C82.6569 32.4102 84 31.067 84 29.4102C84 27.7533 82.6569 26.4102 81 26.4102C79.3431 26.4102 78 27.7533 78 29.4102C78 31.067 79.3431 32.4102 81 32.4102Z" fill="#0F1C24"/>
<path d="M107 32.4102C108.657 32.4102 110 31.067 110 29.4102C110 27.7533 108.657 26.4102 107 26.4102C105.343 26.4102 104 27.7533 104 29.4102C104 31.067 105.343 32.4102 107 32.4102Z" fill="#0F1C24"/>
<path d="M133 32.4102C134.657 32.4102 136 31.067 136 29.4102C136 27.7533 134.657 26.4102 133 26.4102C131.343 26.4102 130 27.7533 130 29.4102C130 31.067 131.343 32.4102 133 32.4102Z" fill="#0F1C24"/>
<path d="M159 32.4102C160.657 32.4102 162 31.067 162 29.4102C162 27.7533 160.657 26.4102 159 26.4102C157.343 26.4102 156 27.7533 156 29.4102C156 31.067 157.343 32.4102 159 32.4102Z" fill="#0F1C24"/>
<path d="M185 32.4102C186.657 32.4102 188 31.067 188 29.4102C188 27.7533 186.657 26.4102 185 26.4102C183.343 26.4102 182 27.7533 182 29.4102C182 31.067 183.343 32.4102 185 32.4102Z" fill="#0F1C24"/>
<path d="M211 32.4102C212.657 32.4102 214 31.067 214 29.4102C214 27.7533 212.657 26.4102 211 26.4102C209.343 26.4102 208 27.7533 208 29.4102C208 31.067 209.343 32.4102 211 32.4102Z" fill="#0F1C24"/>
<path d="M237 32.4102C238.657 32.4102 240 31.067 240 29.4102C240 27.7533 238.657 26.4102 237 26.4102C235.343 26.4102 234 27.7533 234 29.4102C234 31.067 235.343 32.4102 237 32.4102Z" fill="#0F1C24"/>
<path d="M263 32.4102C264.657 32.4102 266 31.067 266 29.4102C266 27.7533 264.657 26.4102 263 26.4102C261.343 26.4102 260 27.7533 260 29.4102C260 31.067 261.343 32.4102 263 32.4102Z" fill="#0F1C24"/>
<path d="M289 32.4102C290.657 32.4102 292 31.067 292 29.4102C292 27.7533 290.657 26.4102 289 26.4102C287.343 26.4102 286 27.7533 286 29.4102C286 31.067 287.343 32.4102 289 32.4102Z" fill="#0F1C24"/>
<path d="M315 32.4102C316.657 32.4102 318 31.067 318 29.4102C318 27.7533 316.657 26.4102 315 26.4102C313.343 26.4102 312 27.7533 312 29.4102C312 31.067 313.343 32.4102 315 32.4102Z" fill="#0F1C24"/>
<path d="M341 32.4102C342.657 32.4102 344 31.067 344 29.4102C344 27.7533 342.657 26.4102 341 26.4102C339.343 26.4102 338 27.7533 338 29.4102C338 31.067 339.343 32.4102 341 32.4102Z" fill="#0F1C24"/>
<path d="M367 32.4102C368.657 32.4102 370 31.067 370 29.4102C370 27.7533 368.657 26.4102 367 26.4102C365.343 26.4102 364 27.7533 364 29.4102C364 31.067 365.343 32.4102 367 32.4102Z" fill="#0F1C24"/>
<path d="M3 58.4102C4.65685 58.4102 6 57.067 6 55.4102C6 53.7533 4.65685 52.4102 3 52.4102C1.34315 52.4102 0 53.7533 0 55.4102C0 57.067 1.34315 58.4102 3 58.4102Z" fill="#0F1C24"/>
<path d="M29 58.4102C30.6569 58.4102 32 57.067 32 55.4102C32 53.7533 30.6569 52.4102 29 52.4102C27.3431 52.4102 26 53.7533 26 55.4102C26 57.067 27.3431 58.4102 29 58.4102Z" fill="#0F1C24"/>
<path d="M55 58.4102C56.6569 58.4102 58 57.067 58 55.4102C58 53.7533 56.6569 52.4102 55 52.4102C53.3431 52.4102 52 53.7533 52 55.4102C52 57.067 53.3431 58.4102 55 58.4102Z" fill="#0F1C24"/>
<path d="M81 58.4102C82.6569 58.4102 84 57.067 84 55.4102C84 53.7533 82.6569 52.4102 81 52.4102C79.3431 52.4102 78 53.7533 78 55.4102C78 57.067 79.3431 58.4102 81 58.4102Z" fill="#0F1C24"/>
<path d="M107 58.4102C108.657 58.4102 110 57.067 110 55.4102C110 53.7533 108.657 52.4102 107 52.4102C105.343 52.4102 104 53.7533 104 55.4102C104 57.067 105.343 58.4102 107 58.4102Z" fill="#0F1C24"/>
<path d="M133 58.4102C134.657 58.4102 136 57.067 136 55.4102C136 53.7533 134.657 52.4102 133 52.4102C131.343 52.4102 130 53.7533 130 55.4102C130 57.067 131.343 58.4102 133 58.4102Z" fill="#0F1C24"/>
<path d="M159 58.4102C160.657 58.4102 162 57.067 162 55.4102C162 53.7533 160.657 52.4102 159 52.4102C157.343 52.4102 156 53.7533 156 55.4102C156 57.067 157.343 58.4102 159 58.4102Z" fill="#0F1C24"/>
<path d="M185 58.4102C186.657 58.4102 188 57.067 188 55.4102C188 53.7533 186.657 52.4102 185 52.4102C183.343 52.4102 182 53.7533 182 55.4102C182 57.067 183.343 58.4102 185 58.4102Z" fill="#0F1C24"/>
<path d="M211 58.4102C212.657 58.4102 214 57.067 214 55.4102C214 53.7533 212.657 52.4102 211 52.4102C209.343 52.4102 208 53.7533 208 55.4102C208 57.067 209.343 58.4102 211 58.4102Z" fill="#0F1C24"/>
<path d="M237 58.4102C238.657 58.4102 240 57.067 240 55.4102C240 53.7533 238.657 52.4102 237 52.4102C235.343 52.4102 234 53.7533 234 55.4102C234 57.067 235.343 58.4102 237 58.4102Z" fill="#0F1C24"/>
<path d="M263 58.4102C264.657 58.4102 266 57.067 266 55.4102C266 53.7533 264.657 52.4102 263 52.4102C261.343 52.4102 260 53.7533 260 55.4102C260 57.067 261.343 58.4102 263 58.4102Z" fill="#0F1C24"/>
<path d="M289 58.4102C290.657 58.4102 292 57.067 292 55.4102C292 53.7533 290.657 52.4102 289 52.4102C287.343 52.4102 286 53.7533 286 55.4102C286 57.067 287.343 58.4102 289 58.4102Z" fill="#0F1C24"/>
<path d="M315 58.4102C316.657 58.4102 318 57.067 318 55.4102C318 53.7533 316.657 52.4102 315 52.4102C313.343 52.4102 312 53.7533 312 55.4102C312 57.067 313.343 58.4102 315 58.4102Z" fill="#0F1C24"/>
<path d="M341 58.4102C342.657 58.4102 344 57.067 344 55.4102C344 53.7533 342.657 52.4102 341 52.4102C339.343 52.4102 338 53.7533 338 55.4102C338 57.067 339.343 58.4102 341 58.4102Z" fill="#0F1C24"/>
<path d="M367 58.4102C368.657 58.4102 370 57.067 370 55.4102C370 53.7533 368.657 52.4102 367 52.4102C365.343 52.4102 364 53.7533 364 55.4102C364 57.067 365.343 58.4102 367 58.4102Z" fill="#0F1C24"/>
<path d="M3 84.4102C4.65685 84.4102 6 83.067 6 81.4102C6 79.7533 4.65685 78.4102 3 78.4102C1.34315 78.4102 0 79.7533 0 81.4102C0 83.067 1.34315 84.4102 3 84.4102Z" fill="#0F1C24"/>
<path d="M29 84.4102C30.6569 84.4102 32 83.067 32 81.4102C32 79.7533 30.6569 78.4102 29 78.4102C27.3431 78.4102 26 79.7533 26 81.4102C26 83.067 27.3431 84.4102 29 84.4102Z" fill="#0F1C24"/>
<path d="M55 84.4102C56.6569 84.4102 58 83.067 58 81.4102C58 79.7533 56.6569 78.4102 55 78.4102C53.3431 78.4102 52 79.7533 52 81.4102C52 83.067 53.3431 84.4102 55 84.4102Z" fill="#0F1C24"/>
<path d="M81 84.4102C82.6569 84.4102 84 83.067 84 81.4102C84 79.7533 82.6569 78.4102 81 78.4102C79.3431 78.4102 78 79.7533 78 81.4102C78 83.067 79.3431 84.4102 81 84.4102Z" fill="#0F1C24"/>
<path d="M107 84.4102C108.657 84.4102 110 83.067 110 81.4102C110 79.7533 108.657 78.4102 107 78.4102C105.343 78.4102 104 79.7533 104 81.4102C104 83.067 105.343 84.4102 107 84.4102Z" fill="#0F1C24"/>
<path d="M133 84.4102C134.657 84.4102 136 83.067 136 81.4102C136 79.7533 134.657 78.4102 133 78.4102C131.343 78.4102 130 79.7533 130 81.4102C130 83.067 131.343 84.4102 133 84.4102Z" fill="#0F1C24"/>
<path d="M159 84.4102C160.657 84.4102 162 83.067 162 81.4102C162 79.7533 160.657 78.4102 159 78.4102C157.343 78.4102 156 79.7533 156 81.4102C156 83.067 157.343 84.4102 159 84.4102Z" fill="#0F1C24"/>
<path d="M185 84.4102C186.657 84.4102 188 83.067 188 81.4102C188 79.7533 186.657 78.4102 185 78.4102C183.343 78.4102 182 79.7533 182 81.4102C182 83.067 183.343 84.4102 185 84.4102Z" fill="#0F1C24"/>
<path d="M211 84.4102C212.657 84.4102 214 83.067 214 81.4102C214 79.7533 212.657 78.4102 211 78.4102C209.343 78.4102 208 79.7533 208 81.4102C208 83.067 209.343 84.4102 211 84.4102Z" fill="#0F1C24"/>
<path d="M237 84.4102C238.657 84.4102 240 83.067 240 81.4102C240 79.7533 238.657 78.4102 237 78.4102C235.343 78.4102 234 79.7533 234 81.4102C234 83.067 235.343 84.4102 237 84.4102Z" fill="#0F1C24"/>
<path d="M263 84.4102C264.657 84.4102 266 83.067 266 81.4102C266 79.7533 264.657 78.4102 263 78.4102C261.343 78.4102 260 79.7533 260 81.4102C260 83.067 261.343 84.4102 263 84.4102Z" fill="#0F1C24"/>
<path d="M289 84.4102C290.657 84.4102 292 83.067 292 81.4102C292 79.7533 290.657 78.4102 289 78.4102C287.343 78.4102 286 79.7533 286 81.4102C286 83.067 287.343 84.4102 289 84.4102Z" fill="#0F1C24"/>
<path d="M315 84.4102C316.657 84.4102 318 83.067 318 81.4102C318 79.7533 316.657 78.4102 315 78.4102C313.343 78.4102 312 79.7533 312 81.4102C312 83.067 313.343 84.4102 315 84.4102Z" fill="#0F1C24"/>
<path d="M341 84.4102C342.657 84.4102 344 83.067 344 81.4102C344 79.7533 342.657 78.4102 341 78.4102C339.343 78.4102 338 79.7533 338 81.4102C338 83.067 339.343 84.4102 341 84.4102Z" fill="#0F1C24"/>
<path d="M367 84.4102C368.657 84.4102 370 83.067 370 81.4102C370 79.7533 368.657 78.4102 367 78.4102C365.343 78.4102 364 79.7533 364 81.4102C364 83.067 365.343 84.4102 367 84.4102Z" fill="#0F1C24"/>
<path d="M3 110.41C4.65685 110.41 6 109.067 6 107.41C6 105.753 4.65685 104.41 3 104.41C1.34315 104.41 0 105.753 0 107.41C0 109.067 1.34315 110.41 3 110.41Z" fill="#0F1C24"/>
<path d="M29 110.41C30.6569 110.41 32 109.067 32 107.41C32 105.753 30.6569 104.41 29 104.41C27.3431 104.41 26 105.753 26 107.41C26 109.067 27.3431 110.41 29 110.41Z" fill="#0F1C24"/>
<path d="M55 110.41C56.6569 110.41 58 109.067 58 107.41C58 105.753 56.6569 104.41 55 104.41C53.3431 104.41 52 105.753 52 107.41C52 109.067 53.3431 110.41 55 110.41Z" fill="#0F1C24"/>
<path d="M81 110.41C82.6569 110.41 84 109.067 84 107.41C84 105.753 82.6569 104.41 81 104.41C79.3431 104.41 78 105.753 78 107.41C78 109.067 79.3431 110.41 81 110.41Z" fill="#0F1C24"/>
<path d="M107 110.41C108.657 110.41 110 109.067 110 107.41C110 105.753 108.657 104.41 107 104.41C105.343 104.41 104 105.753 104 107.41C104 109.067 105.343 110.41 107 110.41Z" fill="#0F1C24"/>
<path d="M133 110.41C134.657 110.41 136 109.067 136 107.41C136 105.753 134.657 104.41 133 104.41C131.343 104.41 130 105.753 130 107.41C130 109.067 131.343 110.41 133 110.41Z" fill="#0F1C24"/>
<path d="M159 110.41C160.657 110.41 162 109.067 162 107.41C162 105.753 160.657 104.41 159 104.41C157.343 104.41 156 105.753 156 107.41C156 109.067 157.343 110.41 159 110.41Z" fill="#0F1C24"/>
<path d="M185 110.41C186.657 110.41 188 109.067 188 107.41C188 105.753 186.657 104.41 185 104.41C183.343 104.41 182 105.753 182 107.41C182 109.067 183.343 110.41 185 110.41Z" fill="#0F1C24"/>
<path d="M211 110.41C212.657 110.41 214 109.067 214 107.41C214 105.753 212.657 104.41 211 104.41C209.343 104.41 208 105.753 208 107.41C208 109.067 209.343 110.41 211 110.41Z" fill="#0F1C24"/>
<path d="M237 110.41C238.657 110.41 240 109.067 240 107.41C240 105.753 238.657 104.41 237 104.41C235.343 104.41 234 105.753 234 107.41C234 109.067 235.343 110.41 237 110.41Z" fill="#0F1C24"/>
<path d="M263 110.41C264.657 110.41 266 109.067 266 107.41C266 105.753 264.657 104.41 263 104.41C261.343 104.41 260 105.753 260 107.41C260 109.067 261.343 110.41 263 110.41Z" fill="#0F1C24"/>
<path d="M289 110.41C290.657 110.41 292 109.067 292 107.41C292 105.753 290.657 104.41 289 104.41C287.343 104.41 286 105.753 286 107.41C286 109.067 287.343 110.41 289 110.41Z" fill="#0F1C24"/>
<path d="M315 110.41C316.657 110.41 318 109.067 318 107.41C318 105.753 316.657 104.41 315 104.41C313.343 104.41 312 105.753 312 107.41C312 109.067 313.343 110.41 315 110.41Z" fill="#0F1C24"/>
<path d="M341 110.41C342.657 110.41 344 109.067 344 107.41C344 105.753 342.657 104.41 341 104.41C339.343 104.41 338 105.753 338 107.41C338 109.067 339.343 110.41 341 110.41Z" fill="#0F1C24"/>
<path d="M367 110.41C368.657 110.41 370 109.067 370 107.41C370 105.753 368.657 104.41 367 104.41C365.343 104.41 364 105.753 364 107.41C364 109.067 365.343 110.41 367 110.41Z" fill="#0F1C24"/>
<path d="M3 136.41C4.65685 136.41 6 135.067 6 133.41C6 131.753 4.65685 130.41 3 130.41C1.34315 130.41 0 131.753 0 133.41C0 135.067 1.34315 136.41 3 136.41Z" fill="#0F1C24"/>
<path d="M29 136.41C30.6569 136.41 32 135.067 32 133.41C32 131.753 30.6569 130.41 29 130.41C27.3431 130.41 26 131.753 26 133.41C26 135.067 27.3431 136.41 29 136.41Z" fill="#0F1C24"/>
<path d="M55 136.41C56.6569 136.41 58 135.067 58 133.41C58 131.753 56.6569 130.41 55 130.41C53.3431 130.41 52 131.753 52 133.41C52 135.067 53.3431 136.41 55 136.41Z" fill="#0F1C24"/>
<path d="M81 136.41C82.6569 136.41 84 135.067 84 133.41C84 131.753 82.6569 130.41 81 130.41C79.3431 130.41 78 131.753 78 133.41C78 135.067 79.3431 136.41 81 136.41Z" fill="#0F1C24"/>
<path d="M107 136.41C108.657 136.41 110 135.067 110 133.41C110 131.753 108.657 130.41 107 130.41C105.343 130.41 104 131.753 104 133.41C104 135.067 105.343 136.41 107 136.41Z" fill="#0F1C24"/>
<path d="M133 136.41C134.657 136.41 136 135.067 136 133.41C136 131.753 134.657 130.41 133 130.41C131.343 130.41 130 131.753 130 133.41C130 135.067 131.343 136.41 133 136.41Z" fill="#0F1C24"/>
<path d="M159 136.41C160.657 136.41 162 135.067 162 133.41C162 131.753 160.657 130.41 159 130.41C157.343 130.41 156 131.753 156 133.41C156 135.067 157.343 136.41 159 136.41Z" fill="#0F1C24"/>
<path d="M185 136.41C186.657 136.41 188 135.067 188 133.41C188 131.753 186.657 130.41 185 130.41C183.343 130.41 182 131.753 182 133.41C182 135.067 183.343 136.41 185 136.41Z" fill="#0F1C24"/>
<path d="M211 136.41C212.657 136.41 214 135.067 214 133.41C214 131.753 212.657 130.41 211 130.41C209.343 130.41 208 131.753 208 133.41C208 135.067 209.343 136.41 211 136.41Z" fill="#0F1C24"/>
<path d="M237 136.41C238.657 136.41 240 135.067 240 133.41C240 131.753 238.657 130.41 237 130.41C235.343 130.41 234 131.753 234 133.41C234 135.067 235.343 136.41 237 136.41Z" fill="#0F1C24"/>
<path d="M263 136.41C264.657 136.41 266 135.067 266 133.41C266 131.753 264.657 130.41 263 130.41C261.343 130.41 260 131.753 260 133.41C260 135.067 261.343 136.41 263 136.41Z" fill="#0F1C24"/>
<path d="M289 136.41C290.657 136.41 292 135.067 292 133.41C292 131.753 290.657 130.41 289 130.41C287.343 130.41 286 131.753 286 133.41C286 135.067 287.343 136.41 289 136.41Z" fill="#0F1C24"/>
<path d="M315 136.41C316.657 136.41 318 135.067 318 133.41C318 131.753 316.657 130.41 315 130.41C313.343 130.41 312 131.753 312 133.41C312 135.067 313.343 136.41 315 136.41Z" fill="#0F1C24"/>
<path d="M341 136.41C342.657 136.41 344 135.067 344 133.41C344 131.753 342.657 130.41 341 130.41C339.343 130.41 338 131.753 338 133.41C338 135.067 339.343 136.41 341 136.41Z" fill="#0F1C24"/>
<path d="M367 136.41C368.657 136.41 370 135.067 370 133.41C370 131.753 368.657 130.41 367 130.41C365.343 130.41 364 131.753 364 133.41C364 135.067 365.343 136.41 367 136.41Z" fill="#0F1C24"/>
<path d="M3 162.41C4.65685 162.41 6 161.067 6 159.41C6 157.753 4.65685 156.41 3 156.41C1.34315 156.41 0 157.753 0 159.41C0 161.067 1.34315 162.41 3 162.41Z" fill="#0F1C24"/>
<path d="M29 162.41C30.6569 162.41 32 161.067 32 159.41C32 157.753 30.6569 156.41 29 156.41C27.3431 156.41 26 157.753 26 159.41C26 161.067 27.3431 162.41 29 162.41Z" fill="#0F1C24"/>
<path d="M55 162.41C56.6569 162.41 58 161.067 58 159.41C58 157.753 56.6569 156.41 55 156.41C53.3431 156.41 52 157.753 52 159.41C52 161.067 53.3431 162.41 55 162.41Z" fill="#0F1C24"/>
<path d="M81 162.41C82.6569 162.41 84 161.067 84 159.41C84 157.753 82.6569 156.41 81 156.41C79.3431 156.41 78 157.753 78 159.41C78 161.067 79.3431 162.41 81 162.41Z" fill="#0F1C24"/>
<path d="M107 162.41C108.657 162.41 110 161.067 110 159.41C110 157.753 108.657 156.41 107 156.41C105.343 156.41 104 157.753 104 159.41C104 161.067 105.343 162.41 107 162.41Z" fill="#0F1C24"/>
<path d="M133 162.41C134.657 162.41 136 161.067 136 159.41C136 157.753 134.657 156.41 133 156.41C131.343 156.41 130 157.753 130 159.41C130 161.067 131.343 162.41 133 162.41Z" fill="#0F1C24"/>
<path d="M159 162.41C160.657 162.41 162 161.067 162 159.41C162 157.753 160.657 156.41 159 156.41C157.343 156.41 156 157.753 156 159.41C156 161.067 157.343 162.41 159 162.41Z" fill="#0F1C24"/>
<path d="M185 162.41C186.657 162.41 188 161.067 188 159.41C188 157.753 186.657 156.41 185 156.41C183.343 156.41 182 157.753 182 159.41C182 161.067 183.343 162.41 185 162.41Z" fill="#0F1C24"/>
<path d="M211 162.41C212.657 162.41 214 161.067 214 159.41C214 157.753 212.657 156.41 211 156.41C209.343 156.41 208 157.753 208 159.41C208 161.067 209.343 162.41 211 162.41Z" fill="#0F1C24"/>
<path d="M237 162.41C238.657 162.41 240 161.067 240 159.41C240 157.753 238.657 156.41 237 156.41C235.343 156.41 234 157.753 234 159.41C234 161.067 235.343 162.41 237 162.41Z" fill="#0F1C24"/>
<path d="M263 162.41C264.657 162.41 266 161.067 266 159.41C266 157.753 264.657 156.41 263 156.41C261.343 156.41 260 157.753 260 159.41C260 161.067 261.343 162.41 263 162.41Z" fill="#0F1C24"/>
<path d="M289 162.41C290.657 162.41 292 161.067 292 159.41C292 157.753 290.657 156.41 289 156.41C287.343 156.41 286 157.753 286 159.41C286 161.067 287.343 162.41 289 162.41Z" fill="#0F1C24"/>
<path d="M315 162.41C316.657 162.41 318 161.067 318 159.41C318 157.753 316.657 156.41 315 156.41C313.343 156.41 312 157.753 312 159.41C312 161.067 313.343 162.41 315 162.41Z" fill="#0F1C24"/>
<path d="M341 162.41C342.657 162.41 344 161.067 344 159.41C344 157.753 342.657 156.41 341 156.41C339.343 156.41 338 157.753 338 159.41C338 161.067 339.343 162.41 341 162.41Z" fill="#0F1C24"/>
<path d="M367 162.41C368.657 162.41 370 161.067 370 159.41C370 157.753 368.657 156.41 367 156.41C365.343 156.41 364 157.753 364 159.41C364 161.067 365.343 162.41 367 162.41Z" fill="#0F1C24"/>
<path d="M3 188.41C4.65685 188.41 6 187.067 6 185.41C6 183.753 4.65685 182.41 3 182.41C1.34315 182.41 0 183.753 0 185.41C0 187.067 1.34315 188.41 3 188.41Z" fill="#0F1C24"/>
<path d="M29 188.41C30.6569 188.41 32 187.067 32 185.41C32 183.753 30.6569 182.41 29 182.41C27.3431 182.41 26 183.753 26 185.41C26 187.067 27.3431 188.41 29 188.41Z" fill="#0F1C24"/>
<path d="M55 188.41C56.6569 188.41 58 187.067 58 185.41C58 183.753 56.6569 182.41 55 182.41C53.3431 182.41 52 183.753 52 185.41C52 187.067 53.3431 188.41 55 188.41Z" fill="#0F1C24"/>
<path d="M81 188.41C82.6569 188.41 84 187.067 84 185.41C84 183.753 82.6569 182.41 81 182.41C79.3431 182.41 78 183.753 78 185.41C78 187.067 79.3431 188.41 81 188.41Z" fill="#0F1C24"/>
<path d="M107 188.41C108.657 188.41 110 187.067 110 185.41C110 183.753 108.657 182.41 107 182.41C105.343 182.41 104 183.753 104 185.41C104 187.067 105.343 188.41 107 188.41Z" fill="#0F1C24"/>
<path d="M133 188.41C134.657 188.41 136 187.067 136 185.41C136 183.753 134.657 182.41 133 182.41C131.343 182.41 130 183.753 130 185.41C130 187.067 131.343 188.41 133 188.41Z" fill="#0F1C24"/>
<path d="M159 188.41C160.657 188.41 162 187.067 162 185.41C162 183.753 160.657 182.41 159 182.41C157.343 182.41 156 183.753 156 185.41C156 187.067 157.343 188.41 159 188.41Z" fill="#0F1C24"/>
<path d="M185 188.41C186.657 188.41 188 187.067 188 185.41C188 183.753 186.657 182.41 185 182.41C183.343 182.41 182 183.753 182 185.41C182 187.067 183.343 188.41 185 188.41Z" fill="#0F1C24"/>
<path d="M211 188.41C212.657 188.41 214 187.067 214 185.41C214 183.753 212.657 182.41 211 182.41C209.343 182.41 208 183.753 208 185.41C208 187.067 209.343 188.41 211 188.41Z" fill="#0F1C24"/>
<path d="M237 188.41C238.657 188.41 240 187.067 240 185.41C240 183.753 238.657 182.41 237 182.41C235.343 182.41 234 183.753 234 185.41C234 187.067 235.343 188.41 237 188.41Z" fill="#0F1C24"/>
<path d="M263 188.41C264.657 188.41 266 187.067 266 185.41C266 183.753 264.657 182.41 263 182.41C261.343 182.41 260 183.753 260 185.41C260 187.067 261.343 188.41 263 188.41Z" fill="#0F1C24"/>
<path d="M289 188.41C290.657 188.41 292 187.067 292 185.41C292 183.753 290.657 182.41 289 182.41C287.343 182.41 286 183.753 286 185.41C286 187.067 287.343 188.41 289 188.41Z" fill="#0F1C24"/>
<path d="M315 188.41C316.657 188.41 318 187.067 318 185.41C318 183.753 316.657 182.41 315 182.41C313.343 182.41 312 183.753 312 185.41C312 187.067 313.343 188.41 315 188.41Z" fill="#0F1C24"/>
<path d="M341 188.41C342.657 188.41 344 187.067 344 185.41C344 183.753 342.657 182.41 341 182.41C339.343 182.41 338 183.753 338 185.41C338 187.067 339.343 188.41 341 188.41Z" fill="#0F1C24"/>
<path d="M367 188.41C368.657 188.41 370 187.067 370 185.41C370 183.753 368.657 182.41 367 182.41C365.343 182.41 364 183.753 364 185.41C364 187.067 365.343 188.41 367 188.41Z" fill="#0F1C24"/>
<path d="M3 214.41C4.65685 214.41 6 213.067 6 211.41C6 209.753 4.65685 208.41 3 208.41C1.34315 208.41 0 209.753 0 211.41C0 213.067 1.34315 214.41 3 214.41Z" fill="#0F1C24"/>
<path d="M29 214.41C30.6569 214.41 32 213.067 32 211.41C32 209.753 30.6569 208.41 29 208.41C27.3431 208.41 26 209.753 26 211.41C26 213.067 27.3431 214.41 29 214.41Z" fill="#0F1C24"/>
<path d="M55 214.41C56.6569 214.41 58 213.067 58 211.41C58 209.753 56.6569 208.41 55 208.41C53.3431 208.41 52 209.753 52 211.41C52 213.067 53.3431 214.41 55 214.41Z" fill="#0F1C24"/>
<path d="M81 214.41C82.6569 214.41 84 213.067 84 211.41C84 209.753 82.6569 208.41 81 208.41C79.3431 208.41 78 209.753 78 211.41C78 213.067 79.3431 214.41 81 214.41Z" fill="#0F1C24"/>
<path d="M107 214.41C108.657 214.41 110 213.067 110 211.41C110 209.753 108.657 208.41 107 208.41C105.343 208.41 104 209.753 104 211.41C104 213.067 105.343 214.41 107 214.41Z" fill="#0F1C24"/>
<path d="M133 214.41C134.657 214.41 136 213.067 136 211.41C136 209.753 134.657 208.41 133 208.41C131.343 208.41 130 209.753 130 211.41C130 213.067 131.343 214.41 133 214.41Z" fill="#0F1C24"/>
<path d="M159 214.41C160.657 214.41 162 213.067 162 211.41C162 209.753 160.657 208.41 159 208.41C157.343 208.41 156 209.753 156 211.41C156 213.067 157.343 214.41 159 214.41Z" fill="#0F1C24"/>
<path d="M185 214.41C186.657 214.41 188 213.067 188 211.41C188 209.753 186.657 208.41 185 208.41C183.343 208.41 182 209.753 182 211.41C182 213.067 183.343 214.41 185 214.41Z" fill="#0F1C24"/>
<path d="M211 214.41C212.657 214.41 214 213.067 214 211.41C214 209.753 212.657 208.41 211 208.41C209.343 208.41 208 209.753 208 211.41C208 213.067 209.343 214.41 211 214.41Z" fill="#0F1C24"/>
<path d="M237 214.41C238.657 214.41 240 213.067 240 211.41C240 209.753 238.657 208.41 237 208.41C235.343 208.41 234 209.753 234 211.41C234 213.067 235.343 214.41 237 214.41Z" fill="#0F1C24"/>
<path d="M263 214.41C264.657 214.41 266 213.067 266 211.41C266 209.753 264.657 208.41 263 208.41C261.343 208.41 260 209.753 260 211.41C260 213.067 261.343 214.41 263 214.41Z" fill="#0F1C24"/>
<path d="M289 214.41C290.657 214.41 292 213.067 292 211.41C292 209.753 290.657 208.41 289 208.41C287.343 208.41 286 209.753 286 211.41C286 213.067 287.343 214.41 289 214.41Z" fill="#0F1C24"/>
<path d="M315 214.41C316.657 214.41 318 213.067 318 211.41C318 209.753 316.657 208.41 315 208.41C313.343 208.41 312 209.753 312 211.41C312 213.067 313.343 214.41 315 214.41Z" fill="#0F1C24"/>
<path d="M341 214.41C342.657 214.41 344 213.067 344 211.41C344 209.753 342.657 208.41 341 208.41C339.343 208.41 338 209.753 338 211.41C338 213.067 339.343 214.41 341 214.41Z" fill="#0F1C24"/>
<path d="M367 214.41C368.657 214.41 370 213.067 370 211.41C370 209.753 368.657 208.41 367 208.41C365.343 208.41 364 209.753 364 211.41C364 213.067 365.343 214.41 367 214.41Z" fill="#0F1C24"/>
<path d="M3 240.41C4.65685 240.41 6 239.067 6 237.41C6 235.753 4.65685 234.41 3 234.41C1.34315 234.41 0 235.753 0 237.41C0 239.067 1.34315 240.41 3 240.41Z" fill="#0F1C24"/>
<path d="M29 240.41C30.6569 240.41 32 239.067 32 237.41C32 235.753 30.6569 234.41 29 234.41C27.3431 234.41 26 235.753 26 237.41C26 239.067 27.3431 240.41 29 240.41Z" fill="#0F1C24"/>
<path d="M55 240.41C56.6569 240.41 58 239.067 58 237.41C58 235.753 56.6569 234.41 55 234.41C53.3431 234.41 52 235.753 52 237.41C52 239.067 53.3431 240.41 55 240.41Z" fill="#0F1C24"/>
<path d="M81 240.41C82.6569 240.41 84 239.067 84 237.41C84 235.753 82.6569 234.41 81 234.41C79.3431 234.41 78 235.753 78 237.41C78 239.067 79.3431 240.41 81 240.41Z" fill="#0F1C24"/>
<path d="M107 240.41C108.657 240.41 110 239.067 110 237.41C110 235.753 108.657 234.41 107 234.41C105.343 234.41 104 235.753 104 237.41C104 239.067 105.343 240.41 107 240.41Z" fill="#0F1C24"/>
<path d="M133 240.41C134.657 240.41 136 239.067 136 237.41C136 235.753 134.657 234.41 133 234.41C131.343 234.41 130 235.753 130 237.41C130 239.067 131.343 240.41 133 240.41Z" fill="#0F1C24"/>
<path d="M159 240.41C160.657 240.41 162 239.067 162 237.41C162 235.753 160.657 234.41 159 234.41C157.343 234.41 156 235.753 156 237.41C156 239.067 157.343 240.41 159 240.41Z" fill="#0F1C24"/>
<path d="M185 240.41C186.657 240.41 188 239.067 188 237.41C188 235.753 186.657 234.41 185 234.41C183.343 234.41 182 235.753 182 237.41C182 239.067 183.343 240.41 185 240.41Z" fill="#0F1C24"/>
<path d="M211 240.41C212.657 240.41 214 239.067 214 237.41C214 235.753 212.657 234.41 211 234.41C209.343 234.41 208 235.753 208 237.41C208 239.067 209.343 240.41 211 240.41Z" fill="#0F1C24"/>
<path d="M237 240.41C238.657 240.41 240 239.067 240 237.41C240 235.753 238.657 234.41 237 234.41C235.343 234.41 234 235.753 234 237.41C234 239.067 235.343 240.41 237 240.41Z" fill="#0F1C24"/>
<path d="M263 240.41C264.657 240.41 266 239.067 266 237.41C266 235.753 264.657 234.41 263 234.41C261.343 234.41 260 235.753 260 237.41C260 239.067 261.343 240.41 263 240.41Z" fill="#0F1C24"/>
<path d="M289 240.41C290.657 240.41 292 239.067 292 237.41C292 235.753 290.657 234.41 289 234.41C287.343 234.41 286 235.753 286 237.41C286 239.067 287.343 240.41 289 240.41Z" fill="#0F1C24"/>
<path d="M315 240.41C316.657 240.41 318 239.067 318 237.41C318 235.753 316.657 234.41 315 234.41C313.343 234.41 312 235.753 312 237.41C312 239.067 313.343 240.41 315 240.41Z" fill="#0F1C24"/>
<path d="M341 240.41C342.657 240.41 344 239.067 344 237.41C344 235.753 342.657 234.41 341 234.41C339.343 234.41 338 235.753 338 237.41C338 239.067 339.343 240.41 341 240.41Z" fill="#0F1C24"/>
<path d="M367 240.41C368.657 240.41 370 239.067 370 237.41C370 235.753 368.657 234.41 367 234.41C365.343 234.41 364 235.753 364 237.41C364 239.067 365.343 240.41 367 240.41Z" fill="#0F1C24"/>
<path d="M3 266.41C4.65685 266.41 6 265.067 6 263.41C6 261.753 4.65685 260.41 3 260.41C1.34315 260.41 0 261.753 0 263.41C0 265.067 1.34315 266.41 3 266.41Z" fill="#0F1C24"/>
<path d="M29 266.41C30.6569 266.41 32 265.067 32 263.41C32 261.753 30.6569 260.41 29 260.41C27.3431 260.41 26 261.753 26 263.41C26 265.067 27.3431 266.41 29 266.41Z" fill="#0F1C24"/>
<path d="M55 266.41C56.6569 266.41 58 265.067 58 263.41C58 261.753 56.6569 260.41 55 260.41C53.3431 260.41 52 261.753 52 263.41C52 265.067 53.3431 266.41 55 266.41Z" fill="#0F1C24"/>
<path d="M81 266.41C82.6569 266.41 84 265.067 84 263.41C84 261.753 82.6569 260.41 81 260.41C79.3431 260.41 78 261.753 78 263.41C78 265.067 79.3431 266.41 81 266.41Z" fill="#0F1C24"/>
<path d="M107 266.41C108.657 266.41 110 265.067 110 263.41C110 261.753 108.657 260.41 107 260.41C105.343 260.41 104 261.753 104 263.41C104 265.067 105.343 266.41 107 266.41Z" fill="#0F1C24"/>
<path d="M133 266.41C134.657 266.41 136 265.067 136 263.41C136 261.753 134.657 260.41 133 260.41C131.343 260.41 130 261.753 130 263.41C130 265.067 131.343 266.41 133 266.41Z" fill="#0F1C24"/>
<path d="M159 266.41C160.657 266.41 162 265.067 162 263.41C162 261.753 160.657 260.41 159 260.41C157.343 260.41 156 261.753 156 263.41C156 265.067 157.343 266.41 159 266.41Z" fill="#0F1C24"/>
<path d="M185 266.41C186.657 266.41 188 265.067 188 263.41C188 261.753 186.657 260.41 185 260.41C183.343 260.41 182 261.753 182 263.41C182 265.067 183.343 266.41 185 266.41Z" fill="#0F1C24"/>
<path d="M211 266.41C212.657 266.41 214 265.067 214 263.41C214 261.753 212.657 260.41 211 260.41C209.343 260.41 208 261.753 208 263.41C208 265.067 209.343 266.41 211 266.41Z" fill="#0F1C24"/>
<path d="M237 266.41C238.657 266.41 240 265.067 240 263.41C240 261.753 238.657 260.41 237 260.41C235.343 260.41 234 261.753 234 263.41C234 265.067 235.343 266.41 237 266.41Z" fill="#0F1C24"/>
<path d="M263 266.41C264.657 266.41 266 265.067 266 263.41C266 261.753 264.657 260.41 263 260.41C261.343 260.41 260 261.753 260 263.41C260 265.067 261.343 266.41 263 266.41Z" fill="#0F1C24"/>
<path d="M289 266.41C290.657 266.41 292 265.067 292 263.41C292 261.753 290.657 260.41 289 260.41C287.343 260.41 286 261.753 286 263.41C286 265.067 287.343 266.41 289 266.41Z" fill="#0F1C24"/>
<path d="M315 266.41C316.657 266.41 318 265.067 318 263.41C318 261.753 316.657 260.41 315 260.41C313.343 260.41 312 261.753 312 263.41C312 265.067 313.343 266.41 315 266.41Z" fill="#0F1C24"/>
<path d="M341 266.41C342.657 266.41 344 265.067 344 263.41C344 261.753 342.657 260.41 341 260.41C339.343 260.41 338 261.753 338 263.41C338 265.067 339.343 266.41 341 266.41Z" fill="#0F1C24"/>
<path d="M367 266.41C368.657 266.41 370 265.067 370 263.41C370 261.753 368.657 260.41 367 260.41C365.343 260.41 364 261.753 364 263.41C364 265.067 365.343 266.41 367 266.41Z" fill="#0F1C24"/>
<path d="M3 292.41C4.65685 292.41 6 291.067 6 289.41C6 287.753 4.65685 286.41 3 286.41C1.34315 286.41 0 287.753 0 289.41C0 291.067 1.34315 292.41 3 292.41Z" fill="#0F1C24"/>
<path d="M29 292.41C30.6569 292.41 32 291.067 32 289.41C32 287.753 30.6569 286.41 29 286.41C27.3431 286.41 26 287.753 26 289.41C26 291.067 27.3431 292.41 29 292.41Z" fill="#0F1C24"/>
<path d="M55 292.41C56.6569 292.41 58 291.067 58 289.41C58 287.753 56.6569 286.41 55 286.41C53.3431 286.41 52 287.753 52 289.41C52 291.067 53.3431 292.41 55 292.41Z" fill="#0F1C24"/>
<path d="M81 292.41C82.6569 292.41 84 291.067 84 289.41C84 287.753 82.6569 286.41 81 286.41C79.3431 286.41 78 287.753 78 289.41C78 291.067 79.3431 292.41 81 292.41Z" fill="#0F1C24"/>
<path d="M107 292.41C108.657 292.41 110 291.067 110 289.41C110 287.753 108.657 286.41 107 286.41C105.343 286.41 104 287.753 104 289.41C104 291.067 105.343 292.41 107 292.41Z" fill="#0F1C24"/>
<path d="M133 292.41C134.657 292.41 136 291.067 136 289.41C136 287.753 134.657 286.41 133 286.41C131.343 286.41 130 287.753 130 289.41C130 291.067 131.343 292.41 133 292.41Z" fill="#0F1C24"/>
<path d="M159 292.41C160.657 292.41 162 291.067 162 289.41C162 287.753 160.657 286.41 159 286.41C157.343 286.41 156 287.753 156 289.41C156 291.067 157.343 292.41 159 292.41Z" fill="#0F1C24"/>
<path d="M185 292.41C186.657 292.41 188 291.067 188 289.41C188 287.753 186.657 286.41 185 286.41C183.343 286.41 182 287.753 182 289.41C182 291.067 183.343 292.41 185 292.41Z" fill="#0F1C24"/>
<path d="M211 292.41C212.657 292.41 214 291.067 214 289.41C214 287.753 212.657 286.41 211 286.41C209.343 286.41 208 287.753 208 289.41C208 291.067 209.343 292.41 211 292.41Z" fill="#0F1C24"/>
<path d="M237 292.41C238.657 292.41 240 291.067 240 289.41C240 287.753 238.657 286.41 237 286.41C235.343 286.41 234 287.753 234 289.41C234 291.067 235.343 292.41 237 292.41Z" fill="#0F1C24"/>
<path d="M263 292.41C264.657 292.41 266 291.067 266 289.41C266 287.753 264.657 286.41 263 286.41C261.343 286.41 260 287.753 260 289.41C260 291.067 261.343 292.41 263 292.41Z" fill="#0F1C24"/>
<path d="M289 292.41C290.657 292.41 292 291.067 292 289.41C292 287.753 290.657 286.41 289 286.41C287.343 286.41 286 287.753 286 289.41C286 291.067 287.343 292.41 289 292.41Z" fill="#0F1C24"/>
<path d="M315 292.41C316.657 292.41 318 291.067 318 289.41C318 287.753 316.657 286.41 315 286.41C313.343 286.41 312 287.753 312 289.41C312 291.067 313.343 292.41 315 292.41Z" fill="#0F1C24"/>
<path d="M341 292.41C342.657 292.41 344 291.067 344 289.41C344 287.753 342.657 286.41 341 286.41C339.343 286.41 338 287.753 338 289.41C338 291.067 339.343 292.41 341 292.41Z" fill="#0F1C24"/>
<path d="M367 292.41C368.657 292.41 370 291.067 370 289.41C370 287.753 368.657 286.41 367 286.41C365.343 286.41 364 287.753 364 289.41C364 291.067 365.343 292.41 367 292.41Z" fill="#0F1C24"/>
<path d="M3 318.41C4.65685 318.41 6 317.067 6 315.41C6 313.753 4.65685 312.41 3 312.41C1.34315 312.41 0 313.753 0 315.41C0 317.067 1.34315 318.41 3 318.41Z" fill="#0F1C24"/>
<path d="M29 318.41C30.6569 318.41 32 317.067 32 315.41C32 313.753 30.6569 312.41 29 312.41C27.3431 312.41 26 313.753 26 315.41C26 317.067 27.3431 318.41 29 318.41Z" fill="#0F1C24"/>
<path d="M55 318.41C56.6569 318.41 58 317.067 58 315.41C58 313.753 56.6569 312.41 55 312.41C53.3431 312.41 52 313.753 52 315.41C52 317.067 53.3431 318.41 55 318.41Z" fill="#0F1C24"/>
<path d="M81 318.41C82.6569 318.41 84 317.067 84 315.41C84 313.753 82.6569 312.41 81 312.41C79.3431 312.41 78 313.753 78 315.41C78 317.067 79.3431 318.41 81 318.41Z" fill="#0F1C24"/>
<path d="M107 318.41C108.657 318.41 110 317.067 110 315.41C110 313.753 108.657 312.41 107 312.41C105.343 312.41 104 313.753 104 315.41C104 317.067 105.343 318.41 107 318.41Z" fill="#0F1C24"/>
<path d="M133 318.41C134.657 318.41 136 317.067 136 315.41C136 313.753 134.657 312.41 133 312.41C131.343 312.41 130 313.753 130 315.41C130 317.067 131.343 318.41 133 318.41Z" fill="#0F1C24"/>
<path d="M159 318.41C160.657 318.41 162 317.067 162 315.41C162 313.753 160.657 312.41 159 312.41C157.343 312.41 156 313.753 156 315.41C156 317.067 157.343 318.41 159 318.41Z" fill="#0F1C24"/>
<path d="M185 318.41C186.657 318.41 188 317.067 188 315.41C188 313.753 186.657 312.41 185 312.41C183.343 312.41 182 313.753 182 315.41C182 317.067 183.343 318.41 185 318.41Z" fill="#0F1C24"/>
<path d="M211 318.41C212.657 318.41 214 317.067 214 315.41C214 313.753 212.657 312.41 211 312.41C209.343 312.41 208 313.753 208 315.41C208 317.067 209.343 318.41 211 318.41Z" fill="#0F1C24"/>
<path d="M237 318.41C238.657 318.41 240 317.067 240 315.41C240 313.753 238.657 312.41 237 312.41C235.343 312.41 234 313.753 234 315.41C234 317.067 235.343 318.41 237 318.41Z" fill="#0F1C24"/>
<path d="M263 318.41C264.657 318.41 266 317.067 266 315.41C266 313.753 264.657 312.41 263 312.41C261.343 312.41 260 313.753 260 315.41C260 317.067 261.343 318.41 263 318.41Z" fill="#0F1C24"/>
<path d="M289 318.41C290.657 318.41 292 317.067 292 315.41C292 313.753 290.657 312.41 289 312.41C287.343 312.41 286 313.753 286 315.41C286 317.067 287.343 318.41 289 318.41Z" fill="#0F1C24"/>
<path d="M315 318.41C316.657 318.41 318 317.067 318 315.41C318 313.753 316.657 312.41 315 312.41C313.343 312.41 312 313.753 312 315.41C312 317.067 313.343 318.41 315 318.41Z" fill="#0F1C24"/>
<path d="M341 318.41C342.657 318.41 344 317.067 344 315.41C344 313.753 342.657 312.41 341 312.41C339.343 312.41 338 313.753 338 315.41C338 317.067 339.343 318.41 341 318.41Z" fill="#0F1C24"/>
<path d="M367 318.41C368.657 318.41 370 317.067 370 315.41C370 313.753 368.657 312.41 367 312.41C365.343 312.41 364 313.753 364 315.41C364 317.067 365.343 318.41 367 318.41Z" fill="#0F1C24"/>
<path d="M3 344.41C4.65685 344.41 6 343.067 6 341.41C6 339.753 4.65685 338.41 3 338.41C1.34315 338.41 0 339.753 0 341.41C0 343.067 1.34315 344.41 3 344.41Z" fill="#0F1C24"/>
<path d="M29 344.41C30.6569 344.41 32 343.067 32 341.41C32 339.753 30.6569 338.41 29 338.41C27.3431 338.41 26 339.753 26 341.41C26 343.067 27.3431 344.41 29 344.41Z" fill="#0F1C24"/>
<path d="M55 344.41C56.6569 344.41 58 343.067 58 341.41C58 339.753 56.6569 338.41 55 338.41C53.3431 338.41 52 339.753 52 341.41C52 343.067 53.3431 344.41 55 344.41Z" fill="#0F1C24"/>
<path d="M81 344.41C82.6569 344.41 84 343.067 84 341.41C84 339.753 82.6569 338.41 81 338.41C79.3431 338.41 78 339.753 78 341.41C78 343.067 79.3431 344.41 81 344.41Z" fill="#0F1C24"/>
<path d="M107 344.41C108.657 344.41 110 343.067 110 341.41C110 339.753 108.657 338.41 107 338.41C105.343 338.41 104 339.753 104 341.41C104 343.067 105.343 344.41 107 344.41Z" fill="#0F1C24"/>
<path d="M133 344.41C134.657 344.41 136 343.067 136 341.41C136 339.753 134.657 338.41 133 338.41C131.343 338.41 130 339.753 130 341.41C130 343.067 131.343 344.41 133 344.41Z" fill="#0F1C24"/>
<path d="M159 344.41C160.657 344.41 162 343.067 162 341.41C162 339.753 160.657 338.41 159 338.41C157.343 338.41 156 339.753 156 341.41C156 343.067 157.343 344.41 159 344.41Z" fill="#0F1C24"/>
<path d="M185 344.41C186.657 344.41 188 343.067 188 341.41C188 339.753 186.657 338.41 185 338.41C183.343 338.41 182 339.753 182 341.41C182 343.067 183.343 344.41 185 344.41Z" fill="#0F1C24"/>
<path d="M211 344.41C212.657 344.41 214 343.067 214 341.41C214 339.753 212.657 338.41 211 338.41C209.343 338.41 208 339.753 208 341.41C208 343.067 209.343 344.41 211 344.41Z" fill="#0F1C24"/>
<path d="M237 344.41C238.657 344.41 240 343.067 240 341.41C240 339.753 238.657 338.41 237 338.41C235.343 338.41 234 339.753 234 341.41C234 343.067 235.343 344.41 237 344.41Z" fill="#0F1C24"/>
<path d="M263 344.41C264.657 344.41 266 343.067 266 341.41C266 339.753 264.657 338.41 263 338.41C261.343 338.41 260 339.753 260 341.41C260 343.067 261.343 344.41 263 344.41Z" fill="#0F1C24"/>
<path d="M289 344.41C290.657 344.41 292 343.067 292 341.41C292 339.753 290.657 338.41 289 338.41C287.343 338.41 286 339.753 286 341.41C286 343.067 287.343 344.41 289 344.41Z" fill="#0F1C24"/>
<path d="M315 344.41C316.657 344.41 318 343.067 318 341.41C318 339.753 316.657 338.41 315 338.41C313.343 338.41 312 339.753 312 341.41C312 343.067 313.343 344.41 315 344.41Z" fill="#0F1C24"/>
<path d="M341 344.41C342.657 344.41 344 343.067 344 341.41C344 339.753 342.657 338.41 341 338.41C339.343 338.41 338 339.753 338 341.41C338 343.067 339.343 344.41 341 344.41Z" fill="#0F1C24"/>
<path d="M367 344.41C368.657 344.41 370 343.067 370 341.41C370 339.753 368.657 338.41 367 338.41C365.343 338.41 364 339.753 364 341.41C364 343.067 365.343 344.41 367 344.41Z" fill="#0F1C24"/>
<path d="M3 370.41C4.65685 370.41 6 369.067 6 367.41C6 365.753 4.65685 364.41 3 364.41C1.34315 364.41 0 365.753 0 367.41C0 369.067 1.34315 370.41 3 370.41Z" fill="#0F1C24"/>
<path d="M29 370.41C30.6569 370.41 32 369.067 32 367.41C32 365.753 30.6569 364.41 29 364.41C27.3431 364.41 26 365.753 26 367.41C26 369.067 27.3431 370.41 29 370.41Z" fill="#0F1C24"/>
<path d="M55 370.41C56.6569 370.41 58 369.067 58 367.41C58 365.753 56.6569 364.41 55 364.41C53.3431 364.41 52 365.753 52 367.41C52 369.067 53.3431 370.41 55 370.41Z" fill="#0F1C24"/>
<path d="M81 370.41C82.6569 370.41 84 369.067 84 367.41C84 365.753 82.6569 364.41 81 364.41C79.3431 364.41 78 365.753 78 367.41C78 369.067 79.3431 370.41 81 370.41Z" fill="#0F1C24"/>
<path d="M107 370.41C108.657 370.41 110 369.067 110 367.41C110 365.753 108.657 364.41 107 364.41C105.343 364.41 104 365.753 104 367.41C104 369.067 105.343 370.41 107 370.41Z" fill="#0F1C24"/>
<path d="M133 370.41C134.657 370.41 136 369.067 136 367.41C136 365.753 134.657 364.41 133 364.41C131.343 364.41 130 365.753 130 367.41C130 369.067 131.343 370.41 133 370.41Z" fill="#0F1C24"/>
<path d="M159 370.41C160.657 370.41 162 369.067 162 367.41C162 365.753 160.657 364.41 159 364.41C157.343 364.41 156 365.753 156 367.41C156 369.067 157.343 370.41 159 370.41Z" fill="#0F1C24"/>
<path d="M185 370.41C186.657 370.41 188 369.067 188 367.41C188 365.753 186.657 364.41 185 364.41C183.343 364.41 182 365.753 182 367.41C182 369.067 183.343 370.41 185 370.41Z" fill="#0F1C24"/>
<path d="M211 370.41C212.657 370.41 214 369.067 214 367.41C214 365.753 212.657 364.41 211 364.41C209.343 364.41 208 365.753 208 367.41C208 369.067 209.343 370.41 211 370.41Z" fill="#0F1C24"/>
<path d="M237 370.41C238.657 370.41 240 369.067 240 367.41C240 365.753 238.657 364.41 237 364.41C235.343 364.41 234 365.753 234 367.41C234 369.067 235.343 370.41 237 370.41Z" fill="#0F1C24"/>
<path d="M263 370.41C264.657 370.41 266 369.067 266 367.41C266 365.753 264.657 364.41 263 364.41C261.343 364.41 260 365.753 260 367.41C260 369.067 261.343 370.41 263 370.41Z" fill="#0F1C24"/>
<path d="M289 370.41C290.657 370.41 292 369.067 292 367.41C292 365.753 290.657 364.41 289 364.41C287.343 364.41 286 365.753 286 367.41C286 369.067 287.343 370.41 289 370.41Z" fill="#0F1C24"/>
<path d="M315 370.41C316.657 370.41 318 369.067 318 367.41C318 365.753 316.657 364.41 315 364.41C313.343 364.41 312 365.753 312 367.41C312 369.067 313.343 370.41 315 370.41Z" fill="#0F1C24"/>
<path d="M341 370.41C342.657 370.41 344 369.067 344 367.41C344 365.753 342.657 364.41 341 364.41C339.343 364.41 338 365.753 338 367.41C338 369.067 339.343 370.41 341 370.41Z" fill="#0F1C24"/>
<path d="M367 370.41C368.657 370.41 370 369.067 370 367.41C370 365.753 368.657 364.41 367 364.41C365.343 364.41 364 365.753 364 367.41C364 369.067 365.343 370.41 367 370.41Z" fill="#0F1C24"/>
</svg>
